%TF.GenerationSoftware,KiCad,Pcbnew,(6.0.5)*%
%TF.CreationDate,2022-09-03T12:51:18+02:00*%
%TF.ProjectId,hyperram_asic,68797065-7272-4616-9d5f-617369632e6b,rev?*%
%TF.SameCoordinates,Original*%
%TF.FileFunction,Soldermask,Top*%
%TF.FilePolarity,Negative*%
%FSLAX46Y46*%
G04 Gerber Fmt 4.6, Leading zero omitted, Abs format (unit mm)*
G04 Created by KiCad (PCBNEW (6.0.5)) date 2022-09-03 12:51:18*
%MOMM*%
%LPD*%
G01*
G04 APERTURE LIST*
G04 Aperture macros list*
%AMRoundRect*
0 Rectangle with rounded corners*
0 $1 Rounding radius*
0 $2 $3 $4 $5 $6 $7 $8 $9 X,Y pos of 4 corners*
0 Add a 4 corners polygon primitive as box body*
4,1,4,$2,$3,$4,$5,$6,$7,$8,$9,$2,$3,0*
0 Add four circle primitives for the rounded corners*
1,1,$1+$1,$2,$3*
1,1,$1+$1,$4,$5*
1,1,$1+$1,$6,$7*
1,1,$1+$1,$8,$9*
0 Add four rect primitives between the rounded corners*
20,1,$1+$1,$2,$3,$4,$5,0*
20,1,$1+$1,$4,$5,$6,$7,0*
20,1,$1+$1,$6,$7,$8,$9,0*
20,1,$1+$1,$8,$9,$2,$3,0*%
G04 Aperture macros list end*
%ADD10RoundRect,0.050000X-0.700000X0.300000X-0.700000X-0.300000X0.700000X-0.300000X0.700000X0.300000X0*%
%ADD11RoundRect,0.050000X-0.600000X0.300000X-0.600000X-0.300000X0.600000X-0.300000X0.600000X0.300000X0*%
%ADD12RoundRect,0.250000X0.275000X-0.200000X0.275000X0.200000X-0.275000X0.200000X-0.275000X-0.200000X0*%
%ADD13RoundRect,0.205000X0.155000X-0.212500X0.155000X0.212500X-0.155000X0.212500X-0.155000X-0.212500X0*%
%ADD14RoundRect,0.205000X-0.155000X0.212500X-0.155000X-0.212500X0.155000X-0.212500X0.155000X0.212500X0*%
%ADD15RoundRect,0.300000X-0.450000X0.325000X-0.450000X-0.325000X0.450000X-0.325000X0.450000X0.325000X0*%
%ADD16C,1.100000*%
%ADD17RoundRect,0.300000X0.475000X-0.337500X0.475000X0.337500X-0.475000X0.337500X-0.475000X-0.337500X0*%
%ADD18C,0.308000*%
%ADD19RoundRect,0.250000X-0.275000X0.200000X-0.275000X-0.200000X0.275000X-0.200000X0.275000X0.200000X0*%
%ADD20RoundRect,0.300000X-0.475000X0.337500X-0.475000X-0.337500X0.475000X-0.337500X0.475000X0.337500X0*%
%ADD21O,1.800000X1.800000*%
%ADD22RoundRect,0.050000X0.850000X-0.850000X0.850000X0.850000X-0.850000X0.850000X-0.850000X-0.850000X0*%
%ADD23RoundRect,0.050000X-0.510000X-1.700000X0.510000X-1.700000X0.510000X1.700000X-0.510000X1.700000X0*%
%ADD24C,1.880000*%
%ADD25RoundRect,0.050000X0.212500X0.450000X-0.212500X0.450000X-0.212500X-0.450000X0.212500X-0.450000X0*%
%ADD26C,0.470000*%
%ADD27RoundRect,0.205000X0.212500X0.155000X-0.212500X0.155000X-0.212500X-0.155000X0.212500X-0.155000X0*%
%ADD28C,0.650000*%
%ADD29RoundRect,0.050000X0.675000X-0.200000X0.675000X0.200000X-0.675000X0.200000X-0.675000X-0.200000X0*%
%ADD30RoundRect,0.050000X0.950000X-0.950000X0.950000X0.950000X-0.950000X0.950000X-0.950000X-0.950000X0*%
%ADD31C,0.370000*%
%ADD32RoundRect,0.300000X0.337500X0.475000X-0.337500X0.475000X-0.337500X-0.475000X0.337500X-0.475000X0*%
%ADD33RoundRect,0.050000X0.800000X-0.750000X0.800000X0.750000X-0.800000X0.750000X-0.800000X-0.750000X0*%
%ADD34RoundRect,0.205000X-0.212500X-0.155000X0.212500X-0.155000X0.212500X0.155000X-0.212500X0.155000X0*%
%ADD35RoundRect,0.050000X0.325000X0.825000X-0.325000X0.825000X-0.325000X-0.825000X0.325000X-0.825000X0*%
G04 APERTURE END LIST*
D10*
%TO.C,IC6*%
X186339800Y-90332600D03*
X186339800Y-89382600D03*
X186339800Y-88432600D03*
X183839800Y-88432600D03*
X183839800Y-90332600D03*
%TD*%
D11*
%TO.C,IC5*%
X186309000Y-84759800D03*
X186309000Y-83809800D03*
X186309000Y-82859800D03*
X183809000Y-82859800D03*
X183809000Y-84759800D03*
%TD*%
D12*
%TO.C,R2*%
X172618400Y-79705200D03*
X172618400Y-78055200D03*
%TD*%
D13*
%TO.C,C15*%
X154432000Y-78740000D03*
X154432000Y-77605000D03*
%TD*%
D14*
%TO.C,C1*%
X160782000Y-72491600D03*
X160782000Y-73626600D03*
%TD*%
D15*
%TO.C,D1*%
X189687200Y-72533400D03*
X189687200Y-74583400D03*
%TD*%
D16*
%TO.C,TP2*%
X156870400Y-86868000D03*
%TD*%
D17*
%TO.C,C12*%
X189636400Y-90318500D03*
X189636400Y-88243500D03*
%TD*%
D14*
%TO.C,C7*%
X164973000Y-125035500D03*
X164973000Y-126170500D03*
%TD*%
D18*
%TO.C,IC3*%
X185264800Y-90497400D03*
X184914800Y-90497400D03*
X185264800Y-90147400D03*
X184914800Y-90147400D03*
%TD*%
D19*
%TO.C,R3*%
X185775600Y-96775000D03*
X185775600Y-98425000D03*
%TD*%
D14*
%TO.C,C5*%
X169138600Y-125035500D03*
X169138600Y-126170500D03*
%TD*%
D20*
%TO.C,C16*%
X167132000Y-125044200D03*
X167132000Y-127119200D03*
%TD*%
D21*
%TO.C,J2*%
X183657000Y-74884200D03*
X183657000Y-77424200D03*
X181117000Y-74884200D03*
X181117000Y-77424200D03*
X178577000Y-74884200D03*
D22*
X178577000Y-77424200D03*
%TD*%
D23*
%TO.C,J3*%
X144758900Y-109380000D03*
X147298900Y-109380000D03*
X149838900Y-109380000D03*
X152378900Y-109380000D03*
X154918900Y-109380000D03*
X157458900Y-109380000D03*
X159998900Y-109380000D03*
X162538900Y-109380000D03*
X165078900Y-109380000D03*
X167618900Y-109380000D03*
X144758900Y-103980000D03*
X147298900Y-103980000D03*
X149838900Y-103980000D03*
X152378900Y-103980000D03*
X154918900Y-103980000D03*
X157458900Y-103980000D03*
X159998900Y-103980000D03*
X162538900Y-103980000D03*
X165078900Y-103980000D03*
X167618900Y-103980000D03*
D24*
X146028900Y-106680000D03*
X166348900Y-106680000D03*
%TD*%
D25*
%TO.C,RN2*%
X164191800Y-96750000D03*
X163391800Y-96750000D03*
X162591800Y-96750000D03*
X161791800Y-96750000D03*
X161791800Y-98450000D03*
X162591800Y-98450000D03*
X163391800Y-98450000D03*
X164191800Y-98450000D03*
%TD*%
D12*
%TO.C,R4*%
X156870400Y-78740000D03*
X156870400Y-77090000D03*
%TD*%
D25*
%TO.C,RN1*%
X181438400Y-96750000D03*
X180638400Y-96750000D03*
X179838400Y-96750000D03*
X179038400Y-96750000D03*
X179038400Y-98450000D03*
X179838400Y-98450000D03*
X180638400Y-98450000D03*
X181438400Y-98450000D03*
%TD*%
D16*
%TO.C,TP3*%
X176530000Y-84785200D03*
%TD*%
D15*
%TO.C,D2*%
X172618400Y-72533400D03*
X172618400Y-74583400D03*
%TD*%
D26*
%TO.C,IC2*%
X169640000Y-118380000D03*
X169640000Y-119380000D03*
X169640000Y-120380000D03*
X169640000Y-121380000D03*
X168640000Y-117380000D03*
X168640000Y-118380000D03*
X168640000Y-119380000D03*
X168640000Y-120380000D03*
X168640000Y-121380000D03*
X167640000Y-117380000D03*
X167640000Y-118380000D03*
X167640000Y-119380000D03*
X167640000Y-120380000D03*
X167640000Y-121380000D03*
X166640000Y-117380000D03*
X166640000Y-118380000D03*
X166640000Y-119380000D03*
X166640000Y-120380000D03*
X166640000Y-121380000D03*
X165640000Y-117380000D03*
X165640000Y-118380000D03*
X165640000Y-119380000D03*
X165640000Y-120380000D03*
X165640000Y-121380000D03*
%TD*%
D16*
%TO.C,TP5*%
X159664400Y-78740000D03*
%TD*%
D17*
%TO.C,C13*%
X180441600Y-84775000D03*
X180441600Y-82700000D03*
%TD*%
D16*
%TO.C,TP6*%
X198475600Y-97536000D03*
%TD*%
D17*
%TO.C,C11*%
X189661800Y-84775000D03*
X189661800Y-82700000D03*
%TD*%
D27*
%TO.C,C4*%
X160943100Y-88392000D03*
X159808100Y-88392000D03*
%TD*%
D16*
%TO.C,TP4*%
X176530000Y-90322400D03*
%TD*%
D24*
%TO.C,J4*%
X176888900Y-106680000D03*
X197208900Y-106680000D03*
D23*
X198478900Y-103980000D03*
X195938900Y-103980000D03*
X193398900Y-103980000D03*
X190858900Y-103980000D03*
X188318900Y-103980000D03*
X185778900Y-103980000D03*
X183238900Y-103980000D03*
X180698900Y-103980000D03*
X178158900Y-103980000D03*
X175618900Y-103980000D03*
X198478900Y-109380000D03*
X195938900Y-109380000D03*
X193398900Y-109380000D03*
X190858900Y-109380000D03*
X188318900Y-109380000D03*
X185778900Y-109380000D03*
X183238900Y-109380000D03*
X180698900Y-109380000D03*
X178158900Y-109380000D03*
X175618900Y-109380000D03*
%TD*%
D28*
%TO.C,J1*%
X196977500Y-85972400D03*
X196977500Y-81972400D03*
D29*
X196452500Y-85272400D03*
X196452500Y-84622400D03*
X196452500Y-83972400D03*
X196452500Y-83322400D03*
X196452500Y-82672400D03*
D30*
X199127500Y-80022400D03*
X199127500Y-85172400D03*
X199127500Y-82772400D03*
X199127500Y-87922400D03*
%TD*%
D31*
%TO.C,U1*%
X163900800Y-90642000D03*
X163900800Y-90142000D03*
X163900800Y-89642000D03*
X163900800Y-89142000D03*
X163900800Y-88642000D03*
X163900800Y-88142000D03*
X163900800Y-87642000D03*
X163900800Y-87142000D03*
X163900800Y-86642000D03*
X163900800Y-86142000D03*
X164400800Y-90642000D03*
X164400800Y-90142000D03*
X164400800Y-89642000D03*
X164400800Y-89142000D03*
X164400800Y-88642000D03*
X164400800Y-88142000D03*
X164400800Y-87642000D03*
X164400800Y-87142000D03*
X164400800Y-86642000D03*
X164400800Y-86142000D03*
X164900800Y-90642000D03*
X164900800Y-90142000D03*
X164900800Y-89642000D03*
X164900800Y-89142000D03*
X164900800Y-88642000D03*
X164900800Y-88142000D03*
X164900800Y-87642000D03*
X164900800Y-87142000D03*
X164900800Y-86642000D03*
X164900800Y-86142000D03*
X165400800Y-90642000D03*
X165400800Y-90142000D03*
X165400800Y-89642000D03*
X165400800Y-89142000D03*
X165400800Y-88642000D03*
X165400800Y-88142000D03*
X165400800Y-87642000D03*
X165400800Y-87142000D03*
X165400800Y-86642000D03*
X165400800Y-86142000D03*
X165900800Y-90642000D03*
X165900800Y-90142000D03*
X165900800Y-89642000D03*
X165900800Y-89142000D03*
X165900800Y-88642000D03*
X165900800Y-88142000D03*
X165900800Y-87642000D03*
X165900800Y-87142000D03*
X165900800Y-86642000D03*
X165900800Y-86142000D03*
X166400800Y-90642000D03*
X166400800Y-90142000D03*
X166400800Y-89642000D03*
X166400800Y-89142000D03*
X166400800Y-88642000D03*
X166400800Y-88142000D03*
X166400800Y-87642000D03*
X166400800Y-87142000D03*
X166400800Y-86642000D03*
X166400800Y-86142000D03*
%TD*%
D13*
%TO.C,C2*%
X169367200Y-85987700D03*
X169367200Y-84852700D03*
%TD*%
D25*
%TO.C,RN3*%
X156194100Y-96750000D03*
X155394100Y-96750000D03*
X154594100Y-96750000D03*
X153794100Y-96750000D03*
X153794100Y-98450000D03*
X154594100Y-98450000D03*
X155394100Y-98450000D03*
X156194100Y-98450000D03*
%TD*%
D32*
%TO.C,C17*%
X160727300Y-92405200D03*
X158652300Y-92405200D03*
%TD*%
D12*
%TO.C,R1*%
X189687200Y-79705200D03*
X189687200Y-78055200D03*
%TD*%
D17*
%TO.C,C14*%
X180441600Y-90318500D03*
X180441600Y-88243500D03*
%TD*%
D32*
%TO.C,C18*%
X160731200Y-83718400D03*
X158656200Y-83718400D03*
%TD*%
D14*
%TO.C,C8*%
X169367200Y-90297000D03*
X169367200Y-91432000D03*
%TD*%
D33*
%TO.C,Y1*%
X149352000Y-86834800D03*
X151892000Y-86834800D03*
X151892000Y-89034800D03*
X149352000Y-89034800D03*
%TD*%
D27*
%TO.C,C6*%
X159808100Y-86106000D03*
X160943100Y-86106000D03*
%TD*%
D34*
%TO.C,C3*%
X149402800Y-83312000D03*
X150537800Y-83312000D03*
%TD*%
D16*
%TO.C,TP1*%
X189636400Y-93243400D03*
%TD*%
D18*
%TO.C,IC4*%
X185214000Y-84914400D03*
X184864000Y-84914400D03*
X185214000Y-84564400D03*
X184864000Y-84564400D03*
%TD*%
D27*
%TO.C,C10*%
X159808100Y-90170000D03*
X160943100Y-90170000D03*
%TD*%
D35*
%TO.C,IC1*%
X163474400Y-79698400D03*
X164744400Y-79698400D03*
X166014400Y-79698400D03*
X167284400Y-79698400D03*
X167284400Y-72498400D03*
X166014400Y-72498400D03*
X164744400Y-72498400D03*
X163474400Y-72498400D03*
%TD*%
D34*
%TO.C,C9*%
X166505000Y-113893600D03*
X167640000Y-113893600D03*
%TD*%
M02*
