%TF.GenerationSoftware,KiCad,Pcbnew,(6.0.5)*%
%TF.CreationDate,2022-09-03T12:51:18+02:00*%
%TF.ProjectId,hyperram_asic,68797065-7272-4616-9d5f-617369632e6b,rev?*%
%TF.SameCoordinates,Original*%
%TF.FileFunction,Legend,Top*%
%TF.FilePolarity,Positive*%
%FSLAX46Y46*%
G04 Gerber Fmt 4.6, Leading zero omitted, Abs format (unit mm)*
G04 Created by KiCad (PCBNEW (6.0.5)) date 2022-09-03 12:51:18*
%MOMM*%
%LPD*%
G01*
G04 APERTURE LIST*
%ADD10C,0.150000*%
%ADD11C,0.120000*%
%ADD12C,0.200000*%
%ADD13C,0.100000*%
G04 APERTURE END LIST*
D10*
%TO.C,IC6*%
X182183209Y-92451180D02*
X182183209Y-91451180D01*
X183230828Y-92355942D02*
X183183209Y-92403561D01*
X183040352Y-92451180D01*
X182945114Y-92451180D01*
X182802257Y-92403561D01*
X182707019Y-92308323D01*
X182659400Y-92213085D01*
X182611780Y-92022609D01*
X182611780Y-91879752D01*
X182659400Y-91689276D01*
X182707019Y-91594038D01*
X182802257Y-91498800D01*
X182945114Y-91451180D01*
X183040352Y-91451180D01*
X183183209Y-91498800D01*
X183230828Y-91546419D01*
X184087971Y-91451180D02*
X183897495Y-91451180D01*
X183802257Y-91498800D01*
X183754638Y-91546419D01*
X183659400Y-91689276D01*
X183611780Y-91879752D01*
X183611780Y-92260704D01*
X183659400Y-92355942D01*
X183707019Y-92403561D01*
X183802257Y-92451180D01*
X183992733Y-92451180D01*
X184087971Y-92403561D01*
X184135590Y-92355942D01*
X184183209Y-92260704D01*
X184183209Y-92022609D01*
X184135590Y-91927371D01*
X184087971Y-91879752D01*
X183992733Y-91832133D01*
X183802257Y-91832133D01*
X183707019Y-91879752D01*
X183659400Y-91927371D01*
X183611780Y-92022609D01*
%TO.C,IC5*%
X184082809Y-81783180D02*
X184082809Y-80783180D01*
X185130428Y-81687942D02*
X185082809Y-81735561D01*
X184939952Y-81783180D01*
X184844714Y-81783180D01*
X184701857Y-81735561D01*
X184606619Y-81640323D01*
X184559000Y-81545085D01*
X184511380Y-81354609D01*
X184511380Y-81211752D01*
X184559000Y-81021276D01*
X184606619Y-80926038D01*
X184701857Y-80830800D01*
X184844714Y-80783180D01*
X184939952Y-80783180D01*
X185082809Y-80830800D01*
X185130428Y-80878419D01*
X186035190Y-80783180D02*
X185559000Y-80783180D01*
X185511380Y-81259371D01*
X185559000Y-81211752D01*
X185654238Y-81164133D01*
X185892333Y-81164133D01*
X185987571Y-81211752D01*
X186035190Y-81259371D01*
X186082809Y-81354609D01*
X186082809Y-81592704D01*
X186035190Y-81687942D01*
X185987571Y-81735561D01*
X185892333Y-81783180D01*
X185654238Y-81783180D01*
X185559000Y-81735561D01*
X185511380Y-81687942D01*
%TO.C,R2*%
X174382133Y-79344780D02*
X174048800Y-78868590D01*
X173810704Y-79344780D02*
X173810704Y-78344780D01*
X174191657Y-78344780D01*
X174286895Y-78392400D01*
X174334514Y-78440019D01*
X174382133Y-78535257D01*
X174382133Y-78678114D01*
X174334514Y-78773352D01*
X174286895Y-78820971D01*
X174191657Y-78868590D01*
X173810704Y-78868590D01*
X174763085Y-78440019D02*
X174810704Y-78392400D01*
X174905942Y-78344780D01*
X175144038Y-78344780D01*
X175239276Y-78392400D01*
X175286895Y-78440019D01*
X175334514Y-78535257D01*
X175334514Y-78630495D01*
X175286895Y-78773352D01*
X174715466Y-79344780D01*
X175334514Y-79344780D01*
%TO.C,C15*%
X151503142Y-78529642D02*
X151455523Y-78577261D01*
X151312666Y-78624880D01*
X151217428Y-78624880D01*
X151074571Y-78577261D01*
X150979333Y-78482023D01*
X150931714Y-78386785D01*
X150884095Y-78196309D01*
X150884095Y-78053452D01*
X150931714Y-77862976D01*
X150979333Y-77767738D01*
X151074571Y-77672500D01*
X151217428Y-77624880D01*
X151312666Y-77624880D01*
X151455523Y-77672500D01*
X151503142Y-77720119D01*
X152455523Y-78624880D02*
X151884095Y-78624880D01*
X152169809Y-78624880D02*
X152169809Y-77624880D01*
X152074571Y-77767738D01*
X151979333Y-77862976D01*
X151884095Y-77910595D01*
X153360285Y-77624880D02*
X152884095Y-77624880D01*
X152836476Y-78101071D01*
X152884095Y-78053452D01*
X152979333Y-78005833D01*
X153217428Y-78005833D01*
X153312666Y-78053452D01*
X153360285Y-78101071D01*
X153407904Y-78196309D01*
X153407904Y-78434404D01*
X153360285Y-78529642D01*
X153312666Y-78577261D01*
X153217428Y-78624880D01*
X152979333Y-78624880D01*
X152884095Y-78577261D01*
X152836476Y-78529642D01*
%TO.C,C1*%
X160615333Y-71451742D02*
X160567714Y-71499361D01*
X160424857Y-71546980D01*
X160329619Y-71546980D01*
X160186761Y-71499361D01*
X160091523Y-71404123D01*
X160043904Y-71308885D01*
X159996285Y-71118409D01*
X159996285Y-70975552D01*
X160043904Y-70785076D01*
X160091523Y-70689838D01*
X160186761Y-70594600D01*
X160329619Y-70546980D01*
X160424857Y-70546980D01*
X160567714Y-70594600D01*
X160615333Y-70642219D01*
X161567714Y-71546980D02*
X160996285Y-71546980D01*
X161282000Y-71546980D02*
X161282000Y-70546980D01*
X161186761Y-70689838D01*
X161091523Y-70785076D01*
X160996285Y-70832695D01*
%TO.C,D1*%
X191311304Y-72715380D02*
X191311304Y-71715380D01*
X191549400Y-71715380D01*
X191692257Y-71763000D01*
X191787495Y-71858238D01*
X191835114Y-71953476D01*
X191882733Y-72143952D01*
X191882733Y-72286809D01*
X191835114Y-72477285D01*
X191787495Y-72572523D01*
X191692257Y-72667761D01*
X191549400Y-72715380D01*
X191311304Y-72715380D01*
X192835114Y-72715380D02*
X192263685Y-72715380D01*
X192549400Y-72715380D02*
X192549400Y-71715380D01*
X192454161Y-71858238D01*
X192358923Y-71953476D01*
X192263685Y-72001095D01*
%TO.C,TP2*%
X154948095Y-84669380D02*
X155519523Y-84669380D01*
X155233809Y-85669380D02*
X155233809Y-84669380D01*
X155852857Y-85669380D02*
X155852857Y-84669380D01*
X156233809Y-84669380D01*
X156329047Y-84717000D01*
X156376666Y-84764619D01*
X156424285Y-84859857D01*
X156424285Y-85002714D01*
X156376666Y-85097952D01*
X156329047Y-85145571D01*
X156233809Y-85193190D01*
X155852857Y-85193190D01*
X156805238Y-84764619D02*
X156852857Y-84717000D01*
X156948095Y-84669380D01*
X157186190Y-84669380D01*
X157281428Y-84717000D01*
X157329047Y-84764619D01*
X157376666Y-84859857D01*
X157376666Y-84955095D01*
X157329047Y-85097952D01*
X156757619Y-85669380D01*
X157376666Y-85669380D01*
%TO.C,C12*%
X191685942Y-90781142D02*
X191638323Y-90828761D01*
X191495466Y-90876380D01*
X191400228Y-90876380D01*
X191257371Y-90828761D01*
X191162133Y-90733523D01*
X191114514Y-90638285D01*
X191066895Y-90447809D01*
X191066895Y-90304952D01*
X191114514Y-90114476D01*
X191162133Y-90019238D01*
X191257371Y-89924000D01*
X191400228Y-89876380D01*
X191495466Y-89876380D01*
X191638323Y-89924000D01*
X191685942Y-89971619D01*
X192638323Y-90876380D02*
X192066895Y-90876380D01*
X192352609Y-90876380D02*
X192352609Y-89876380D01*
X192257371Y-90019238D01*
X192162133Y-90114476D01*
X192066895Y-90162095D01*
X193019276Y-89971619D02*
X193066895Y-89924000D01*
X193162133Y-89876380D01*
X193400228Y-89876380D01*
X193495466Y-89924000D01*
X193543085Y-89971619D01*
X193590704Y-90066857D01*
X193590704Y-90162095D01*
X193543085Y-90304952D01*
X192971657Y-90876380D01*
X193590704Y-90876380D01*
%TO.C,C7*%
X162952133Y-125960142D02*
X162904514Y-126007761D01*
X162761657Y-126055380D01*
X162666419Y-126055380D01*
X162523561Y-126007761D01*
X162428323Y-125912523D01*
X162380704Y-125817285D01*
X162333085Y-125626809D01*
X162333085Y-125483952D01*
X162380704Y-125293476D01*
X162428323Y-125198238D01*
X162523561Y-125103000D01*
X162666419Y-125055380D01*
X162761657Y-125055380D01*
X162904514Y-125103000D01*
X162952133Y-125150619D01*
X163285466Y-125055380D02*
X163952133Y-125055380D01*
X163523561Y-126055380D01*
%TO.C,IC3*%
X184901009Y-92451180D02*
X184901009Y-91451180D01*
X185948628Y-92355942D02*
X185901009Y-92403561D01*
X185758152Y-92451180D01*
X185662914Y-92451180D01*
X185520057Y-92403561D01*
X185424819Y-92308323D01*
X185377200Y-92213085D01*
X185329580Y-92022609D01*
X185329580Y-91879752D01*
X185377200Y-91689276D01*
X185424819Y-91594038D01*
X185520057Y-91498800D01*
X185662914Y-91451180D01*
X185758152Y-91451180D01*
X185901009Y-91498800D01*
X185948628Y-91546419D01*
X186281961Y-91451180D02*
X186901009Y-91451180D01*
X186567676Y-91832133D01*
X186710533Y-91832133D01*
X186805771Y-91879752D01*
X186853390Y-91927371D01*
X186901009Y-92022609D01*
X186901009Y-92260704D01*
X186853390Y-92355942D01*
X186805771Y-92403561D01*
X186710533Y-92451180D01*
X186424819Y-92451180D01*
X186329580Y-92403561D01*
X186281961Y-92355942D01*
%TO.C,R3*%
X187564733Y-98039180D02*
X187231400Y-97562990D01*
X186993304Y-98039180D02*
X186993304Y-97039180D01*
X187374257Y-97039180D01*
X187469495Y-97086800D01*
X187517114Y-97134419D01*
X187564733Y-97229657D01*
X187564733Y-97372514D01*
X187517114Y-97467752D01*
X187469495Y-97515371D01*
X187374257Y-97562990D01*
X186993304Y-97562990D01*
X187898066Y-97039180D02*
X188517114Y-97039180D01*
X188183780Y-97420133D01*
X188326638Y-97420133D01*
X188421876Y-97467752D01*
X188469495Y-97515371D01*
X188517114Y-97610609D01*
X188517114Y-97848704D01*
X188469495Y-97943942D01*
X188421876Y-97991561D01*
X188326638Y-98039180D01*
X188040923Y-98039180D01*
X187945685Y-97991561D01*
X187898066Y-97943942D01*
%TO.C,C5*%
X170749933Y-125960142D02*
X170702314Y-126007761D01*
X170559457Y-126055380D01*
X170464219Y-126055380D01*
X170321361Y-126007761D01*
X170226123Y-125912523D01*
X170178504Y-125817285D01*
X170130885Y-125626809D01*
X170130885Y-125483952D01*
X170178504Y-125293476D01*
X170226123Y-125198238D01*
X170321361Y-125103000D01*
X170464219Y-125055380D01*
X170559457Y-125055380D01*
X170702314Y-125103000D01*
X170749933Y-125150619D01*
X171654695Y-125055380D02*
X171178504Y-125055380D01*
X171130885Y-125531571D01*
X171178504Y-125483952D01*
X171273742Y-125436333D01*
X171511838Y-125436333D01*
X171607076Y-125483952D01*
X171654695Y-125531571D01*
X171702314Y-125626809D01*
X171702314Y-125864904D01*
X171654695Y-125960142D01*
X171607076Y-126007761D01*
X171511838Y-126055380D01*
X171273742Y-126055380D01*
X171178504Y-126007761D01*
X171130885Y-125960142D01*
%TO.C,C16*%
X168597342Y-128677942D02*
X168549723Y-128725561D01*
X168406866Y-128773180D01*
X168311628Y-128773180D01*
X168168771Y-128725561D01*
X168073533Y-128630323D01*
X168025914Y-128535085D01*
X167978295Y-128344609D01*
X167978295Y-128201752D01*
X168025914Y-128011276D01*
X168073533Y-127916038D01*
X168168771Y-127820800D01*
X168311628Y-127773180D01*
X168406866Y-127773180D01*
X168549723Y-127820800D01*
X168597342Y-127868419D01*
X169549723Y-128773180D02*
X168978295Y-128773180D01*
X169264009Y-128773180D02*
X169264009Y-127773180D01*
X169168771Y-127916038D01*
X169073533Y-128011276D01*
X168978295Y-128058895D01*
X170406866Y-127773180D02*
X170216390Y-127773180D01*
X170121152Y-127820800D01*
X170073533Y-127868419D01*
X169978295Y-128011276D01*
X169930676Y-128201752D01*
X169930676Y-128582704D01*
X169978295Y-128677942D01*
X170025914Y-128725561D01*
X170121152Y-128773180D01*
X170311628Y-128773180D01*
X170406866Y-128725561D01*
X170454485Y-128677942D01*
X170502104Y-128582704D01*
X170502104Y-128344609D01*
X170454485Y-128249371D01*
X170406866Y-128201752D01*
X170311628Y-128154133D01*
X170121152Y-128154133D01*
X170025914Y-128201752D01*
X169978295Y-128249371D01*
X169930676Y-128344609D01*
%TO.C,J2*%
X183969066Y-71893180D02*
X183969066Y-72607466D01*
X183921447Y-72750323D01*
X183826209Y-72845561D01*
X183683352Y-72893180D01*
X183588114Y-72893180D01*
X184397638Y-71988419D02*
X184445257Y-71940800D01*
X184540495Y-71893180D01*
X184778590Y-71893180D01*
X184873828Y-71940800D01*
X184921447Y-71988419D01*
X184969066Y-72083657D01*
X184969066Y-72178895D01*
X184921447Y-72321752D01*
X184350019Y-72893180D01*
X184969066Y-72893180D01*
%TO.C,J3*%
X169313266Y-100315780D02*
X169313266Y-101030066D01*
X169265647Y-101172923D01*
X169170409Y-101268161D01*
X169027552Y-101315780D01*
X168932314Y-101315780D01*
X169694219Y-100315780D02*
X170313266Y-100315780D01*
X169979933Y-100696733D01*
X170122790Y-100696733D01*
X170218028Y-100744352D01*
X170265647Y-100791971D01*
X170313266Y-100887209D01*
X170313266Y-101125304D01*
X170265647Y-101220542D01*
X170218028Y-101268161D01*
X170122790Y-101315780D01*
X169837076Y-101315780D01*
X169741838Y-101268161D01*
X169694219Y-101220542D01*
%TO.C,RN2*%
X165857323Y-98052380D02*
X165523990Y-97576190D01*
X165285895Y-98052380D02*
X165285895Y-97052380D01*
X165666847Y-97052380D01*
X165762085Y-97100000D01*
X165809704Y-97147619D01*
X165857323Y-97242857D01*
X165857323Y-97385714D01*
X165809704Y-97480952D01*
X165762085Y-97528571D01*
X165666847Y-97576190D01*
X165285895Y-97576190D01*
X166285895Y-98052380D02*
X166285895Y-97052380D01*
X166857323Y-98052380D01*
X166857323Y-97052380D01*
X167285895Y-97147619D02*
X167333514Y-97100000D01*
X167428752Y-97052380D01*
X167666847Y-97052380D01*
X167762085Y-97100000D01*
X167809704Y-97147619D01*
X167857323Y-97242857D01*
X167857323Y-97338095D01*
X167809704Y-97480952D01*
X167238276Y-98052380D01*
X167857323Y-98052380D01*
%TO.C,R4*%
X156703733Y-80817980D02*
X156370400Y-80341790D01*
X156132304Y-80817980D02*
X156132304Y-79817980D01*
X156513257Y-79817980D01*
X156608495Y-79865600D01*
X156656114Y-79913219D01*
X156703733Y-80008457D01*
X156703733Y-80151314D01*
X156656114Y-80246552D01*
X156608495Y-80294171D01*
X156513257Y-80341790D01*
X156132304Y-80341790D01*
X157560876Y-80151314D02*
X157560876Y-80817980D01*
X157322780Y-79770361D02*
X157084685Y-80484647D01*
X157703733Y-80484647D01*
%TO.C,RN1*%
X175991923Y-98064580D02*
X175658590Y-97588390D01*
X175420495Y-98064580D02*
X175420495Y-97064580D01*
X175801447Y-97064580D01*
X175896685Y-97112200D01*
X175944304Y-97159819D01*
X175991923Y-97255057D01*
X175991923Y-97397914D01*
X175944304Y-97493152D01*
X175896685Y-97540771D01*
X175801447Y-97588390D01*
X175420495Y-97588390D01*
X176420495Y-98064580D02*
X176420495Y-97064580D01*
X176991923Y-98064580D01*
X176991923Y-97064580D01*
X177991923Y-98064580D02*
X177420495Y-98064580D01*
X177706209Y-98064580D02*
X177706209Y-97064580D01*
X177610971Y-97207438D01*
X177515733Y-97302676D01*
X177420495Y-97350295D01*
%TO.C,TP3*%
X172753495Y-84237580D02*
X173324923Y-84237580D01*
X173039209Y-85237580D02*
X173039209Y-84237580D01*
X173658257Y-85237580D02*
X173658257Y-84237580D01*
X174039209Y-84237580D01*
X174134447Y-84285200D01*
X174182066Y-84332819D01*
X174229685Y-84428057D01*
X174229685Y-84570914D01*
X174182066Y-84666152D01*
X174134447Y-84713771D01*
X174039209Y-84761390D01*
X173658257Y-84761390D01*
X174563019Y-84237580D02*
X175182066Y-84237580D01*
X174848733Y-84618533D01*
X174991590Y-84618533D01*
X175086828Y-84666152D01*
X175134447Y-84713771D01*
X175182066Y-84809009D01*
X175182066Y-85047104D01*
X175134447Y-85142342D01*
X175086828Y-85189961D01*
X174991590Y-85237580D01*
X174705876Y-85237580D01*
X174610638Y-85189961D01*
X174563019Y-85142342D01*
%TO.C,D2*%
X174217104Y-72715380D02*
X174217104Y-71715380D01*
X174455200Y-71715380D01*
X174598057Y-71763000D01*
X174693295Y-71858238D01*
X174740914Y-71953476D01*
X174788533Y-72143952D01*
X174788533Y-72286809D01*
X174740914Y-72477285D01*
X174693295Y-72572523D01*
X174598057Y-72667761D01*
X174455200Y-72715380D01*
X174217104Y-72715380D01*
X175169485Y-71810619D02*
X175217104Y-71763000D01*
X175312342Y-71715380D01*
X175550438Y-71715380D01*
X175645676Y-71763000D01*
X175693295Y-71810619D01*
X175740914Y-71905857D01*
X175740914Y-72001095D01*
X175693295Y-72143952D01*
X175121866Y-72715380D01*
X175740914Y-72715380D01*
%TO.C,IC2*%
X172353409Y-122423180D02*
X172353409Y-121423180D01*
X173401028Y-122327942D02*
X173353409Y-122375561D01*
X173210552Y-122423180D01*
X173115314Y-122423180D01*
X172972457Y-122375561D01*
X172877219Y-122280323D01*
X172829600Y-122185085D01*
X172781980Y-121994609D01*
X172781980Y-121851752D01*
X172829600Y-121661276D01*
X172877219Y-121566038D01*
X172972457Y-121470800D01*
X173115314Y-121423180D01*
X173210552Y-121423180D01*
X173353409Y-121470800D01*
X173401028Y-121518419D01*
X173781980Y-121518419D02*
X173829600Y-121470800D01*
X173924838Y-121423180D01*
X174162933Y-121423180D01*
X174258171Y-121470800D01*
X174305790Y-121518419D01*
X174353409Y-121613657D01*
X174353409Y-121708895D01*
X174305790Y-121851752D01*
X173734361Y-122423180D01*
X174353409Y-122423180D01*
%TO.C,TP5*%
X158402495Y-76592180D02*
X158973923Y-76592180D01*
X158688209Y-77592180D02*
X158688209Y-76592180D01*
X159307257Y-77592180D02*
X159307257Y-76592180D01*
X159688209Y-76592180D01*
X159783447Y-76639800D01*
X159831066Y-76687419D01*
X159878685Y-76782657D01*
X159878685Y-76925514D01*
X159831066Y-77020752D01*
X159783447Y-77068371D01*
X159688209Y-77115990D01*
X159307257Y-77115990D01*
X160783447Y-76592180D02*
X160307257Y-76592180D01*
X160259638Y-77068371D01*
X160307257Y-77020752D01*
X160402495Y-76973133D01*
X160640590Y-76973133D01*
X160735828Y-77020752D01*
X160783447Y-77068371D01*
X160831066Y-77163609D01*
X160831066Y-77401704D01*
X160783447Y-77496942D01*
X160735828Y-77544561D01*
X160640590Y-77592180D01*
X160402495Y-77592180D01*
X160307257Y-77544561D01*
X160259638Y-77496942D01*
%TO.C,C13*%
X177411142Y-81687942D02*
X177363523Y-81735561D01*
X177220666Y-81783180D01*
X177125428Y-81783180D01*
X176982571Y-81735561D01*
X176887333Y-81640323D01*
X176839714Y-81545085D01*
X176792095Y-81354609D01*
X176792095Y-81211752D01*
X176839714Y-81021276D01*
X176887333Y-80926038D01*
X176982571Y-80830800D01*
X177125428Y-80783180D01*
X177220666Y-80783180D01*
X177363523Y-80830800D01*
X177411142Y-80878419D01*
X178363523Y-81783180D02*
X177792095Y-81783180D01*
X178077809Y-81783180D02*
X178077809Y-80783180D01*
X177982571Y-80926038D01*
X177887333Y-81021276D01*
X177792095Y-81068895D01*
X178696857Y-80783180D02*
X179315904Y-80783180D01*
X178982571Y-81164133D01*
X179125428Y-81164133D01*
X179220666Y-81211752D01*
X179268285Y-81259371D01*
X179315904Y-81354609D01*
X179315904Y-81592704D01*
X179268285Y-81687942D01*
X179220666Y-81735561D01*
X179125428Y-81783180D01*
X178839714Y-81783180D01*
X178744476Y-81735561D01*
X178696857Y-81687942D01*
%TO.C,TP6*%
X194648295Y-96988380D02*
X195219723Y-96988380D01*
X194934009Y-97988380D02*
X194934009Y-96988380D01*
X195553057Y-97988380D02*
X195553057Y-96988380D01*
X195934009Y-96988380D01*
X196029247Y-97036000D01*
X196076866Y-97083619D01*
X196124485Y-97178857D01*
X196124485Y-97321714D01*
X196076866Y-97416952D01*
X196029247Y-97464571D01*
X195934009Y-97512190D01*
X195553057Y-97512190D01*
X196981628Y-96988380D02*
X196791152Y-96988380D01*
X196695914Y-97036000D01*
X196648295Y-97083619D01*
X196553057Y-97226476D01*
X196505438Y-97416952D01*
X196505438Y-97797904D01*
X196553057Y-97893142D01*
X196600676Y-97940761D01*
X196695914Y-97988380D01*
X196886390Y-97988380D01*
X196981628Y-97940761D01*
X197029247Y-97893142D01*
X197076866Y-97797904D01*
X197076866Y-97559809D01*
X197029247Y-97464571D01*
X196981628Y-97416952D01*
X196886390Y-97369333D01*
X196695914Y-97369333D01*
X196600676Y-97416952D01*
X196553057Y-97464571D01*
X196505438Y-97559809D01*
%TO.C,C11*%
X191685942Y-85243942D02*
X191638323Y-85291561D01*
X191495466Y-85339180D01*
X191400228Y-85339180D01*
X191257371Y-85291561D01*
X191162133Y-85196323D01*
X191114514Y-85101085D01*
X191066895Y-84910609D01*
X191066895Y-84767752D01*
X191114514Y-84577276D01*
X191162133Y-84482038D01*
X191257371Y-84386800D01*
X191400228Y-84339180D01*
X191495466Y-84339180D01*
X191638323Y-84386800D01*
X191685942Y-84434419D01*
X192638323Y-85339180D02*
X192066895Y-85339180D01*
X192352609Y-85339180D02*
X192352609Y-84339180D01*
X192257371Y-84482038D01*
X192162133Y-84577276D01*
X192066895Y-84624895D01*
X193590704Y-85339180D02*
X193019276Y-85339180D01*
X193304990Y-85339180D02*
X193304990Y-84339180D01*
X193209752Y-84482038D01*
X193114514Y-84577276D01*
X193019276Y-84624895D01*
%TO.C,C4*%
X156983133Y-89053942D02*
X156935514Y-89101561D01*
X156792657Y-89149180D01*
X156697419Y-89149180D01*
X156554561Y-89101561D01*
X156459323Y-89006323D01*
X156411704Y-88911085D01*
X156364085Y-88720609D01*
X156364085Y-88577752D01*
X156411704Y-88387276D01*
X156459323Y-88292038D01*
X156554561Y-88196800D01*
X156697419Y-88149180D01*
X156792657Y-88149180D01*
X156935514Y-88196800D01*
X156983133Y-88244419D01*
X157840276Y-88482514D02*
X157840276Y-89149180D01*
X157602180Y-88101561D02*
X157364085Y-88815847D01*
X157983133Y-88815847D01*
%TO.C,TP4*%
X172702695Y-89774780D02*
X173274123Y-89774780D01*
X172988409Y-90774780D02*
X172988409Y-89774780D01*
X173607457Y-90774780D02*
X173607457Y-89774780D01*
X173988409Y-89774780D01*
X174083647Y-89822400D01*
X174131266Y-89870019D01*
X174178885Y-89965257D01*
X174178885Y-90108114D01*
X174131266Y-90203352D01*
X174083647Y-90250971D01*
X173988409Y-90298590D01*
X173607457Y-90298590D01*
X175036028Y-90108114D02*
X175036028Y-90774780D01*
X174797933Y-89727161D02*
X174559838Y-90441447D01*
X175178885Y-90441447D01*
%TO.C,J4*%
X173301066Y-100315780D02*
X173301066Y-101030066D01*
X173253447Y-101172923D01*
X173158209Y-101268161D01*
X173015352Y-101315780D01*
X172920114Y-101315780D01*
X174205828Y-100649114D02*
X174205828Y-101315780D01*
X173967733Y-100268161D02*
X173729638Y-100982447D01*
X174348685Y-100982447D01*
%TO.C,J1*%
X194281466Y-86726780D02*
X194281466Y-87441066D01*
X194233847Y-87583923D01*
X194138609Y-87679161D01*
X193995752Y-87726780D01*
X193900514Y-87726780D01*
X195281466Y-87726780D02*
X194710038Y-87726780D01*
X194995752Y-87726780D02*
X194995752Y-86726780D01*
X194900514Y-86869638D01*
X194805276Y-86964876D01*
X194710038Y-87012495D01*
%TO.C,U1*%
X164388895Y-91984580D02*
X164388895Y-92794104D01*
X164436514Y-92889342D01*
X164484133Y-92936961D01*
X164579371Y-92984580D01*
X164769847Y-92984580D01*
X164865085Y-92936961D01*
X164912704Y-92889342D01*
X164960323Y-92794104D01*
X164960323Y-91984580D01*
X165960323Y-92984580D02*
X165388895Y-92984580D01*
X165674609Y-92984580D02*
X165674609Y-91984580D01*
X165579371Y-92127438D01*
X165484133Y-92222676D01*
X165388895Y-92270295D01*
%TO.C,C2*%
X169200533Y-83669142D02*
X169152914Y-83716761D01*
X169010057Y-83764380D01*
X168914819Y-83764380D01*
X168771961Y-83716761D01*
X168676723Y-83621523D01*
X168629104Y-83526285D01*
X168581485Y-83335809D01*
X168581485Y-83192952D01*
X168629104Y-83002476D01*
X168676723Y-82907238D01*
X168771961Y-82812000D01*
X168914819Y-82764380D01*
X169010057Y-82764380D01*
X169152914Y-82812000D01*
X169200533Y-82859619D01*
X169581485Y-82859619D02*
X169629104Y-82812000D01*
X169724342Y-82764380D01*
X169962438Y-82764380D01*
X170057676Y-82812000D01*
X170105295Y-82859619D01*
X170152914Y-82954857D01*
X170152914Y-83050095D01*
X170105295Y-83192952D01*
X169533866Y-83764380D01*
X170152914Y-83764380D01*
%TO.C,RN3*%
X150693523Y-98064580D02*
X150360190Y-97588390D01*
X150122095Y-98064580D02*
X150122095Y-97064580D01*
X150503047Y-97064580D01*
X150598285Y-97112200D01*
X150645904Y-97159819D01*
X150693523Y-97255057D01*
X150693523Y-97397914D01*
X150645904Y-97493152D01*
X150598285Y-97540771D01*
X150503047Y-97588390D01*
X150122095Y-97588390D01*
X151122095Y-98064580D02*
X151122095Y-97064580D01*
X151693523Y-98064580D01*
X151693523Y-97064580D01*
X152074476Y-97064580D02*
X152693523Y-97064580D01*
X152360190Y-97445533D01*
X152503047Y-97445533D01*
X152598285Y-97493152D01*
X152645904Y-97540771D01*
X152693523Y-97636009D01*
X152693523Y-97874104D01*
X152645904Y-97969342D01*
X152598285Y-98016961D01*
X152503047Y-98064580D01*
X152217333Y-98064580D01*
X152122095Y-98016961D01*
X152074476Y-97969342D01*
%TO.C,C17*%
X159046942Y-94641942D02*
X158999323Y-94689561D01*
X158856466Y-94737180D01*
X158761228Y-94737180D01*
X158618371Y-94689561D01*
X158523133Y-94594323D01*
X158475514Y-94499085D01*
X158427895Y-94308609D01*
X158427895Y-94165752D01*
X158475514Y-93975276D01*
X158523133Y-93880038D01*
X158618371Y-93784800D01*
X158761228Y-93737180D01*
X158856466Y-93737180D01*
X158999323Y-93784800D01*
X159046942Y-93832419D01*
X159999323Y-94737180D02*
X159427895Y-94737180D01*
X159713609Y-94737180D02*
X159713609Y-93737180D01*
X159618371Y-93880038D01*
X159523133Y-93975276D01*
X159427895Y-94022895D01*
X160332657Y-93737180D02*
X160999323Y-93737180D01*
X160570752Y-94737180D01*
%TO.C,R1*%
X191476333Y-79332580D02*
X191143000Y-78856390D01*
X190904904Y-79332580D02*
X190904904Y-78332580D01*
X191285857Y-78332580D01*
X191381095Y-78380200D01*
X191428714Y-78427819D01*
X191476333Y-78523057D01*
X191476333Y-78665914D01*
X191428714Y-78761152D01*
X191381095Y-78808771D01*
X191285857Y-78856390D01*
X190904904Y-78856390D01*
X192428714Y-79332580D02*
X191857285Y-79332580D01*
X192143000Y-79332580D02*
X192143000Y-78332580D01*
X192047761Y-78475438D01*
X191952523Y-78570676D01*
X191857285Y-78618295D01*
%TO.C,C14*%
X177411142Y-87199742D02*
X177363523Y-87247361D01*
X177220666Y-87294980D01*
X177125428Y-87294980D01*
X176982571Y-87247361D01*
X176887333Y-87152123D01*
X176839714Y-87056885D01*
X176792095Y-86866409D01*
X176792095Y-86723552D01*
X176839714Y-86533076D01*
X176887333Y-86437838D01*
X176982571Y-86342600D01*
X177125428Y-86294980D01*
X177220666Y-86294980D01*
X177363523Y-86342600D01*
X177411142Y-86390219D01*
X178363523Y-87294980D02*
X177792095Y-87294980D01*
X178077809Y-87294980D02*
X178077809Y-86294980D01*
X177982571Y-86437838D01*
X177887333Y-86533076D01*
X177792095Y-86580695D01*
X179220666Y-86628314D02*
X179220666Y-87294980D01*
X178982571Y-86247361D02*
X178744476Y-86961647D01*
X179363523Y-86961647D01*
%TO.C,C18*%
X155541742Y-82678542D02*
X155494123Y-82726161D01*
X155351266Y-82773780D01*
X155256028Y-82773780D01*
X155113171Y-82726161D01*
X155017933Y-82630923D01*
X154970314Y-82535685D01*
X154922695Y-82345209D01*
X154922695Y-82202352D01*
X154970314Y-82011876D01*
X155017933Y-81916638D01*
X155113171Y-81821400D01*
X155256028Y-81773780D01*
X155351266Y-81773780D01*
X155494123Y-81821400D01*
X155541742Y-81869019D01*
X156494123Y-82773780D02*
X155922695Y-82773780D01*
X156208409Y-82773780D02*
X156208409Y-81773780D01*
X156113171Y-81916638D01*
X156017933Y-82011876D01*
X155922695Y-82059495D01*
X157065552Y-82202352D02*
X156970314Y-82154733D01*
X156922695Y-82107114D01*
X156875076Y-82011876D01*
X156875076Y-81964257D01*
X156922695Y-81869019D01*
X156970314Y-81821400D01*
X157065552Y-81773780D01*
X157256028Y-81773780D01*
X157351266Y-81821400D01*
X157398885Y-81869019D01*
X157446504Y-81964257D01*
X157446504Y-82011876D01*
X157398885Y-82107114D01*
X157351266Y-82154733D01*
X157256028Y-82202352D01*
X157065552Y-82202352D01*
X156970314Y-82249971D01*
X156922695Y-82297590D01*
X156875076Y-82392828D01*
X156875076Y-82583304D01*
X156922695Y-82678542D01*
X156970314Y-82726161D01*
X157065552Y-82773780D01*
X157256028Y-82773780D01*
X157351266Y-82726161D01*
X157398885Y-82678542D01*
X157446504Y-82583304D01*
X157446504Y-82392828D01*
X157398885Y-82297590D01*
X157351266Y-82249971D01*
X157256028Y-82202352D01*
%TO.C,C8*%
X169200533Y-93448142D02*
X169152914Y-93495761D01*
X169010057Y-93543380D01*
X168914819Y-93543380D01*
X168771961Y-93495761D01*
X168676723Y-93400523D01*
X168629104Y-93305285D01*
X168581485Y-93114809D01*
X168581485Y-92971952D01*
X168629104Y-92781476D01*
X168676723Y-92686238D01*
X168771961Y-92591000D01*
X168914819Y-92543380D01*
X169010057Y-92543380D01*
X169152914Y-92591000D01*
X169200533Y-92638619D01*
X169771961Y-92971952D02*
X169676723Y-92924333D01*
X169629104Y-92876714D01*
X169581485Y-92781476D01*
X169581485Y-92733857D01*
X169629104Y-92638619D01*
X169676723Y-92591000D01*
X169771961Y-92543380D01*
X169962438Y-92543380D01*
X170057676Y-92591000D01*
X170105295Y-92638619D01*
X170152914Y-92733857D01*
X170152914Y-92781476D01*
X170105295Y-92876714D01*
X170057676Y-92924333D01*
X169962438Y-92971952D01*
X169771961Y-92971952D01*
X169676723Y-93019571D01*
X169629104Y-93067190D01*
X169581485Y-93162428D01*
X169581485Y-93352904D01*
X169629104Y-93448142D01*
X169676723Y-93495761D01*
X169771961Y-93543380D01*
X169962438Y-93543380D01*
X170057676Y-93495761D01*
X170105295Y-93448142D01*
X170152914Y-93352904D01*
X170152914Y-93162428D01*
X170105295Y-93067190D01*
X170057676Y-93019571D01*
X169962438Y-92971952D01*
%TO.C,Y1*%
X146107209Y-89028590D02*
X146107209Y-89504780D01*
X145773876Y-88504780D02*
X146107209Y-89028590D01*
X146440542Y-88504780D01*
X147297685Y-89504780D02*
X146726257Y-89504780D01*
X147011971Y-89504780D02*
X147011971Y-88504780D01*
X146916733Y-88647638D01*
X146821495Y-88742876D01*
X146726257Y-88790495D01*
%TO.C,C3*%
X147280333Y-83669142D02*
X147232714Y-83716761D01*
X147089857Y-83764380D01*
X146994619Y-83764380D01*
X146851761Y-83716761D01*
X146756523Y-83621523D01*
X146708904Y-83526285D01*
X146661285Y-83335809D01*
X146661285Y-83192952D01*
X146708904Y-83002476D01*
X146756523Y-82907238D01*
X146851761Y-82812000D01*
X146994619Y-82764380D01*
X147089857Y-82764380D01*
X147232714Y-82812000D01*
X147280333Y-82859619D01*
X147613666Y-82764380D02*
X148232714Y-82764380D01*
X147899380Y-83145333D01*
X148042238Y-83145333D01*
X148137476Y-83192952D01*
X148185095Y-83240571D01*
X148232714Y-83335809D01*
X148232714Y-83573904D01*
X148185095Y-83669142D01*
X148137476Y-83716761D01*
X148042238Y-83764380D01*
X147756523Y-83764380D01*
X147661285Y-83716761D01*
X147613666Y-83669142D01*
%TO.C,TP1*%
X191016095Y-92721180D02*
X191587523Y-92721180D01*
X191301809Y-93721180D02*
X191301809Y-92721180D01*
X191920857Y-93721180D02*
X191920857Y-92721180D01*
X192301809Y-92721180D01*
X192397047Y-92768800D01*
X192444666Y-92816419D01*
X192492285Y-92911657D01*
X192492285Y-93054514D01*
X192444666Y-93149752D01*
X192397047Y-93197371D01*
X192301809Y-93244990D01*
X191920857Y-93244990D01*
X193444666Y-93721180D02*
X192873238Y-93721180D01*
X193158952Y-93721180D02*
X193158952Y-92721180D01*
X193063714Y-92864038D01*
X192968476Y-92959276D01*
X192873238Y-93006895D01*
%TO.C,IC4*%
X184901009Y-86863180D02*
X184901009Y-85863180D01*
X185948628Y-86767942D02*
X185901009Y-86815561D01*
X185758152Y-86863180D01*
X185662914Y-86863180D01*
X185520057Y-86815561D01*
X185424819Y-86720323D01*
X185377200Y-86625085D01*
X185329580Y-86434609D01*
X185329580Y-86291752D01*
X185377200Y-86101276D01*
X185424819Y-86006038D01*
X185520057Y-85910800D01*
X185662914Y-85863180D01*
X185758152Y-85863180D01*
X185901009Y-85910800D01*
X185948628Y-85958419D01*
X186805771Y-86196514D02*
X186805771Y-86863180D01*
X186567676Y-85815561D02*
X186329580Y-86529847D01*
X186948628Y-86529847D01*
%TO.C,C10*%
X156100542Y-90527142D02*
X156052923Y-90574761D01*
X155910066Y-90622380D01*
X155814828Y-90622380D01*
X155671971Y-90574761D01*
X155576733Y-90479523D01*
X155529114Y-90384285D01*
X155481495Y-90193809D01*
X155481495Y-90050952D01*
X155529114Y-89860476D01*
X155576733Y-89765238D01*
X155671971Y-89670000D01*
X155814828Y-89622380D01*
X155910066Y-89622380D01*
X156052923Y-89670000D01*
X156100542Y-89717619D01*
X157052923Y-90622380D02*
X156481495Y-90622380D01*
X156767209Y-90622380D02*
X156767209Y-89622380D01*
X156671971Y-89765238D01*
X156576733Y-89860476D01*
X156481495Y-89908095D01*
X157671971Y-89622380D02*
X157767209Y-89622380D01*
X157862447Y-89670000D01*
X157910066Y-89717619D01*
X157957685Y-89812857D01*
X158005304Y-90003333D01*
X158005304Y-90241428D01*
X157957685Y-90431904D01*
X157910066Y-90527142D01*
X157862447Y-90574761D01*
X157767209Y-90622380D01*
X157671971Y-90622380D01*
X157576733Y-90574761D01*
X157529114Y-90527142D01*
X157481495Y-90431904D01*
X157433876Y-90241428D01*
X157433876Y-90003333D01*
X157481495Y-89812857D01*
X157529114Y-89717619D01*
X157576733Y-89670000D01*
X157671971Y-89622380D01*
%TO.C,IC1*%
X168746609Y-76550780D02*
X168746609Y-75550780D01*
X169794228Y-76455542D02*
X169746609Y-76503161D01*
X169603752Y-76550780D01*
X169508514Y-76550780D01*
X169365657Y-76503161D01*
X169270419Y-76407923D01*
X169222800Y-76312685D01*
X169175180Y-76122209D01*
X169175180Y-75979352D01*
X169222800Y-75788876D01*
X169270419Y-75693638D01*
X169365657Y-75598400D01*
X169508514Y-75550780D01*
X169603752Y-75550780D01*
X169746609Y-75598400D01*
X169794228Y-75646019D01*
X170746609Y-76550780D02*
X170175180Y-76550780D01*
X170460895Y-76550780D02*
X170460895Y-75550780D01*
X170365657Y-75693638D01*
X170270419Y-75788876D01*
X170175180Y-75836495D01*
%TO.C,C9*%
X169352933Y-114250742D02*
X169305314Y-114298361D01*
X169162457Y-114345980D01*
X169067219Y-114345980D01*
X168924361Y-114298361D01*
X168829123Y-114203123D01*
X168781504Y-114107885D01*
X168733885Y-113917409D01*
X168733885Y-113774552D01*
X168781504Y-113584076D01*
X168829123Y-113488838D01*
X168924361Y-113393600D01*
X169067219Y-113345980D01*
X169162457Y-113345980D01*
X169305314Y-113393600D01*
X169352933Y-113441219D01*
X169829123Y-114345980D02*
X170019600Y-114345980D01*
X170114838Y-114298361D01*
X170162457Y-114250742D01*
X170257695Y-114107885D01*
X170305314Y-113917409D01*
X170305314Y-113536457D01*
X170257695Y-113441219D01*
X170210076Y-113393600D01*
X170114838Y-113345980D01*
X169924361Y-113345980D01*
X169829123Y-113393600D01*
X169781504Y-113441219D01*
X169733885Y-113536457D01*
X169733885Y-113774552D01*
X169781504Y-113869790D01*
X169829123Y-113917409D01*
X169924361Y-113965028D01*
X170114838Y-113965028D01*
X170210076Y-113917409D01*
X170257695Y-113869790D01*
X170305314Y-113774552D01*
D11*
%TO.C,R2*%
X172095900Y-79117458D02*
X172095900Y-78642942D01*
X173140900Y-79117458D02*
X173140900Y-78642942D01*
%TO.C,C15*%
X154072000Y-78288335D02*
X154072000Y-78056665D01*
X154792000Y-78288335D02*
X154792000Y-78056665D01*
%TO.C,C1*%
X160422000Y-72943265D02*
X160422000Y-73174935D01*
X161142000Y-72943265D02*
X161142000Y-73174935D01*
%TO.C,D1*%
X190647200Y-71698400D02*
X188727200Y-71698400D01*
X190647200Y-74558400D02*
X190647200Y-71698400D01*
X188727200Y-71698400D02*
X188727200Y-74558400D01*
%TO.C,TP2*%
X157570400Y-86868000D02*
G75*
G03*
X157570400Y-86868000I-700000J0D01*
G01*
%TO.C,C12*%
X190371400Y-89542252D02*
X190371400Y-89019748D01*
X188901400Y-89542252D02*
X188901400Y-89019748D01*
%TO.C,C7*%
X164613000Y-125487165D02*
X164613000Y-125718835D01*
X165333000Y-125487165D02*
X165333000Y-125718835D01*
D12*
%TO.C,IC3*%
X185718800Y-89693400D02*
X185718800Y-90497400D01*
X184460800Y-89693400D02*
X185718800Y-89693400D01*
X185718800Y-90497400D02*
X185264800Y-90951400D01*
X184460800Y-90951400D02*
X184460800Y-89693400D01*
X185264800Y-90951400D02*
X184460800Y-90951400D01*
X185818800Y-90951400D02*
G75*
G03*
X185818800Y-90951400I-100000J0D01*
G01*
D11*
%TO.C,R3*%
X185253100Y-97362742D02*
X185253100Y-97837258D01*
X186298100Y-97362742D02*
X186298100Y-97837258D01*
%TO.C,C5*%
X168778600Y-125487165D02*
X168778600Y-125718835D01*
X169498600Y-125487165D02*
X169498600Y-125718835D01*
%TO.C,C16*%
X167867000Y-125820448D02*
X167867000Y-126342952D01*
X166397000Y-125820448D02*
X166397000Y-126342952D01*
%TO.C,J2*%
X179847000Y-76154200D02*
X177247000Y-76154200D01*
X179847000Y-78754200D02*
X184987000Y-78754200D01*
X178577000Y-78754200D02*
X177247000Y-78754200D01*
X177247000Y-78754200D02*
X177247000Y-77424200D01*
X179847000Y-78754200D02*
X179847000Y-76154200D01*
X177247000Y-73554200D02*
X184987000Y-73554200D01*
X177247000Y-76154200D02*
X177247000Y-73554200D01*
X184987000Y-78754200D02*
X184987000Y-73554200D01*
D13*
%TO.C,J3*%
X143488900Y-109180000D02*
X143488900Y-104180000D01*
X169118900Y-103980000D02*
X170118900Y-103480000D01*
X168888900Y-104180000D02*
X168888900Y-109180000D01*
X170118900Y-103480000D02*
X170118900Y-104480000D01*
X170118900Y-104480000D02*
X169118900Y-103980000D01*
%TO.C,RN2*%
X164191800Y-95900000D02*
X164191800Y-95900000D01*
X164191800Y-95800000D02*
X164191800Y-95800000D01*
X164191800Y-95900000D02*
G75*
G03*
X164191800Y-95800000I0J50000D01*
G01*
X164191800Y-95800000D02*
G75*
G03*
X164191800Y-95900000I0J-50000D01*
G01*
D11*
%TO.C,R4*%
X156347900Y-78152258D02*
X156347900Y-77677742D01*
X157392900Y-78152258D02*
X157392900Y-77677742D01*
D13*
%TO.C,RN1*%
X181438400Y-95800000D02*
X181438400Y-95800000D01*
X181438400Y-95900000D02*
X181438400Y-95900000D01*
X181438400Y-95800000D02*
G75*
G03*
X181438400Y-95900000I0J-50000D01*
G01*
X181438400Y-95900000D02*
G75*
G03*
X181438400Y-95800000I0J50000D01*
G01*
D11*
%TO.C,TP3*%
X177230000Y-84785200D02*
G75*
G03*
X177230000Y-84785200I-700000J0D01*
G01*
%TO.C,D2*%
X171658400Y-71698400D02*
X171658400Y-74558400D01*
X173578400Y-74558400D02*
X173578400Y-71698400D01*
X173578400Y-71698400D02*
X171658400Y-71698400D01*
D12*
%TO.C,IC2*%
X169640000Y-116380000D02*
X171640000Y-118380000D01*
X171640000Y-122380000D02*
X163640000Y-122380000D01*
X163640000Y-116380000D02*
X169640000Y-116380000D01*
X171640000Y-118380000D02*
X171640000Y-122380000D01*
X163640000Y-122380000D02*
X163640000Y-116380000D01*
X171740000Y-116380000D02*
G75*
G03*
X171740000Y-116380000I-100000J0D01*
G01*
D11*
%TO.C,TP5*%
X160364400Y-78740000D02*
G75*
G03*
X160364400Y-78740000I-700000J0D01*
G01*
%TO.C,C13*%
X179706600Y-83998752D02*
X179706600Y-83476248D01*
X181176600Y-83998752D02*
X181176600Y-83476248D01*
%TO.C,TP6*%
X199175600Y-97536000D02*
G75*
G03*
X199175600Y-97536000I-700000J0D01*
G01*
%TO.C,C11*%
X188926800Y-83998752D02*
X188926800Y-83476248D01*
X190396800Y-83998752D02*
X190396800Y-83476248D01*
%TO.C,C4*%
X160491435Y-88032000D02*
X160259765Y-88032000D01*
X160491435Y-88752000D02*
X160259765Y-88752000D01*
%TO.C,TP4*%
X177230000Y-90322400D02*
G75*
G03*
X177230000Y-90322400I-700000J0D01*
G01*
D13*
%TO.C,J4*%
X200978900Y-103480000D02*
X200978900Y-104480000D01*
X174348900Y-109180000D02*
X174348900Y-104180000D01*
X200978900Y-104480000D02*
X199978900Y-103980000D01*
X199978900Y-103980000D02*
X200978900Y-103480000D01*
X199748900Y-104180000D02*
X199748900Y-109180000D01*
%TO.C,J1*%
X195092500Y-85272400D02*
X195092500Y-85272400D01*
D12*
X200592500Y-87872400D02*
X201907500Y-87872400D01*
X201907500Y-87872400D02*
X201907500Y-80072400D01*
D13*
X195192500Y-85272400D02*
X195192500Y-85272400D01*
D12*
X196277500Y-87872400D02*
X196277500Y-85972400D01*
X196277500Y-81972400D02*
X196277500Y-80072400D01*
X197592500Y-87872400D02*
X196277500Y-87872400D01*
X196277500Y-80072400D02*
X197592500Y-80072400D01*
X201907500Y-80072400D02*
X200592500Y-80072400D01*
D13*
X195192500Y-85272400D02*
G75*
G03*
X195092500Y-85272400I-50000J0D01*
G01*
X195092500Y-85272400D02*
G75*
G03*
X195192500Y-85272400I50000J0D01*
G01*
D11*
%TO.C,U1*%
X163400800Y-85642000D02*
X163400800Y-90792000D01*
X163150800Y-91392000D02*
X163250800Y-91392000D01*
X166900800Y-91142000D02*
X166900800Y-85642000D01*
X163150800Y-91292000D02*
X163150800Y-91392000D01*
X166900800Y-85642000D02*
X163400800Y-85642000D01*
X163250800Y-91392000D02*
X163250800Y-91292000D01*
X163750800Y-91142000D02*
X166900800Y-91142000D01*
X163250800Y-91292000D02*
X163150800Y-91292000D01*
%TO.C,C2*%
X169727200Y-85536035D02*
X169727200Y-85304365D01*
X169007200Y-85536035D02*
X169007200Y-85304365D01*
D13*
%TO.C,RN3*%
X156194100Y-95800000D02*
X156194100Y-95800000D01*
X156194100Y-95900000D02*
X156194100Y-95900000D01*
X156194100Y-95800000D02*
G75*
G03*
X156194100Y-95900000I0J-50000D01*
G01*
X156194100Y-95900000D02*
G75*
G03*
X156194100Y-95800000I0J50000D01*
G01*
D11*
%TO.C,C17*%
X159951052Y-93140200D02*
X159428548Y-93140200D01*
X159951052Y-91670200D02*
X159428548Y-91670200D01*
%TO.C,R1*%
X190209700Y-79117458D02*
X190209700Y-78642942D01*
X189164700Y-79117458D02*
X189164700Y-78642942D01*
%TO.C,C14*%
X179706600Y-89542252D02*
X179706600Y-89019748D01*
X181176600Y-89542252D02*
X181176600Y-89019748D01*
%TO.C,C18*%
X159954952Y-84453400D02*
X159432448Y-84453400D01*
X159954952Y-82983400D02*
X159432448Y-82983400D01*
%TO.C,C8*%
X169007200Y-90748665D02*
X169007200Y-90980335D01*
X169727200Y-90748665D02*
X169727200Y-90980335D01*
D13*
%TO.C,Y1*%
X149422000Y-90234800D02*
G75*
G03*
X149322000Y-90234800I-50000J0D01*
G01*
X149322000Y-90234800D02*
G75*
G03*
X149422000Y-90234800I50000J0D01*
G01*
D12*
X153122000Y-86334800D02*
X153122000Y-89534800D01*
X148122000Y-86334800D02*
X148122000Y-89534800D01*
D13*
X149322000Y-90234800D02*
X149322000Y-90234800D01*
X149422000Y-90234800D02*
X149422000Y-90234800D01*
D11*
%TO.C,C6*%
X160491435Y-85746000D02*
X160259765Y-85746000D01*
X160491435Y-86466000D02*
X160259765Y-86466000D01*
%TO.C,C3*%
X149854465Y-83672000D02*
X150086135Y-83672000D01*
X149854465Y-82952000D02*
X150086135Y-82952000D01*
%TO.C,TP1*%
X190336400Y-93243400D02*
G75*
G03*
X190336400Y-93243400I-700000J0D01*
G01*
D12*
%TO.C,IC4*%
X185214000Y-85368400D02*
X184410000Y-85368400D01*
X184410000Y-84110400D02*
X185668000Y-84110400D01*
X184410000Y-85368400D02*
X184410000Y-84110400D01*
X185668000Y-84914400D02*
X185214000Y-85368400D01*
X185668000Y-84110400D02*
X185668000Y-84914400D01*
X185768000Y-85368400D02*
G75*
G03*
X185768000Y-85368400I-100000J0D01*
G01*
D11*
%TO.C,C10*%
X160491435Y-89810000D02*
X160259765Y-89810000D01*
X160491435Y-90530000D02*
X160259765Y-90530000D01*
D12*
%TO.C,IC1*%
X162799400Y-80523400D02*
X162799400Y-78873400D01*
X168019400Y-78523400D02*
X162739400Y-78523400D01*
X162739400Y-73673400D02*
X168019400Y-73673400D01*
X162739400Y-78523400D02*
X162739400Y-73673400D01*
X168019400Y-73673400D02*
X168019400Y-78523400D01*
D11*
%TO.C,C9*%
X166956665Y-113533600D02*
X167188335Y-113533600D01*
X166956665Y-114253600D02*
X167188335Y-114253600D01*
%TD*%
M02*
