M48
; DRILL file {KiCad (6.0.5)} date Sat Sep  3 12:53:12 2022
; FORMAT={-:-/ absolute / inch / decimal}
; #@! TF.CreationDate,2022-09-03T12:53:12+02:00
; #@! TF.GenerationSoftware,Kicad,Pcbnew,(6.0.5)
; #@! TF.FileFunction,MixedPlating,1,4
FMAT,2
INCH
; #@! TA.AperFunction,Plated,PTH,ViaDrill
T1C0.0079
; #@! TA.AperFunction,Plated,PTH,ViaDrill
T2C0.0118
; #@! TA.AperFunction,Plated,PTH,ViaDrill
T3C0.0157
; #@! TA.AperFunction,Plated,PTH,ComponentDrill
T4C0.0394
; #@! TA.AperFunction,Plated,PTH,ViaDrill
T5C0.1260
; #@! TA.AperFunction,NonPlated,NPTH,ComponentDrill
T6C0.0217
; #@! TA.AperFunction,NonPlated,NPTH,ComponentDrill
T7C0.0701
%
G90
G05
T1
X6.006Y-4.56
X6.136Y-4.59
X6.236Y-4.59
X6.33Y-4.59
X6.41Y-4.59
X6.431Y-3.52
X6.45Y-4.63
X6.49Y-4.59
X6.502Y-3.48
X6.581Y-4.72
T2
X5.882Y-3.243
X5.927Y-3.243
X5.927Y-3.317
X6.08Y-3.0
X6.176Y-2.994
X6.252Y-3.39
X6.252Y-3.48
X6.291Y-3.449
X6.292Y-3.354
X6.292Y-3.515
X6.293Y-2.854
X6.293Y-2.899
X6.336Y-3.354
X6.336Y-3.449
X6.336Y-3.511
X6.367Y-2.899
X6.539Y-4.818
X6.555Y-4.447
X6.599Y-4.447
X6.599Y-4.521
X6.6Y-3.464
X6.6Y-4.582
X6.631Y-3.34
X6.631Y-3.6
X6.705Y-3.34
X6.705Y-3.385
X6.705Y-3.555
X6.705Y-3.6
X6.715Y-4.674
X6.796Y-2.79
X7.468Y-2.79
T3
X5.6992Y-3.9962
X5.6992Y-4.4038
X5.7992Y-3.9962
X5.8992Y-3.9962
X5.98Y-3.562
X5.9992Y-3.9962
X6.039Y-3.505
X6.0992Y-3.9962
X6.196Y-3.296
X6.196Y-3.638
X6.199Y-3.996
X6.246Y-3.24
X6.246Y-3.582
X6.299Y-3.996
X6.328Y-3.24
X6.328Y-3.586
X6.378Y-3.638
X6.379Y-3.296
X6.399Y-3.996
X6.499Y-3.996
X6.525Y-5.005
X6.53Y-4.923
X6.586Y-3.073
X6.586Y-3.198
X6.599Y-3.996
X6.599Y-4.404
X6.628Y-4.923
X6.635Y-5.005
X6.914Y-3.996
X6.9141Y-4.4039
X7.014Y-3.996
X7.048Y-3.256
X7.048Y-3.338
X7.048Y-3.474
X7.048Y-3.556
X7.103Y-3.606
X7.104Y-3.206
X7.104Y-3.387
X7.104Y-3.425
X7.114Y-3.996
X7.1596Y-3.5564
X7.16Y-3.256
X7.16Y-3.337
X7.183Y-3.482
X7.214Y-3.996
X7.237Y-3.424
X7.284Y-3.299
X7.287Y-3.519
X7.3141Y-3.9961
X7.386Y-3.3
X7.391Y-3.519
X7.414Y-3.996
X7.466Y-3.424
X7.467Y-3.206
X7.514Y-3.996
X7.521Y-3.474
X7.522Y-3.256
X7.6141Y-3.9961
X7.683Y-3.21
X7.683Y-3.244
X7.714Y-3.996
X7.717Y-3.21
X7.814Y-3.996
X7.8141Y-4.4039
T4
X7.0306Y-2.9482
X7.0306Y-3.0482
X7.1306Y-2.9482
X7.1306Y-3.0482
X7.2306Y-2.9482
X7.2306Y-3.0482
T5
X5.7972Y-2.9252
X5.7972Y-4.8937
X7.7657Y-2.9252
X7.7657Y-4.8937
T6
X7.755Y-3.2273
X7.755Y-3.3847
T7
X5.7492Y-4.2
X6.5492Y-4.2
X6.9641Y-4.2
X7.7641Y-4.2
T0
M30
