%TF.GenerationSoftware,KiCad,Pcbnew,(6.0.5)*%
%TF.CreationDate,2022-09-03T12:51:18+02:00*%
%TF.ProjectId,hyperram_asic,68797065-7272-4616-9d5f-617369632e6b,rev?*%
%TF.SameCoordinates,Original*%
%TF.FileFunction,Copper,L4,Bot*%
%TF.FilePolarity,Positive*%
%FSLAX46Y46*%
G04 Gerber Fmt 4.6, Leading zero omitted, Abs format (unit mm)*
G04 Created by KiCad (PCBNEW (6.0.5)) date 2022-09-03 12:51:18*
%MOMM*%
%LPD*%
G01*
G04 APERTURE LIST*
%TA.AperFunction,ComponentPad*%
%ADD10O,1.700000X1.700000*%
%TD*%
%TA.AperFunction,ComponentPad*%
%ADD11R,1.700000X1.700000*%
%TD*%
%TA.AperFunction,ViaPad*%
%ADD12C,0.700000*%
%TD*%
%TA.AperFunction,ViaPad*%
%ADD13C,5.000000*%
%TD*%
%TA.AperFunction,ViaPad*%
%ADD14C,0.600000*%
%TD*%
%TA.AperFunction,ViaPad*%
%ADD15C,0.450000*%
%TD*%
%TA.AperFunction,Conductor*%
%ADD16C,0.200000*%
%TD*%
G04 APERTURE END LIST*
D10*
%TO.P,J2,6,Pin_6*%
%TO.N,+5V*%
X183657000Y-74884200D03*
%TO.P,J2,5,Pin_5*%
%TO.N,/mgmt_spi_do*%
X183657000Y-77424200D03*
%TO.P,J2,4,Pin_4*%
%TO.N,GND*%
X181117000Y-74884200D03*
%TO.P,J2,3,Pin_3*%
%TO.N,/mgmt_spi_clk*%
X181117000Y-77424200D03*
%TO.P,J2,2,Pin_2*%
%TO.N,/mgmt_spi_di*%
X178577000Y-74884200D03*
D11*
%TO.P,J2,1,Pin_1*%
%TO.N,/mgmt_spi_cs*%
X178577000Y-77424200D03*
%TD*%
D12*
%TO.N,GND*%
X144758900Y-101502700D03*
%TO.N,+3V3*%
X181864000Y-84759800D03*
%TO.N,+1V8*%
X181853800Y-90332600D03*
D13*
%TO.N,GND*%
X197250000Y-74300000D03*
X147250000Y-124300000D03*
X147250000Y-74300000D03*
X197250000Y-124300000D03*
D12*
%TO.N,+3V3*%
X179019200Y-84785200D03*
D14*
X149402800Y-82372200D03*
D12*
X165862000Y-125044200D03*
D14*
X160934400Y-87604600D03*
X170307000Y-85979000D03*
D12*
X162026600Y-83718400D03*
D14*
X156870400Y-76047600D03*
D12*
X168351200Y-125044200D03*
X160731200Y-82296000D03*
D14*
X166497000Y-112953800D03*
X160934400Y-89179400D03*
X159842200Y-72491600D03*
D12*
X180441600Y-86029800D03*
D14*
%TO.N,GND*%
X159816800Y-89281000D03*
X170307000Y-91440000D03*
D12*
X188315600Y-101498400D03*
X158648400Y-82296000D03*
X187604400Y-83820000D03*
D14*
X167614600Y-112953800D03*
X172618400Y-70866000D03*
D12*
X153390600Y-89027000D03*
X189636400Y-86969600D03*
X195148200Y-82397600D03*
X180441600Y-81432400D03*
X167284400Y-78054200D03*
X187731400Y-89382600D03*
D15*
X163347400Y-89408000D03*
D12*
X179019200Y-82702400D03*
X167284400Y-81229200D03*
X165735000Y-127127000D03*
X185778900Y-101501700D03*
X180695600Y-101498400D03*
D14*
X167640000Y-87985600D03*
D12*
X154918900Y-101502700D03*
X179019200Y-88239600D03*
X195935600Y-101498400D03*
D14*
X158800800Y-86106000D03*
D12*
X144758900Y-111857300D03*
D14*
X154432000Y-76200000D03*
D12*
X180441600Y-86995000D03*
D14*
X159791400Y-87604600D03*
D12*
X175618900Y-111858300D03*
X175615600Y-101498400D03*
D15*
X165150800Y-88392000D03*
D12*
X151892000Y-90474800D03*
X195148200Y-81534000D03*
X191058800Y-82702400D03*
X185089800Y-89382600D03*
X198475600Y-101498400D03*
D14*
X159816800Y-85191600D03*
X159842200Y-73634600D03*
D12*
X196011800Y-81534000D03*
X183235600Y-101498400D03*
X189661800Y-81432400D03*
X191033400Y-88239600D03*
X157378400Y-83718400D03*
X147298900Y-101502700D03*
D14*
X168427400Y-84836000D03*
D12*
X162534600Y-101498400D03*
X159994600Y-101498400D03*
X168529000Y-127127000D03*
X149838900Y-101502700D03*
D14*
X167640000Y-116382800D03*
X189687200Y-70866000D03*
X166090600Y-122377200D03*
X161721800Y-73634600D03*
D12*
X183819800Y-86969600D03*
X185013600Y-83794600D03*
D14*
X170307000Y-84836000D03*
D12*
X167614600Y-111861600D03*
X167614600Y-101498400D03*
D14*
X158800800Y-88392000D03*
D12*
X158648400Y-90982800D03*
X198478900Y-111858300D03*
D14*
X168427400Y-91440000D03*
D12*
X178155600Y-101498400D03*
D14*
X150545800Y-84251800D03*
D12*
X152378900Y-101502700D03*
X190855600Y-101498400D03*
X182448200Y-88442800D03*
X157454600Y-101498400D03*
X181864000Y-82702400D03*
D14*
X170561000Y-118719600D03*
D12*
X193398900Y-101501700D03*
D14*
X167614600Y-114833400D03*
D12*
X157378400Y-92405200D03*
D14*
X150545800Y-82372200D03*
D12*
X165074600Y-101498400D03*
%TO.N,+1V8*%
X162001200Y-92405200D03*
D14*
X160934400Y-85191600D03*
X170307000Y-90297000D03*
D12*
X180416200Y-91592400D03*
X179019200Y-90322400D03*
X160731200Y-91084400D03*
D15*
%TO.N,/hr_dq2*%
X167157400Y-119888000D03*
X162814000Y-116586000D03*
%TO.N,/hr_dq7*%
X152552400Y-115824000D03*
X164846000Y-116586000D03*
%TO.N,/hr_dq6*%
X155854400Y-116586000D03*
X163830000Y-117602000D03*
%TO.N,/hr_dq5*%
X160782000Y-116586000D03*
X158394400Y-116586000D03*
%TD*%
D16*
%TO.N,/hr_dq2*%
X167157400Y-119888000D02*
X163855400Y-116586000D01*
X162814000Y-116586000D02*
X163855400Y-116586000D01*
%TO.N,/hr_dq7*%
X164084000Y-115824000D02*
X152552400Y-115824000D01*
X164846000Y-116586000D02*
X164084000Y-115824000D01*
%TO.N,/hr_dq6*%
X156616400Y-117348000D02*
X163576000Y-117348000D01*
X163830000Y-117602000D02*
X163576000Y-117348000D01*
X155854400Y-116586000D02*
X156616400Y-117348000D01*
%TO.N,/hr_dq5*%
X158394400Y-116586000D02*
X160782000Y-116586000D01*
%TD*%
%TA.AperFunction,Conductor*%
%TO.N,+1V8*%
G36*
X167074121Y-84602002D02*
G01*
X167120614Y-84655658D01*
X167132000Y-84708000D01*
X167132000Y-87630000D01*
X167137319Y-87630000D01*
X167145449Y-87657688D01*
X167145449Y-87728684D01*
X167140962Y-87741404D01*
X167102987Y-87833084D01*
X167099772Y-87840846D01*
X167098695Y-87849030D01*
X167098694Y-87849032D01*
X167086406Y-87942373D01*
X167080715Y-87985600D01*
X167081793Y-87993788D01*
X167098318Y-88119308D01*
X167099772Y-88130354D01*
X167106076Y-88145573D01*
X167151832Y-88256036D01*
X167155645Y-88265242D01*
X167244526Y-88381074D01*
X167251076Y-88386100D01*
X167251079Y-88386103D01*
X167353804Y-88464927D01*
X167360357Y-88469955D01*
X167495246Y-88525828D01*
X167503434Y-88526906D01*
X167567623Y-88535356D01*
X167640000Y-88544885D01*
X167648188Y-88543807D01*
X167776566Y-88526906D01*
X167784754Y-88525828D01*
X167919643Y-88469955D01*
X167926196Y-88464927D01*
X168028921Y-88386103D01*
X168028924Y-88386100D01*
X168035474Y-88381074D01*
X168124355Y-88265242D01*
X168128169Y-88256036D01*
X168173924Y-88145573D01*
X168180228Y-88130354D01*
X168181683Y-88119308D01*
X168198207Y-87993788D01*
X168199285Y-87985600D01*
X168193594Y-87942373D01*
X168181306Y-87849032D01*
X168181305Y-87849030D01*
X168180228Y-87840846D01*
X168177013Y-87833084D01*
X168165057Y-87804220D01*
X168157467Y-87733630D01*
X168189245Y-87670143D01*
X168250303Y-87633914D01*
X168281465Y-87630000D01*
X178469505Y-87630000D01*
X178537626Y-87650002D01*
X178584119Y-87703658D01*
X178594223Y-87773932D01*
X178569467Y-87832704D01*
X178506689Y-87914518D01*
X178491170Y-87934742D01*
X178488010Y-87942372D01*
X178488009Y-87942373D01*
X178433419Y-88074166D01*
X178433418Y-88074170D01*
X178430260Y-88081794D01*
X178409484Y-88239600D01*
X178430260Y-88397406D01*
X178433418Y-88405030D01*
X178433419Y-88405034D01*
X178488009Y-88536827D01*
X178491170Y-88544458D01*
X178496197Y-88551009D01*
X178496198Y-88551011D01*
X178549224Y-88620115D01*
X178588066Y-88670734D01*
X178594616Y-88675760D01*
X178646333Y-88715444D01*
X178714342Y-88767630D01*
X178721972Y-88770790D01*
X178721973Y-88770791D01*
X178853766Y-88825381D01*
X178853770Y-88825382D01*
X178861394Y-88828540D01*
X179019200Y-88849316D01*
X179177006Y-88828540D01*
X179184630Y-88825382D01*
X179184634Y-88825381D01*
X179316427Y-88770791D01*
X179316428Y-88770790D01*
X179324058Y-88767630D01*
X179392068Y-88715444D01*
X179443784Y-88675760D01*
X179450334Y-88670734D01*
X179489176Y-88620115D01*
X179542202Y-88551011D01*
X179542203Y-88551009D01*
X179547230Y-88544458D01*
X179550391Y-88536827D01*
X179604981Y-88405034D01*
X179604982Y-88405030D01*
X179608140Y-88397406D01*
X179628916Y-88239600D01*
X179608140Y-88081794D01*
X179604982Y-88074170D01*
X179604981Y-88074166D01*
X179550391Y-87942373D01*
X179550390Y-87942372D01*
X179547230Y-87934742D01*
X179531712Y-87914518D01*
X179468933Y-87832704D01*
X179443332Y-87766484D01*
X179457597Y-87696935D01*
X179507198Y-87646139D01*
X179568895Y-87630000D01*
X182197395Y-87630000D01*
X182265516Y-87650002D01*
X182312009Y-87703658D01*
X182322113Y-87773932D01*
X182292619Y-87838512D01*
X182245614Y-87872408D01*
X182143342Y-87914770D01*
X182136791Y-87919797D01*
X182136789Y-87919798D01*
X182040710Y-87993523D01*
X182017066Y-88011666D01*
X182012040Y-88018216D01*
X181925495Y-88131003D01*
X181920170Y-88137942D01*
X181917010Y-88145572D01*
X181917009Y-88145573D01*
X181862419Y-88277366D01*
X181862418Y-88277370D01*
X181859260Y-88284994D01*
X181838484Y-88442800D01*
X181859260Y-88600606D01*
X181862418Y-88608230D01*
X181862419Y-88608234D01*
X181909424Y-88721715D01*
X181920170Y-88747658D01*
X181925197Y-88754209D01*
X181925198Y-88754211D01*
X181982234Y-88828540D01*
X182017066Y-88873934D01*
X182023616Y-88878960D01*
X182133567Y-88963329D01*
X182143342Y-88970830D01*
X182150972Y-88973990D01*
X182150973Y-88973991D01*
X182282766Y-89028581D01*
X182282770Y-89028582D01*
X182290394Y-89031740D01*
X182448200Y-89052516D01*
X182456388Y-89051438D01*
X182456391Y-89051438D01*
X182483555Y-89047862D01*
X182553703Y-89058802D01*
X182606802Y-89105930D01*
X182626000Y-89172784D01*
X182626000Y-92990400D01*
X182605998Y-93058521D01*
X182552342Y-93105014D01*
X182500000Y-93116400D01*
X160273000Y-93116400D01*
X160204879Y-93096398D01*
X160158386Y-93042742D01*
X160147000Y-92990400D01*
X160147000Y-91440000D01*
X167868115Y-91440000D01*
X167887172Y-91584754D01*
X167943045Y-91719642D01*
X168031926Y-91835474D01*
X168038476Y-91840500D01*
X168038479Y-91840503D01*
X168141204Y-91919327D01*
X168147757Y-91924355D01*
X168282646Y-91980228D01*
X168427400Y-91999285D01*
X168435588Y-91998207D01*
X168563966Y-91981306D01*
X168572154Y-91980228D01*
X168707043Y-91924355D01*
X168713596Y-91919327D01*
X168816321Y-91840503D01*
X168816324Y-91840500D01*
X168822874Y-91835474D01*
X168911755Y-91719642D01*
X168967628Y-91584754D01*
X168986685Y-91440000D01*
X169747715Y-91440000D01*
X169766772Y-91584754D01*
X169822645Y-91719642D01*
X169911526Y-91835474D01*
X169918076Y-91840500D01*
X169918079Y-91840503D01*
X170020804Y-91919327D01*
X170027357Y-91924355D01*
X170162246Y-91980228D01*
X170307000Y-91999285D01*
X170315188Y-91998207D01*
X170443566Y-91981306D01*
X170451754Y-91980228D01*
X170586643Y-91924355D01*
X170593196Y-91919327D01*
X170695921Y-91840503D01*
X170695924Y-91840500D01*
X170702474Y-91835474D01*
X170791355Y-91719642D01*
X170847228Y-91584754D01*
X170866285Y-91440000D01*
X170847228Y-91295246D01*
X170791355Y-91160358D01*
X170702474Y-91044526D01*
X170695924Y-91039500D01*
X170695921Y-91039497D01*
X170593196Y-90960673D01*
X170593194Y-90960672D01*
X170586643Y-90955645D01*
X170451754Y-90899772D01*
X170307000Y-90880715D01*
X170298812Y-90881793D01*
X170170432Y-90898694D01*
X170170430Y-90898695D01*
X170162246Y-90899772D01*
X170114430Y-90919578D01*
X170034986Y-90952485D01*
X170034984Y-90952486D01*
X170027358Y-90955645D01*
X169911526Y-91044526D01*
X169822645Y-91160358D01*
X169766772Y-91295246D01*
X169747715Y-91440000D01*
X168986685Y-91440000D01*
X168967628Y-91295246D01*
X168911755Y-91160358D01*
X168822874Y-91044526D01*
X168816324Y-91039500D01*
X168816321Y-91039497D01*
X168713596Y-90960673D01*
X168713594Y-90960672D01*
X168707043Y-90955645D01*
X168572154Y-90899772D01*
X168427400Y-90880715D01*
X168419212Y-90881793D01*
X168290832Y-90898694D01*
X168290830Y-90898695D01*
X168282646Y-90899772D01*
X168234830Y-90919578D01*
X168155386Y-90952485D01*
X168155384Y-90952486D01*
X168147758Y-90955645D01*
X168031926Y-91044526D01*
X167943045Y-91160358D01*
X167887172Y-91295246D01*
X167868115Y-91440000D01*
X160147000Y-91440000D01*
X160147000Y-90679390D01*
X160167002Y-90611269D01*
X160183905Y-90590295D01*
X160375600Y-90398600D01*
X160375600Y-89705052D01*
X160395602Y-89636931D01*
X160449258Y-89590438D01*
X160519532Y-89580334D01*
X160578304Y-89605090D01*
X160619800Y-89636931D01*
X160654757Y-89663755D01*
X160789646Y-89719628D01*
X160934400Y-89738685D01*
X160942588Y-89737607D01*
X161070966Y-89720706D01*
X161079154Y-89719628D01*
X161214043Y-89663755D01*
X161224447Y-89655772D01*
X161323321Y-89579903D01*
X161323324Y-89579900D01*
X161329874Y-89574874D01*
X161338708Y-89563362D01*
X161413728Y-89465593D01*
X161418755Y-89459042D01*
X161432544Y-89425754D01*
X161442349Y-89402082D01*
X162863005Y-89402082D01*
X162864169Y-89410984D01*
X162864169Y-89410987D01*
X162865954Y-89424633D01*
X162880814Y-89538273D01*
X162936132Y-89663992D01*
X162941910Y-89670865D01*
X162941910Y-89670866D01*
X162998918Y-89738685D01*
X163024511Y-89769132D01*
X163138847Y-89845240D01*
X163269949Y-89886199D01*
X163407276Y-89888716D01*
X163416509Y-89886199D01*
X163531127Y-89854951D01*
X163539791Y-89852589D01*
X163656839Y-89780721D01*
X163714998Y-89716468D01*
X163742984Y-89685550D01*
X163742985Y-89685549D01*
X163749012Y-89678890D01*
X163799408Y-89574874D01*
X163804985Y-89563362D01*
X163804985Y-89563361D01*
X163808899Y-89555283D01*
X163831686Y-89419836D01*
X163831831Y-89408000D01*
X163830984Y-89402082D01*
X163813632Y-89280923D01*
X163813632Y-89280921D01*
X163812359Y-89272036D01*
X163755510Y-89147003D01*
X163665853Y-89042951D01*
X163550596Y-88968244D01*
X163419003Y-88928890D01*
X163410027Y-88928835D01*
X163410026Y-88928835D01*
X163352480Y-88928484D01*
X163281655Y-88928051D01*
X163149592Y-88965795D01*
X163142005Y-88970582D01*
X163142003Y-88970583D01*
X163136602Y-88973991D01*
X163033431Y-89039087D01*
X162942509Y-89142036D01*
X162938695Y-89150159D01*
X162938694Y-89150161D01*
X162921122Y-89187588D01*
X162884136Y-89266366D01*
X162876413Y-89315968D01*
X162864386Y-89393209D01*
X162864386Y-89393213D01*
X162863005Y-89402082D01*
X161442349Y-89402082D01*
X161471469Y-89331780D01*
X161474628Y-89324154D01*
X161480320Y-89280923D01*
X161492607Y-89187588D01*
X161493685Y-89179400D01*
X161476099Y-89045816D01*
X161475706Y-89042832D01*
X161475705Y-89042830D01*
X161474628Y-89034646D01*
X161431888Y-88931463D01*
X161421915Y-88907386D01*
X161421914Y-88907384D01*
X161418755Y-88899758D01*
X161329874Y-88783926D01*
X161323324Y-88778900D01*
X161323321Y-88778897D01*
X161220596Y-88700073D01*
X161220594Y-88700072D01*
X161214043Y-88695045D01*
X161079154Y-88639172D01*
X160934400Y-88620115D01*
X160926212Y-88621193D01*
X160797832Y-88638094D01*
X160797830Y-88638095D01*
X160789646Y-88639172D01*
X160768353Y-88647992D01*
X160662386Y-88691885D01*
X160662384Y-88691886D01*
X160654758Y-88695045D01*
X160620001Y-88721715D01*
X160578304Y-88753710D01*
X160512083Y-88779310D01*
X160442535Y-88765045D01*
X160391739Y-88715444D01*
X160375600Y-88653747D01*
X160375600Y-88386082D01*
X164666405Y-88386082D01*
X164667569Y-88394984D01*
X164667569Y-88394987D01*
X164668883Y-88405034D01*
X164684214Y-88522273D01*
X164739532Y-88647992D01*
X164745310Y-88654865D01*
X164745310Y-88654866D01*
X164783310Y-88700073D01*
X164827911Y-88753132D01*
X164942247Y-88829240D01*
X165038430Y-88859290D01*
X165064339Y-88867384D01*
X165073349Y-88870199D01*
X165210676Y-88872716D01*
X165219909Y-88870199D01*
X165334527Y-88838951D01*
X165343191Y-88836589D01*
X165460239Y-88764721D01*
X165499166Y-88721715D01*
X165546384Y-88669550D01*
X165546385Y-88669549D01*
X165552412Y-88662890D01*
X165562373Y-88642332D01*
X165608385Y-88547362D01*
X165608385Y-88547361D01*
X165612299Y-88539283D01*
X165635086Y-88403836D01*
X165635231Y-88392000D01*
X165634387Y-88386103D01*
X165617032Y-88264923D01*
X165617032Y-88264921D01*
X165615759Y-88256036D01*
X165558910Y-88131003D01*
X165469253Y-88026951D01*
X165353996Y-87952244D01*
X165222403Y-87912890D01*
X165213427Y-87912835D01*
X165213426Y-87912835D01*
X165155880Y-87912484D01*
X165085055Y-87912051D01*
X164952992Y-87949795D01*
X164945405Y-87954582D01*
X164945403Y-87954583D01*
X164896244Y-87985600D01*
X164836831Y-88023087D01*
X164830888Y-88029816D01*
X164775867Y-88092115D01*
X164745909Y-88126036D01*
X164742095Y-88134159D01*
X164742094Y-88134161D01*
X164737086Y-88144828D01*
X164687536Y-88250366D01*
X164680870Y-88293178D01*
X164667786Y-88377209D01*
X164667786Y-88377213D01*
X164666405Y-88386082D01*
X160375600Y-88386082D01*
X160375600Y-88130252D01*
X160395602Y-88062131D01*
X160449258Y-88015638D01*
X160519532Y-88005534D01*
X160578304Y-88030290D01*
X160645425Y-88081794D01*
X160654757Y-88088955D01*
X160763894Y-88134161D01*
X160773114Y-88137980D01*
X160789646Y-88144828D01*
X160934400Y-88163885D01*
X160942588Y-88162807D01*
X161070966Y-88145906D01*
X161079154Y-88144828D01*
X161095687Y-88137980D01*
X161104906Y-88134161D01*
X161214043Y-88088955D01*
X161220596Y-88083927D01*
X161323321Y-88005103D01*
X161323324Y-88005100D01*
X161329874Y-88000074D01*
X161364781Y-87954583D01*
X161395523Y-87914518D01*
X161418755Y-87884242D01*
X161423657Y-87872409D01*
X161471469Y-87756980D01*
X161474628Y-87749354D01*
X161479603Y-87711570D01*
X161492607Y-87612788D01*
X161493685Y-87604600D01*
X161474628Y-87459846D01*
X161418755Y-87324958D01*
X161329874Y-87209126D01*
X161323324Y-87204100D01*
X161323321Y-87204097D01*
X161220596Y-87125273D01*
X161220594Y-87125272D01*
X161214043Y-87120245D01*
X161079154Y-87064372D01*
X160934400Y-87045315D01*
X160926212Y-87046393D01*
X160797832Y-87063294D01*
X160797830Y-87063295D01*
X160789646Y-87064372D01*
X160754459Y-87078947D01*
X160662386Y-87117085D01*
X160662384Y-87117086D01*
X160654758Y-87120245D01*
X160612324Y-87152806D01*
X160578304Y-87178910D01*
X160512083Y-87204510D01*
X160442535Y-87190245D01*
X160391739Y-87140644D01*
X160375600Y-87078947D01*
X160375600Y-85195284D01*
X160376085Y-85191600D01*
X160375600Y-85187916D01*
X160375600Y-84708000D01*
X160395602Y-84639879D01*
X160449258Y-84593386D01*
X160501600Y-84582000D01*
X167006000Y-84582000D01*
X167074121Y-84602002D01*
G37*
%TD.AperFunction*%
%TD*%
M02*
