%TF.GenerationSoftware,KiCad,Pcbnew,(6.0.5)*%
%TF.CreationDate,2022-09-03T12:51:18+02:00*%
%TF.ProjectId,hyperram_asic,68797065-7272-4616-9d5f-617369632e6b,rev?*%
%TF.SameCoordinates,Original*%
%TF.FileFunction,Copper,L1,Top*%
%TF.FilePolarity,Positive*%
%FSLAX46Y46*%
G04 Gerber Fmt 4.6, Leading zero omitted, Abs format (unit mm)*
G04 Created by KiCad (PCBNEW (6.0.5)) date 2022-09-03 12:51:18*
%MOMM*%
%LPD*%
G01*
G04 APERTURE LIST*
G04 Aperture macros list*
%AMRoundRect*
0 Rectangle with rounded corners*
0 $1 Rounding radius*
0 $2 $3 $4 $5 $6 $7 $8 $9 X,Y pos of 4 corners*
0 Add a 4 corners polygon primitive as box body*
4,1,4,$2,$3,$4,$5,$6,$7,$8,$9,$2,$3,0*
0 Add four circle primitives for the rounded corners*
1,1,$1+$1,$2,$3*
1,1,$1+$1,$4,$5*
1,1,$1+$1,$6,$7*
1,1,$1+$1,$8,$9*
0 Add four rect primitives between the rounded corners*
20,1,$1+$1,$2,$3,$4,$5,0*
20,1,$1+$1,$4,$5,$6,$7,0*
20,1,$1+$1,$6,$7,$8,$9,0*
20,1,$1+$1,$8,$9,$2,$3,0*%
G04 Aperture macros list end*
%TA.AperFunction,SMDPad,CuDef*%
%ADD10R,1.400000X0.600000*%
%TD*%
%TA.AperFunction,SMDPad,CuDef*%
%ADD11R,1.200000X0.600000*%
%TD*%
%TA.AperFunction,SMDPad,CuDef*%
%ADD12RoundRect,0.200000X0.275000X-0.200000X0.275000X0.200000X-0.275000X0.200000X-0.275000X-0.200000X0*%
%TD*%
%TA.AperFunction,SMDPad,CuDef*%
%ADD13RoundRect,0.155000X0.155000X-0.212500X0.155000X0.212500X-0.155000X0.212500X-0.155000X-0.212500X0*%
%TD*%
%TA.AperFunction,SMDPad,CuDef*%
%ADD14RoundRect,0.155000X-0.155000X0.212500X-0.155000X-0.212500X0.155000X-0.212500X0.155000X0.212500X0*%
%TD*%
%TA.AperFunction,SMDPad,CuDef*%
%ADD15RoundRect,0.250000X-0.450000X0.325000X-0.450000X-0.325000X0.450000X-0.325000X0.450000X0.325000X0*%
%TD*%
%TA.AperFunction,SMDPad,CuDef*%
%ADD16C,1.000000*%
%TD*%
%TA.AperFunction,SMDPad,CuDef*%
%ADD17RoundRect,0.250000X0.475000X-0.337500X0.475000X0.337500X-0.475000X0.337500X-0.475000X-0.337500X0*%
%TD*%
%TA.AperFunction,SMDPad,CuDef*%
%ADD18C,0.208000*%
%TD*%
%TA.AperFunction,SMDPad,CuDef*%
%ADD19RoundRect,0.200000X-0.275000X0.200000X-0.275000X-0.200000X0.275000X-0.200000X0.275000X0.200000X0*%
%TD*%
%TA.AperFunction,SMDPad,CuDef*%
%ADD20RoundRect,0.250000X-0.475000X0.337500X-0.475000X-0.337500X0.475000X-0.337500X0.475000X0.337500X0*%
%TD*%
%TA.AperFunction,ComponentPad*%
%ADD21O,1.700000X1.700000*%
%TD*%
%TA.AperFunction,ComponentPad*%
%ADD22R,1.700000X1.700000*%
%TD*%
%TA.AperFunction,SMDPad,CuDef*%
%ADD23R,1.020000X3.400000*%
%TD*%
%TA.AperFunction,SMDPad,CuDef*%
%ADD24R,0.425000X0.900000*%
%TD*%
%TA.AperFunction,SMDPad,CuDef*%
%ADD25C,0.370000*%
%TD*%
%TA.AperFunction,SMDPad,CuDef*%
%ADD26RoundRect,0.155000X0.212500X0.155000X-0.212500X0.155000X-0.212500X-0.155000X0.212500X-0.155000X0*%
%TD*%
%TA.AperFunction,SMDPad,CuDef*%
%ADD27R,1.350000X0.400000*%
%TD*%
%TA.AperFunction,SMDPad,CuDef*%
%ADD28R,1.900000X1.900000*%
%TD*%
%TA.AperFunction,SMDPad,CuDef*%
%ADD29C,0.270000*%
%TD*%
%TA.AperFunction,SMDPad,CuDef*%
%ADD30RoundRect,0.250000X0.337500X0.475000X-0.337500X0.475000X-0.337500X-0.475000X0.337500X-0.475000X0*%
%TD*%
%TA.AperFunction,SMDPad,CuDef*%
%ADD31R,1.600000X1.500000*%
%TD*%
%TA.AperFunction,SMDPad,CuDef*%
%ADD32RoundRect,0.155000X-0.212500X-0.155000X0.212500X-0.155000X0.212500X0.155000X-0.212500X0.155000X0*%
%TD*%
%TA.AperFunction,SMDPad,CuDef*%
%ADD33R,0.650000X1.650000*%
%TD*%
%TA.AperFunction,ViaPad*%
%ADD34C,0.700000*%
%TD*%
%TA.AperFunction,ViaPad*%
%ADD35C,5.000000*%
%TD*%
%TA.AperFunction,ViaPad*%
%ADD36C,0.600000*%
%TD*%
%TA.AperFunction,ViaPad*%
%ADD37C,0.450000*%
%TD*%
%TA.AperFunction,Conductor*%
%ADD38C,0.600000*%
%TD*%
%TA.AperFunction,Conductor*%
%ADD39C,0.250000*%
%TD*%
%TA.AperFunction,Conductor*%
%ADD40C,0.450000*%
%TD*%
%TA.AperFunction,Conductor*%
%ADD41C,0.200000*%
%TD*%
%TA.AperFunction,Conductor*%
%ADD42C,0.076200*%
%TD*%
%TA.AperFunction,Conductor*%
%ADD43C,0.101600*%
%TD*%
%TA.AperFunction,Conductor*%
%ADD44C,0.280000*%
%TD*%
%TA.AperFunction,Conductor*%
%ADD45C,0.127000*%
%TD*%
G04 APERTURE END LIST*
D10*
%TO.P,IC6,1,VIN*%
%TO.N,+5V*%
X186339800Y-90332600D03*
%TO.P,IC6,2,GND*%
%TO.N,GND*%
X186339800Y-89382600D03*
%TO.P,IC6,3,~{SHDN}*%
%TO.N,+5V*%
X186339800Y-88432600D03*
%TO.P,IC6,4,PWRGD*%
%TO.N,GND*%
X183839800Y-88432600D03*
%TO.P,IC6,5,VOUT*%
%TO.N,+1V8*%
X183839800Y-90332600D03*
%TD*%
D11*
%TO.P,IC5,1,IN*%
%TO.N,+5V*%
X186309000Y-84759800D03*
%TO.P,IC5,2,GND*%
%TO.N,GND*%
X186309000Y-83809800D03*
%TO.P,IC5,3,EN*%
%TO.N,+5V*%
X186309000Y-82859800D03*
%TO.P,IC5,4,N/C*%
%TO.N,unconnected-(IC5-Pad4)*%
X183809000Y-82859800D03*
%TO.P,IC5,5,OUT*%
%TO.N,+3V3*%
X183809000Y-84759800D03*
%TD*%
D12*
%TO.P,R2,1*%
%TO.N,/gpio*%
X172618400Y-79705200D03*
%TO.P,R2,2*%
%TO.N,Net-(D2-Pad2)*%
X172618400Y-78055200D03*
%TD*%
D13*
%TO.P,C15,1*%
%TO.N,/resetb*%
X154432000Y-78740000D03*
%TO.P,C15,2*%
%TO.N,GND*%
X154432000Y-77605000D03*
%TD*%
D14*
%TO.P,C1,1*%
%TO.N,+3V3*%
X160782000Y-72491600D03*
%TO.P,C1,2*%
%TO.N,GND*%
X160782000Y-73626600D03*
%TD*%
D15*
%TO.P,D1,1,K*%
%TO.N,GND*%
X189687200Y-72533400D03*
%TO.P,D1,2,A*%
%TO.N,Net-(D1-Pad2)*%
X189687200Y-74583400D03*
%TD*%
D16*
%TO.P,TP2,1,1*%
%TO.N,/clock*%
X156870400Y-86868000D03*
%TD*%
D17*
%TO.P,C12,1*%
%TO.N,+5V*%
X189636400Y-90318500D03*
%TO.P,C12,2*%
%TO.N,GND*%
X189636400Y-88243500D03*
%TD*%
D14*
%TO.P,C7,1*%
%TO.N,+3V3*%
X164973000Y-125035500D03*
%TO.P,C7,2*%
%TO.N,GND*%
X164973000Y-126170500D03*
%TD*%
D18*
%TO.P,IC3,A1,IN*%
%TO.N,+5V*%
X185264800Y-90497400D03*
%TO.P,IC3,A2,OUT*%
%TO.N,+1V8*%
X184914800Y-90497400D03*
%TO.P,IC3,B1,EN*%
%TO.N,+5V*%
X185264800Y-90147400D03*
%TO.P,IC3,B2,GND*%
%TO.N,GND*%
X184914800Y-90147400D03*
%TD*%
D19*
%TO.P,R3,1*%
%TO.N,/cvl_hr_rstn*%
X185775600Y-96775000D03*
%TO.P,R3,2*%
%TO.N,/hr_rstn*%
X185775600Y-98425000D03*
%TD*%
D14*
%TO.P,C5,1*%
%TO.N,+3V3*%
X169138600Y-125035500D03*
%TO.P,C5,2*%
%TO.N,GND*%
X169138600Y-126170500D03*
%TD*%
D20*
%TO.P,C16,1*%
%TO.N,+3V3*%
X167132000Y-125044200D03*
%TO.P,C16,2*%
%TO.N,GND*%
X167132000Y-127119200D03*
%TD*%
D21*
%TO.P,J2,6,Pin_6*%
%TO.N,+5V*%
X183657000Y-74884200D03*
%TO.P,J2,5,Pin_5*%
%TO.N,/mgmt_spi_do*%
X183657000Y-77424200D03*
%TO.P,J2,4,Pin_4*%
%TO.N,GND*%
X181117000Y-74884200D03*
%TO.P,J2,3,Pin_3*%
%TO.N,/mgmt_spi_clk*%
X181117000Y-77424200D03*
%TO.P,J2,2,Pin_2*%
%TO.N,/mgmt_spi_di*%
X178577000Y-74884200D03*
D22*
%TO.P,J2,1,Pin_1*%
%TO.N,/mgmt_spi_cs*%
X178577000Y-77424200D03*
%TD*%
D23*
%TO.P,J3,20,20*%
%TO.N,GND*%
X144758900Y-109380000D03*
%TO.P,J3,19,19*%
%TO.N,/hr_dq7*%
X147298900Y-109380000D03*
%TO.P,J3,18,18*%
%TO.N,/hr_dq6*%
X149838900Y-109380000D03*
%TO.P,J3,17,17*%
%TO.N,/hr_dq5*%
X152378900Y-109380000D03*
%TO.P,J3,16,16*%
%TO.N,/hr_dq4*%
X154918900Y-109380000D03*
%TO.P,J3,15,15*%
%TO.N,/hr_dq3*%
X157458900Y-109380000D03*
%TO.P,J3,14,14*%
%TO.N,/hr_dq2*%
X159998900Y-109380000D03*
%TO.P,J3,13,13*%
%TO.N,/hr_dq1*%
X162538900Y-109380000D03*
%TO.P,J3,12,12*%
%TO.N,/hr_dq0*%
X165078900Y-109380000D03*
%TO.P,J3,11,11*%
%TO.N,GND*%
X167618900Y-109380000D03*
%TO.P,J3,10,10*%
X144758900Y-103980000D03*
%TO.P,J3,9,9*%
X147298900Y-103980000D03*
%TO.P,J3,8,8*%
X149838900Y-103980000D03*
%TO.P,J3,7,7*%
X152378900Y-103980000D03*
%TO.P,J3,6,6*%
X154918900Y-103980000D03*
%TO.P,J3,5,5*%
X157458900Y-103980000D03*
%TO.P,J3,4,4*%
X159998900Y-103980000D03*
%TO.P,J3,3,3*%
X162538900Y-103980000D03*
%TO.P,J3,2,2*%
X165078900Y-103980000D03*
%TO.P,J3,1,1*%
X167618900Y-103980000D03*
%TD*%
D24*
%TO.P,RN2,1,R1.1*%
%TO.N,/cvl_hr_dq0*%
X164191800Y-96750000D03*
%TO.P,RN2,2,R2.1*%
%TO.N,/cvl_hr_dq1*%
X163391800Y-96750000D03*
%TO.P,RN2,3,R3.1*%
%TO.N,/cvl_hr_dq2*%
X162591800Y-96750000D03*
%TO.P,RN2,4,R4.1*%
%TO.N,/cvl_hr_dq3*%
X161791800Y-96750000D03*
%TO.P,RN2,5,R4.2*%
%TO.N,/hr_dq3*%
X161791800Y-98450000D03*
%TO.P,RN2,6,R3.2*%
%TO.N,/hr_dq2*%
X162591800Y-98450000D03*
%TO.P,RN2,7,R2.2*%
%TO.N,/hr_dq1*%
X163391800Y-98450000D03*
%TO.P,RN2,8,R1.2*%
%TO.N,/hr_dq0*%
X164191800Y-98450000D03*
%TD*%
D12*
%TO.P,R4,1*%
%TO.N,/resetb*%
X156870400Y-78740000D03*
%TO.P,R4,2*%
%TO.N,+3V3*%
X156870400Y-77090000D03*
%TD*%
D24*
%TO.P,RN1,1,R1.1*%
%TO.N,/cvl_hr_csn*%
X181438400Y-96750000D03*
%TO.P,RN1,2,R2.1*%
%TO.N,/cvl_hr_clk*%
X180638400Y-96750000D03*
%TO.P,RN1,3,R3.1*%
%TO.N,/cvl_hr_clkn*%
X179838400Y-96750000D03*
%TO.P,RN1,4,R4.1*%
%TO.N,/cvl_hr_rwds*%
X179038400Y-96750000D03*
%TO.P,RN1,5,R4.2*%
%TO.N,/hr_rwds*%
X179038400Y-98450000D03*
%TO.P,RN1,6,R3.2*%
%TO.N,/hr_clkn*%
X179838400Y-98450000D03*
%TO.P,RN1,7,R2.2*%
%TO.N,/hr_clk*%
X180638400Y-98450000D03*
%TO.P,RN1,8,R1.2*%
%TO.N,/hr_csn*%
X181438400Y-98450000D03*
%TD*%
D16*
%TO.P,TP3,1,1*%
%TO.N,+3V3*%
X176530000Y-84785200D03*
%TD*%
D15*
%TO.P,D2,1,K*%
%TO.N,GND*%
X172618400Y-72533400D03*
%TO.P,D2,2,A*%
%TO.N,Net-(D2-Pad2)*%
X172618400Y-74583400D03*
%TD*%
D25*
%TO.P,IC2,A2,RFU_1*%
%TO.N,unconnected-(IC2-PadA2)*%
X169640000Y-118380000D03*
%TO.P,IC2,A3,CS#*%
%TO.N,/hr_csn*%
X169640000Y-119380000D03*
%TO.P,IC2,A4,RESET#*%
%TO.N,/hr_rstn*%
X169640000Y-120380000D03*
%TO.P,IC2,A5,RFU_2*%
%TO.N,unconnected-(IC2-PadA5)*%
X169640000Y-121380000D03*
%TO.P,IC2,B1,CK#*%
%TO.N,/hr_clkn*%
X168640000Y-117380000D03*
%TO.P,IC2,B2,CK*%
%TO.N,/hr_clk*%
X168640000Y-118380000D03*
%TO.P,IC2,B3,VSS*%
%TO.N,GND*%
X168640000Y-119380000D03*
%TO.P,IC2,B4,VCC*%
%TO.N,+3V3*%
X168640000Y-120380000D03*
%TO.P,IC2,B5,RFU_3*%
%TO.N,unconnected-(IC2-PadB5)*%
X168640000Y-121380000D03*
%TO.P,IC2,C1,VSSQ_1*%
%TO.N,GND*%
X167640000Y-117380000D03*
%TO.P,IC2,C2,RFU_4*%
%TO.N,unconnected-(IC2-PadC2)*%
X167640000Y-118380000D03*
%TO.P,IC2,C3,RWDS*%
%TO.N,/hr_rwds*%
X167640000Y-119380000D03*
%TO.P,IC2,C4,DQ2*%
%TO.N,/hr_dq2*%
X167640000Y-120380000D03*
%TO.P,IC2,C5,RFU_5*%
%TO.N,unconnected-(IC2-PadC5)*%
X167640000Y-121380000D03*
%TO.P,IC2,D1,VCCQ_1*%
%TO.N,+3V3*%
X166640000Y-117380000D03*
%TO.P,IC2,D2,DQ1*%
%TO.N,/hr_dq1*%
X166640000Y-118380000D03*
%TO.P,IC2,D3,DQ0*%
%TO.N,/hr_dq0*%
X166640000Y-119380000D03*
%TO.P,IC2,D4,DQ3*%
%TO.N,/hr_dq3*%
X166640000Y-120380000D03*
%TO.P,IC2,D5,DQ4*%
%TO.N,/hr_dq4*%
X166640000Y-121380000D03*
%TO.P,IC2,E1,DQ7*%
%TO.N,/hr_dq7*%
X165640000Y-117380000D03*
%TO.P,IC2,E2,DQ6*%
%TO.N,/hr_dq6*%
X165640000Y-118380000D03*
%TO.P,IC2,E3,DQ5*%
%TO.N,/hr_dq5*%
X165640000Y-119380000D03*
%TO.P,IC2,E4,VCCQ_2*%
%TO.N,+3V3*%
X165640000Y-120380000D03*
%TO.P,IC2,E5,VSSQ_2*%
%TO.N,GND*%
X165640000Y-121380000D03*
%TD*%
D16*
%TO.P,TP5,1,1*%
%TO.N,/resetb*%
X159664400Y-78740000D03*
%TD*%
D17*
%TO.P,C13,1*%
%TO.N,+3V3*%
X180441600Y-84775000D03*
%TO.P,C13,2*%
%TO.N,GND*%
X180441600Y-82700000D03*
%TD*%
D16*
%TO.P,TP6,1,1*%
%TO.N,GND*%
X198475600Y-97536000D03*
%TD*%
D17*
%TO.P,C11,1*%
%TO.N,+5V*%
X189661800Y-84775000D03*
%TO.P,C11,2*%
%TO.N,GND*%
X189661800Y-82700000D03*
%TD*%
D26*
%TO.P,C4,1*%
%TO.N,+3V3*%
X160943100Y-88392000D03*
%TO.P,C4,2*%
%TO.N,GND*%
X159808100Y-88392000D03*
%TD*%
D16*
%TO.P,TP4,1,1*%
%TO.N,+1V8*%
X176530000Y-90322400D03*
%TD*%
D23*
%TO.P,J4,1,1*%
%TO.N,GND*%
X198478900Y-103980000D03*
%TO.P,J4,2,2*%
X195938900Y-103980000D03*
%TO.P,J4,3,3*%
X193398900Y-103980000D03*
%TO.P,J4,4,4*%
X190858900Y-103980000D03*
%TO.P,J4,5,5*%
X188318900Y-103980000D03*
%TO.P,J4,6,6*%
X185778900Y-103980000D03*
%TO.P,J4,7,7*%
X183238900Y-103980000D03*
%TO.P,J4,8,8*%
X180698900Y-103980000D03*
%TO.P,J4,9,9*%
X178158900Y-103980000D03*
%TO.P,J4,10,10*%
X175618900Y-103980000D03*
%TO.P,J4,11,11*%
X198478900Y-109380000D03*
%TO.P,J4,12,12*%
%TO.N,unconnected-(J4-Pad12)*%
X195938900Y-109380000D03*
%TO.P,J4,13,13*%
%TO.N,unconnected-(J4-Pad13)*%
X193398900Y-109380000D03*
%TO.P,J4,14,14*%
%TO.N,unconnected-(J4-Pad14)*%
X190858900Y-109380000D03*
%TO.P,J4,15,15*%
%TO.N,/hr_rstn*%
X188318900Y-109380000D03*
%TO.P,J4,16,16*%
%TO.N,/hr_csn*%
X185778900Y-109380000D03*
%TO.P,J4,17,17*%
%TO.N,/hr_clk*%
X183238900Y-109380000D03*
%TO.P,J4,18,18*%
%TO.N,/hr_clkn*%
X180698900Y-109380000D03*
%TO.P,J4,19,19*%
%TO.N,/hr_rwds*%
X178158900Y-109380000D03*
%TO.P,J4,20,20*%
%TO.N,GND*%
X175618900Y-109380000D03*
%TD*%
D27*
%TO.P,J1,1,VBUS*%
%TO.N,+5V*%
X196452500Y-85272400D03*
%TO.P,J1,2,D-*%
%TO.N,unconnected-(J1-Pad2)*%
X196452500Y-84622400D03*
%TO.P,J1,3,D+*%
%TO.N,unconnected-(J1-Pad3)*%
X196452500Y-83972400D03*
%TO.P,J1,4,ID*%
%TO.N,unconnected-(J1-Pad4)*%
X196452500Y-83322400D03*
%TO.P,J1,5,GND*%
%TO.N,GND*%
X196452500Y-82672400D03*
D28*
%TO.P,J1,6,Shield*%
%TO.N,unconnected-(J1-Pad6)*%
X199127500Y-80022400D03*
X199127500Y-85172400D03*
X199127500Y-82772400D03*
X199127500Y-87922400D03*
%TD*%
D29*
%TO.P,U1,A1,mprj_io[23]*%
%TO.N,unconnected-(U1-PadA1)*%
X163900800Y-90642000D03*
%TO.P,U1,A2,vccd2*%
%TO.N,+1V8*%
X163900800Y-90142000D03*
%TO.P,U1,A3,mprj_io[25]*%
%TO.N,unconnected-(U1-PadA3)*%
X163900800Y-89642000D03*
%TO.P,U1,A4,mprj_io[27]*%
%TO.N,unconnected-(U1-PadA4)*%
X163900800Y-89142000D03*
%TO.P,U1,A5,mprj_io[29]*%
%TO.N,unconnected-(U1-PadA5)*%
X163900800Y-88642000D03*
%TO.P,U1,A6,mprj_io[31]*%
%TO.N,unconnected-(U1-PadA6)*%
X163900800Y-88142000D03*
%TO.P,U1,A7,mprj_io[32]*%
%TO.N,unconnected-(U1-PadA7)*%
X163900800Y-87642000D03*
%TO.P,U1,A8,mprj_io[35]*%
%TO.N,unconnected-(U1-PadA8)*%
X163900800Y-87142000D03*
%TO.P,U1,A9,mprj_io[37]*%
%TO.N,unconnected-(U1-PadA9)*%
X163900800Y-86642000D03*
%TO.P,U1,A10,vccd*%
%TO.N,+1V8*%
X163900800Y-86142000D03*
%TO.P,U1,B1,mprj_io[21]*%
%TO.N,unconnected-(U1-PadB1)*%
X164400800Y-90642000D03*
%TO.P,U1,B2,mprj_io[22]*%
%TO.N,unconnected-(U1-PadB2)*%
X164400800Y-90142000D03*
%TO.P,U1,B3,vssa2*%
%TO.N,GND*%
X164400800Y-89642000D03*
%TO.P,U1,B4,mprj_io[26]*%
%TO.N,unconnected-(U1-PadB4)*%
X164400800Y-89142000D03*
%TO.P,U1,B5,mprj_io[28]*%
%TO.N,unconnected-(U1-PadB5)*%
X164400800Y-88642000D03*
%TO.P,U1,B6,mprj_io[30]*%
%TO.N,unconnected-(U1-PadB6)*%
X164400800Y-88142000D03*
%TO.P,U1,B7,vssd2*%
%TO.N,GND*%
X164400800Y-87642000D03*
%TO.P,U1,B8,mprj_io[34]*%
%TO.N,unconnected-(U1-PadB8)*%
X164400800Y-87142000D03*
%TO.P,U1,B9,mprj_io[36]*%
%TO.N,unconnected-(U1-PadB9)*%
X164400800Y-86642000D03*
%TO.P,U1,B10,resetb*%
%TO.N,/resetb*%
X164400800Y-86142000D03*
%TO.P,U1,C1,mprj_io[19]*%
%TO.N,/cvl_hr_dq6*%
X164900800Y-90642000D03*
%TO.P,U1,C2,mprj_io[20]*%
%TO.N,/cvl_hr_dq7*%
X164900800Y-90142000D03*
%TO.P,U1,C3,mprj_io[24]*%
%TO.N,unconnected-(U1-PadC3)*%
X164900800Y-89642000D03*
%TO.P,U1,C4,vddio*%
%TO.N,+3V3*%
X164900800Y-89142000D03*
%TO.P,U1,C5,vssio/vssa/vssd*%
%TO.N,GND*%
X164900800Y-88642000D03*
%TO.P,U1,C6,vssio/vssa/vssd*%
X164900800Y-88142000D03*
%TO.P,U1,C7,vdda2*%
%TO.N,+3V3*%
X164900800Y-87642000D03*
%TO.P,U1,C8,mprj_io[33]*%
%TO.N,unconnected-(U1-PadC8)*%
X164900800Y-87142000D03*
%TO.P,U1,C9,clock*%
%TO.N,/clock*%
X164900800Y-86642000D03*
%TO.P,U1,C10,flash_csb*%
%TO.N,/flash_csb*%
X164900800Y-86142000D03*
%TO.P,U1,D1,mprj_io[18]*%
%TO.N,/cvl_hr_dq5*%
X165400800Y-90642000D03*
%TO.P,U1,D2,mprj_io[17]*%
%TO.N,/cvl_hr_dq4*%
X165400800Y-90142000D03*
%TO.P,U1,D3,mprj_io[13]*%
%TO.N,/cvl_hr_dq0*%
X165400800Y-89642000D03*
%TO.P,U1,D4,vdda1*%
%TO.N,+3V3*%
X165400800Y-89142000D03*
%TO.P,U1,D5,vssio/vssa/vssd*%
%TO.N,GND*%
X165400800Y-88642000D03*
%TO.P,U1,D6,vssio/vssa/vssd*%
X165400800Y-88142000D03*
%TO.P,U1,D7,mprj_io[0]*%
%TO.N,unconnected-(U1-PadD7)*%
X165400800Y-87642000D03*
%TO.P,U1,D8,flash_clk*%
%TO.N,/flash_clk*%
X165400800Y-87142000D03*
%TO.P,U1,D9,flash_io1*%
%TO.N,/flash_io1*%
X165400800Y-86642000D03*
%TO.P,U1,D10,flash_io0*%
%TO.N,/flash_io0*%
X165400800Y-86142000D03*
%TO.P,U1,E1,mprj_io[16]*%
%TO.N,/cvl_hr_dq3*%
X165900800Y-90642000D03*
%TO.P,U1,E2,mprj_io[14]*%
%TO.N,/cvl_hr_dq1*%
X165900800Y-90142000D03*
%TO.P,U1,E3,mprj_io[11]*%
%TO.N,/cvl_hr_clkn*%
X165900800Y-89642000D03*
%TO.P,U1,E4,mprj_io[9]*%
%TO.N,/cvl_hr_csn*%
X165900800Y-89142000D03*
%TO.P,U1,E5,mprj_io[7]*%
%TO.N,unconnected-(U1-PadE5)*%
X165900800Y-88642000D03*
%TO.P,U1,E6,vssa1*%
%TO.N,GND*%
X165900800Y-88142000D03*
%TO.P,U1,E7,mprj_io[5]*%
%TO.N,unconnected-(U1-PadE7)*%
X165900800Y-87642000D03*
%TO.P,U1,E8,mprj_io[3]*%
%TO.N,/mgmt_spi_cs*%
X165900800Y-87142000D03*
%TO.P,U1,E9,mprj_io[1]*%
%TO.N,/mgmt_spi_do*%
X165900800Y-86642000D03*
%TO.P,U1,E10,gpio*%
%TO.N,/gpio*%
X165900800Y-86142000D03*
%TO.P,U1,F1,mprj_io[15]*%
%TO.N,/cvl_hr_dq2*%
X166400800Y-90642000D03*
%TO.P,U1,F2,vccd1*%
%TO.N,+1V8*%
X166400800Y-90142000D03*
%TO.P,U1,F3,mprj_io[12]*%
%TO.N,/cvl_hr_rwds*%
X166400800Y-89642000D03*
%TO.P,U1,F4,mprj_io[10]*%
%TO.N,/cvl_hr_clk*%
X166400800Y-89142000D03*
%TO.P,U1,F5,mprj_io[8]*%
%TO.N,/cvl_hr_rstn*%
X166400800Y-88642000D03*
%TO.P,U1,F6,vssd1*%
%TO.N,GND*%
X166400800Y-88142000D03*
%TO.P,U1,F7,mprj_io[6]*%
%TO.N,unconnected-(U1-PadF7)*%
X166400800Y-87642000D03*
%TO.P,U1,F8,mprj_io[4]*%
%TO.N,/mgmt_spi_clk*%
X166400800Y-87142000D03*
%TO.P,U1,F9,mprj_io[2]*%
%TO.N,/mgmt_spi_di*%
X166400800Y-86642000D03*
%TO.P,U1,F10,vdda*%
%TO.N,+3V3*%
X166400800Y-86142000D03*
%TD*%
D13*
%TO.P,C2,1*%
%TO.N,+3V3*%
X169367200Y-85987700D03*
%TO.P,C2,2*%
%TO.N,GND*%
X169367200Y-84852700D03*
%TD*%
D24*
%TO.P,RN3,1,R1.1*%
%TO.N,/cvl_hr_dq4*%
X156194100Y-96750000D03*
%TO.P,RN3,2,R2.1*%
%TO.N,/cvl_hr_dq5*%
X155394100Y-96750000D03*
%TO.P,RN3,3,R3.1*%
%TO.N,/cvl_hr_dq6*%
X154594100Y-96750000D03*
%TO.P,RN3,4,R4.1*%
%TO.N,/cvl_hr_dq7*%
X153794100Y-96750000D03*
%TO.P,RN3,5,R4.2*%
%TO.N,/hr_dq7*%
X153794100Y-98450000D03*
%TO.P,RN3,6,R3.2*%
%TO.N,/hr_dq6*%
X154594100Y-98450000D03*
%TO.P,RN3,7,R2.2*%
%TO.N,/hr_dq5*%
X155394100Y-98450000D03*
%TO.P,RN3,8,R1.2*%
%TO.N,/hr_dq4*%
X156194100Y-98450000D03*
%TD*%
D30*
%TO.P,C17,1*%
%TO.N,+1V8*%
X160727300Y-92405200D03*
%TO.P,C17,2*%
%TO.N,GND*%
X158652300Y-92405200D03*
%TD*%
D12*
%TO.P,R1,1*%
%TO.N,+5V*%
X189687200Y-79705200D03*
%TO.P,R1,2*%
%TO.N,Net-(D1-Pad2)*%
X189687200Y-78055200D03*
%TD*%
D17*
%TO.P,C14,1*%
%TO.N,+1V8*%
X180441600Y-90318500D03*
%TO.P,C14,2*%
%TO.N,GND*%
X180441600Y-88243500D03*
%TD*%
D30*
%TO.P,C18,1*%
%TO.N,+3V3*%
X160731200Y-83718400D03*
%TO.P,C18,2*%
%TO.N,GND*%
X158656200Y-83718400D03*
%TD*%
D14*
%TO.P,C8,1*%
%TO.N,+1V8*%
X169367200Y-90297000D03*
%TO.P,C8,2*%
%TO.N,GND*%
X169367200Y-91432000D03*
%TD*%
D31*
%TO.P,Y1,4,VCC*%
%TO.N,+3V3*%
X149352000Y-86834800D03*
%TO.P,Y1,3,OUT*%
%TO.N,/clock*%
X151892000Y-86834800D03*
%TO.P,Y1,2,GND*%
%TO.N,GND*%
X151892000Y-89034800D03*
%TO.P,Y1,1,~{ST}*%
%TO.N,+3V3*%
X149352000Y-89034800D03*
%TD*%
D26*
%TO.P,C6,2*%
%TO.N,GND*%
X159808100Y-86106000D03*
%TO.P,C6,1*%
%TO.N,+1V8*%
X160943100Y-86106000D03*
%TD*%
D32*
%TO.P,C3,1*%
%TO.N,+3V3*%
X149402800Y-83312000D03*
%TO.P,C3,2*%
%TO.N,GND*%
X150537800Y-83312000D03*
%TD*%
D16*
%TO.P,TP1,1,1*%
%TO.N,+5V*%
X189636400Y-93243400D03*
%TD*%
D18*
%TO.P,IC4,A1,IN*%
%TO.N,+5V*%
X185214000Y-84914400D03*
%TO.P,IC4,A2,OUT*%
%TO.N,+3V3*%
X184864000Y-84914400D03*
%TO.P,IC4,B1,EN*%
%TO.N,+5V*%
X185214000Y-84564400D03*
%TO.P,IC4,B2,GND*%
%TO.N,GND*%
X184864000Y-84564400D03*
%TD*%
D26*
%TO.P,C10,2*%
%TO.N,GND*%
X159808100Y-90170000D03*
%TO.P,C10,1*%
%TO.N,+1V8*%
X160943100Y-90170000D03*
%TD*%
D33*
%TO.P,IC1,1,/CS*%
%TO.N,/flash_csb*%
X163474400Y-79698400D03*
%TO.P,IC1,2,DO(IO1)*%
%TO.N,/flash_io1*%
X164744400Y-79698400D03*
%TO.P,IC1,3,IO2*%
%TO.N,unconnected-(IC1-Pad3)*%
X166014400Y-79698400D03*
%TO.P,IC1,4,GND*%
%TO.N,GND*%
X167284400Y-79698400D03*
%TO.P,IC1,5,DI(IO0)*%
%TO.N,/flash_io0*%
X167284400Y-72498400D03*
%TO.P,IC1,6,CLK*%
%TO.N,/flash_clk*%
X166014400Y-72498400D03*
%TO.P,IC1,7,IO3*%
%TO.N,unconnected-(IC1-Pad7)*%
X164744400Y-72498400D03*
%TO.P,IC1,8,VCC*%
%TO.N,+3V3*%
X163474400Y-72498400D03*
%TD*%
D32*
%TO.P,C9,1*%
%TO.N,+3V3*%
X166505000Y-113893600D03*
%TO.P,C9,2*%
%TO.N,GND*%
X167640000Y-113893600D03*
%TD*%
D34*
%TO.N,GND*%
X144758900Y-101502700D03*
%TO.N,+3V3*%
X181864000Y-84759800D03*
%TO.N,+1V8*%
X181853800Y-90332600D03*
D35*
%TO.N,GND*%
X197250000Y-74300000D03*
X147250000Y-124300000D03*
X147250000Y-74300000D03*
X197250000Y-124300000D03*
D34*
%TO.N,+3V3*%
X179019200Y-84785200D03*
D36*
X149402800Y-82372200D03*
D34*
X165862000Y-125044200D03*
D36*
X160934400Y-87604600D03*
X170307000Y-85979000D03*
D34*
X162026600Y-83718400D03*
D36*
X156870400Y-76047600D03*
D34*
X168351200Y-125044200D03*
X160731200Y-82296000D03*
D36*
X166497000Y-112953800D03*
X160934400Y-89179400D03*
X159842200Y-72491600D03*
D34*
X180441600Y-86029800D03*
D36*
%TO.N,GND*%
X159816800Y-89281000D03*
X170307000Y-91440000D03*
D34*
X188315600Y-101498400D03*
X158648400Y-82296000D03*
X187604400Y-83820000D03*
D36*
X167614600Y-112953800D03*
X172618400Y-70866000D03*
D34*
X153390600Y-89027000D03*
X189636400Y-86969600D03*
X195148200Y-82397600D03*
X180441600Y-81432400D03*
X167284400Y-78054200D03*
X187731400Y-89382600D03*
D37*
X163347400Y-89408000D03*
D34*
X179019200Y-82702400D03*
X167284400Y-81229200D03*
X165735000Y-127127000D03*
X185778900Y-101501700D03*
X180695600Y-101498400D03*
D36*
X167640000Y-87985600D03*
D34*
X154918900Y-101502700D03*
X179019200Y-88239600D03*
X195935600Y-101498400D03*
D36*
X158800800Y-86106000D03*
D34*
X144758900Y-111857300D03*
D36*
X154432000Y-76200000D03*
D34*
X180441600Y-86995000D03*
D36*
X159791400Y-87604600D03*
D34*
X175618900Y-111858300D03*
X175615600Y-101498400D03*
D37*
X165150800Y-88392000D03*
D34*
X151892000Y-90474800D03*
X195148200Y-81534000D03*
X191058800Y-82702400D03*
X185089800Y-89382600D03*
X198475600Y-101498400D03*
D36*
X159816800Y-85191600D03*
X159842200Y-73634600D03*
D34*
X196011800Y-81534000D03*
X183235600Y-101498400D03*
X189661800Y-81432400D03*
X191033400Y-88239600D03*
X157378400Y-83718400D03*
X147298900Y-101502700D03*
D36*
X168427400Y-84836000D03*
D34*
X162534600Y-101498400D03*
X159994600Y-101498400D03*
X168529000Y-127127000D03*
X149838900Y-101502700D03*
D36*
X167640000Y-116382800D03*
X189687200Y-70866000D03*
X166090600Y-122377200D03*
X161721800Y-73634600D03*
D34*
X183819800Y-86969600D03*
X185013600Y-83794600D03*
D36*
X170307000Y-84836000D03*
D34*
X167614600Y-111861600D03*
X167614600Y-101498400D03*
D36*
X158800800Y-88392000D03*
D34*
X158648400Y-90982800D03*
X198478900Y-111858300D03*
D36*
X168427400Y-91440000D03*
D34*
X178155600Y-101498400D03*
D36*
X150545800Y-84251800D03*
D34*
X152378900Y-101502700D03*
X190855600Y-101498400D03*
X182448200Y-88442800D03*
X157454600Y-101498400D03*
X181864000Y-82702400D03*
D36*
X170561000Y-118719600D03*
D34*
X193398900Y-101501700D03*
D36*
X167614600Y-114833400D03*
D34*
X157378400Y-92405200D03*
D36*
X150545800Y-82372200D03*
D34*
X165074600Y-101498400D03*
%TO.N,+1V8*%
X162001200Y-92405200D03*
D36*
X160934400Y-85191600D03*
X170307000Y-90297000D03*
D34*
X180416200Y-91592400D03*
X179019200Y-90322400D03*
X160731200Y-91084400D03*
D37*
%TO.N,/hr_dq2*%
X167157400Y-119888000D03*
X162814000Y-116586000D03*
%TO.N,/hr_dq7*%
X152552400Y-115824000D03*
X164846000Y-116586000D03*
%TO.N,/hr_dq6*%
X155854400Y-116586000D03*
X163830000Y-117602000D03*
%TO.N,/hr_dq5*%
X160782000Y-116586000D03*
X158394400Y-116586000D03*
%TD*%
D38*
%TO.N,+3V3*%
X181864000Y-84759800D02*
X180456800Y-84759800D01*
%TO.N,+1V8*%
X181853800Y-90332600D02*
X180455700Y-90332600D01*
D39*
%TO.N,+3V3*%
X165400800Y-89142000D02*
X164900800Y-89142000D01*
D40*
X156870400Y-77090000D02*
X156870400Y-76047600D01*
D38*
X180441600Y-84775000D02*
X179029400Y-84775000D01*
D41*
X169212900Y-86142000D02*
X169367200Y-85987700D01*
D38*
X180441600Y-84775000D02*
X180441600Y-86029800D01*
D40*
X166505000Y-113893600D02*
X166505000Y-112961800D01*
D38*
X180456800Y-84759800D02*
X180441600Y-84775000D01*
D40*
X160943100Y-88392000D02*
X160943100Y-89170700D01*
D38*
X167132000Y-125044200D02*
X168351200Y-125044200D01*
D40*
X168359900Y-125035500D02*
X168351200Y-125044200D01*
X160788800Y-72498400D02*
X160782000Y-72491600D01*
D42*
X164651989Y-87393189D02*
X163508011Y-87393189D01*
D40*
X149402800Y-86784000D02*
X149352000Y-86834800D01*
D39*
X169138600Y-120878600D02*
X168640000Y-120380000D01*
D42*
X164651989Y-88893189D02*
X163506611Y-88893189D01*
D40*
X160943100Y-89170700D02*
X160934400Y-89179400D01*
X149402800Y-83312000D02*
X149402800Y-82372200D01*
D38*
X183809000Y-84759800D02*
X181864000Y-84759800D01*
X149352000Y-89034800D02*
X149352000Y-86834800D01*
X160731200Y-83718400D02*
X160731200Y-82296000D01*
D39*
X166640000Y-114028600D02*
X166505000Y-113893600D01*
X163010389Y-88893189D02*
X163506611Y-88893189D01*
D40*
X165853300Y-125035500D02*
X165862000Y-125044200D01*
D38*
X179019200Y-84785200D02*
X176530000Y-84785200D01*
D43*
X164900800Y-87642000D02*
X164651989Y-87393189D01*
D40*
X160943100Y-88392000D02*
X162509200Y-88392000D01*
D39*
X169138600Y-125035500D02*
X169138600Y-120878600D01*
D38*
X167132000Y-125044200D02*
X165862000Y-125044200D01*
X160731200Y-83718400D02*
X162026600Y-83718400D01*
D41*
X166400800Y-86142000D02*
X169212900Y-86142000D01*
D40*
X160943100Y-87613300D02*
X160934400Y-87604600D01*
X166505000Y-112961800D02*
X166497000Y-112953800D01*
X163474400Y-72498400D02*
X160788800Y-72498400D01*
D41*
X184864000Y-84914400D02*
X183963600Y-84914400D01*
D40*
X169367200Y-85987700D02*
X170298300Y-85987700D01*
D39*
X162509200Y-88392000D02*
X163010389Y-88893189D01*
D43*
X164900800Y-89142000D02*
X164651989Y-88893189D01*
D44*
X164973000Y-125035500D02*
X164973000Y-121047000D01*
D41*
X183963600Y-84914400D02*
X183809000Y-84759800D01*
D40*
X149402800Y-83312000D02*
X149402800Y-86784000D01*
D39*
X166640000Y-117380000D02*
X166640000Y-114028600D01*
D40*
X164973000Y-125035500D02*
X165853300Y-125035500D01*
D44*
X164973000Y-121047000D02*
X165640000Y-120380000D01*
D40*
X160943100Y-88392000D02*
X160943100Y-87613300D01*
D38*
X179029400Y-84775000D02*
X179019200Y-84785200D01*
D40*
X169138600Y-125035500D02*
X168359900Y-125035500D01*
X170298300Y-85987700D02*
X170307000Y-85979000D01*
D39*
X162509200Y-88392000D02*
X163508011Y-87393189D01*
D40*
X160782000Y-72491600D02*
X159842200Y-72491600D01*
D38*
%TO.N,GND*%
X190858900Y-101501700D02*
X190855600Y-101498400D01*
X154918900Y-103980000D02*
X154918900Y-101502700D01*
X186309000Y-83809800D02*
X187594200Y-83809800D01*
X191056400Y-82700000D02*
X191058800Y-82702400D01*
X191029500Y-88243500D02*
X191033400Y-88239600D01*
D40*
X159808100Y-86106000D02*
X159808100Y-85200300D01*
D38*
X186339800Y-89382600D02*
X187731400Y-89382600D01*
D39*
X165400800Y-88642000D02*
X165150800Y-88392000D01*
D40*
X168444100Y-84852700D02*
X168427400Y-84836000D01*
D38*
X153382800Y-89034800D02*
X153390600Y-89027000D01*
D40*
X154432000Y-77605000D02*
X154432000Y-76200000D01*
D39*
X169148000Y-118872000D02*
X169392600Y-118872000D01*
D42*
X163362211Y-89393189D02*
X163347400Y-89408000D01*
D39*
X165640000Y-121380000D02*
X165640000Y-121926600D01*
D38*
X186339800Y-89382600D02*
X185089800Y-89382600D01*
X167618900Y-103980000D02*
X167618900Y-101502700D01*
D40*
X159998900Y-101502700D02*
X159994600Y-101498400D01*
D38*
X162538900Y-101502700D02*
X162534600Y-101498400D01*
X144754600Y-111861600D02*
X144758900Y-111857300D01*
D39*
X167640000Y-117380000D02*
X167640000Y-116382800D01*
D44*
X164900800Y-88642000D02*
X165150800Y-88392000D01*
D40*
X159808100Y-87621300D02*
X159791400Y-87604600D01*
D38*
X195938900Y-101501700D02*
X195935600Y-101498400D01*
D44*
X165400800Y-88142000D02*
X165900800Y-88142000D01*
D45*
X164900800Y-88142000D02*
X164400800Y-87642000D01*
D38*
X167284400Y-79698400D02*
X167284400Y-81229200D01*
X180698900Y-101501700D02*
X180695600Y-101498400D01*
D40*
X157458900Y-103980000D02*
X157458900Y-101502700D01*
X167640000Y-112979200D02*
X167614600Y-112953800D01*
X160782000Y-73626600D02*
X161713800Y-73626600D01*
X150537800Y-83312000D02*
X150537800Y-84243800D01*
D38*
X144754600Y-101498400D02*
X144758900Y-101502700D01*
D39*
X170408600Y-118872000D02*
X170561000Y-118719600D01*
D38*
X180441600Y-82700000D02*
X179021600Y-82700000D01*
X158652300Y-90986700D02*
X158648400Y-90982800D01*
D44*
X165400800Y-88142000D02*
X165150800Y-88392000D01*
D40*
X189687200Y-72533400D02*
X189687200Y-70866000D01*
X165735000Y-127127000D02*
X165379400Y-127127000D01*
X161713800Y-73626600D02*
X161721800Y-73634600D01*
D38*
X189661800Y-82700000D02*
X191056400Y-82700000D01*
X185775600Y-101498400D02*
X185778900Y-101501700D01*
D40*
X159850200Y-73626600D02*
X159842200Y-73634600D01*
X159816800Y-89281000D02*
X159816800Y-88400700D01*
D38*
X165078900Y-101502700D02*
X165074600Y-101498400D01*
D42*
X164151989Y-89393189D02*
X163362211Y-89393189D01*
D38*
X162538900Y-103980000D02*
X162538900Y-101502700D01*
X180441600Y-88243500D02*
X180441600Y-86995000D01*
D40*
X159808100Y-90170000D02*
X159808100Y-89289700D01*
D38*
X198475600Y-111861600D02*
X198478900Y-111858300D01*
D40*
X169138600Y-126771400D02*
X169138600Y-126170500D01*
D38*
X144758900Y-103980000D02*
X144758900Y-101502700D01*
X158656200Y-82303800D02*
X158648400Y-82296000D01*
D40*
X167640000Y-114808000D02*
X167614600Y-114833400D01*
X159816800Y-88400700D02*
X159808100Y-88392000D01*
X172618400Y-72533400D02*
X172618400Y-70866000D01*
X159808100Y-89289700D02*
X159816800Y-89281000D01*
D38*
X175618900Y-103980000D02*
X175618900Y-101501700D01*
D40*
X169367200Y-84852700D02*
X170290300Y-84852700D01*
D38*
X154914600Y-101498400D02*
X154918900Y-101502700D01*
X183238900Y-101501700D02*
X183235600Y-101498400D01*
X189661800Y-82700000D02*
X189661800Y-81432400D01*
X151892000Y-89034800D02*
X153382800Y-89034800D01*
D40*
X170299000Y-91432000D02*
X170307000Y-91440000D01*
X169367200Y-84852700D02*
X168444100Y-84852700D01*
D38*
X188318900Y-101501700D02*
X188315600Y-101498400D01*
D40*
X168435400Y-91432000D02*
X168427400Y-91440000D01*
D38*
X165742800Y-127119200D02*
X165735000Y-127127000D01*
X193395600Y-101498400D02*
X193398900Y-101501700D01*
D40*
X169367200Y-91432000D02*
X168435400Y-91432000D01*
X165379400Y-127127000D02*
X164973000Y-126720600D01*
D38*
X183238900Y-103980000D02*
X183238900Y-101501700D01*
D40*
X160782000Y-73626600D02*
X159850200Y-73626600D01*
X157458900Y-101502700D02*
X157454600Y-101498400D01*
X168783000Y-127127000D02*
X169138600Y-126771400D01*
X169367200Y-91432000D02*
X170299000Y-91432000D01*
D38*
X180698900Y-103980000D02*
X180698900Y-101501700D01*
X167132000Y-127119200D02*
X168521200Y-127119200D01*
X144758900Y-109380000D02*
X144758900Y-111857300D01*
X187594200Y-83809800D02*
X187604400Y-83820000D01*
X181861600Y-82700000D02*
X181864000Y-82702400D01*
D40*
X198475600Y-97536000D02*
X198475600Y-101498400D01*
D38*
X175615600Y-111861600D02*
X175618900Y-111858300D01*
X198478900Y-109380000D02*
X198478900Y-111858300D01*
D44*
X166400800Y-88142000D02*
X167178800Y-88142000D01*
D38*
X198478900Y-103980000D02*
X198478900Y-101501700D01*
D40*
X167640000Y-113893600D02*
X167640000Y-114808000D01*
D38*
X183839800Y-88432600D02*
X183839800Y-86989600D01*
D40*
X170290300Y-84852700D02*
X170307000Y-84836000D01*
D38*
X158652300Y-92405200D02*
X157378400Y-92405200D01*
X185028800Y-83809800D02*
X185013600Y-83794600D01*
D41*
X184914800Y-90147400D02*
X184914800Y-89557600D01*
D38*
X178158900Y-103980000D02*
X178158900Y-101501700D01*
X168521200Y-127119200D02*
X168529000Y-127127000D01*
X167132000Y-127119200D02*
X165742800Y-127119200D01*
D40*
X150537800Y-83312000D02*
X150537800Y-82380200D01*
D38*
X147298900Y-103980000D02*
X147298900Y-101502700D01*
X188318900Y-103980000D02*
X188318900Y-101501700D01*
D40*
X150537800Y-82380200D02*
X150545800Y-82372200D01*
D44*
X167483600Y-88142000D02*
X167640000Y-87985600D01*
D38*
X152374600Y-101498400D02*
X152378900Y-101502700D01*
X185778900Y-103980000D02*
X185778900Y-101501700D01*
X175618900Y-109380000D02*
X175618900Y-111858300D01*
D40*
X159808100Y-88392000D02*
X158800800Y-88392000D01*
D38*
X193398900Y-103980000D02*
X193398900Y-101501700D01*
X167284400Y-79698400D02*
X167284400Y-78054200D01*
D40*
X159808100Y-85200300D02*
X159816800Y-85191600D01*
D38*
X189636400Y-88243500D02*
X189636400Y-86969600D01*
X158656200Y-83718400D02*
X158656200Y-82303800D01*
X190858900Y-103980000D02*
X190858900Y-101501700D01*
D40*
X159808100Y-88392000D02*
X159808100Y-87621300D01*
D38*
X158652300Y-92405200D02*
X158652300Y-90986700D01*
X167618900Y-111857300D02*
X167614600Y-111861600D01*
X195938900Y-103980000D02*
X195938900Y-101501700D01*
D40*
X159998900Y-103980000D02*
X159998900Y-101502700D01*
D41*
X184864000Y-83944200D02*
X185013600Y-83794600D01*
X184864000Y-84564400D02*
X184864000Y-83944200D01*
D38*
X175618900Y-101501700D02*
X175615600Y-101498400D01*
X149834600Y-101498400D02*
X149838900Y-101502700D01*
D40*
X167640000Y-113893600D02*
X167640000Y-112979200D01*
D38*
X180441600Y-88243500D02*
X179023100Y-88243500D01*
D39*
X165150800Y-88392000D02*
X164900800Y-88142000D01*
X169392600Y-118872000D02*
X170408600Y-118872000D01*
D40*
X168529000Y-127127000D02*
X168783000Y-127127000D01*
D38*
X147294600Y-101498400D02*
X147298900Y-101502700D01*
X152378900Y-103980000D02*
X152378900Y-101502700D01*
D43*
X164400800Y-89642000D02*
X164151989Y-89393189D01*
D38*
X165078900Y-103980000D02*
X165078900Y-101502700D01*
X183839800Y-88432600D02*
X182458400Y-88432600D01*
X151892000Y-89034800D02*
X151892000Y-90474800D01*
X186309000Y-83809800D02*
X185028800Y-83809800D01*
D44*
X167178800Y-88142000D02*
X167483600Y-88142000D01*
D38*
X149838900Y-103980000D02*
X149838900Y-101502700D01*
X189636400Y-88243500D02*
X191029500Y-88243500D01*
D39*
X165640000Y-121926600D02*
X166090600Y-122377200D01*
D40*
X150537800Y-84243800D02*
X150545800Y-84251800D01*
D38*
X179023100Y-88243500D02*
X179019200Y-88239600D01*
X167618900Y-101502700D02*
X167614600Y-101498400D01*
X167618900Y-109380000D02*
X167618900Y-111857300D01*
X198478900Y-101501700D02*
X198475600Y-101498400D01*
X180441600Y-82700000D02*
X180441600Y-81432400D01*
D40*
X159808100Y-86106000D02*
X158800800Y-86106000D01*
X164973000Y-126720600D02*
X164973000Y-126170500D01*
D38*
X182458400Y-88432600D02*
X182448200Y-88442800D01*
D41*
X184914800Y-89557600D02*
X185089800Y-89382600D01*
D38*
X179021600Y-82700000D02*
X179019200Y-82702400D01*
D39*
X168640000Y-119380000D02*
X169148000Y-118872000D01*
X167640000Y-114858800D02*
X167614600Y-114833400D01*
D38*
X178158900Y-101501700D02*
X178155600Y-101498400D01*
X183839800Y-86989600D02*
X183819800Y-86969600D01*
D44*
X165900800Y-88142000D02*
X166400800Y-88142000D01*
D38*
X180441600Y-82700000D02*
X181861600Y-82700000D01*
X158656200Y-83718400D02*
X157378400Y-83718400D01*
D40*
%TO.N,+1V8*%
X160943100Y-90170000D02*
X160943100Y-90872500D01*
D41*
X184004600Y-90497400D02*
X183839800Y-90332600D01*
D38*
X180441600Y-90318500D02*
X179023100Y-90318500D01*
X180455700Y-90332600D02*
X180441600Y-90318500D01*
D39*
X163900800Y-90142000D02*
X160971100Y-90142000D01*
D40*
X169367200Y-90297000D02*
X170307000Y-90297000D01*
X160943100Y-85200300D02*
X160934400Y-85191600D01*
D38*
X160727300Y-91088300D02*
X160731200Y-91084400D01*
D39*
X160979100Y-86142000D02*
X160943100Y-86106000D01*
D38*
X160727300Y-92405200D02*
X162001200Y-92405200D01*
D39*
X163900800Y-86142000D02*
X160979100Y-86142000D01*
D38*
X160727300Y-92405200D02*
X160727300Y-91088300D01*
D39*
X160971100Y-90142000D02*
X160943100Y-90170000D01*
D38*
X179019200Y-90322400D02*
X176530000Y-90322400D01*
D40*
X160943100Y-90872500D02*
X160731200Y-91084400D01*
D39*
X166400800Y-90142000D02*
X169212200Y-90142000D01*
D38*
X183839800Y-90332600D02*
X181853800Y-90332600D01*
X180441600Y-90318500D02*
X180441600Y-91567000D01*
D39*
X169212200Y-90142000D02*
X169367200Y-90297000D01*
D40*
X160943100Y-86106000D02*
X160943100Y-85200300D01*
D38*
X179023100Y-90318500D02*
X179019200Y-90322400D01*
D41*
X184914800Y-90497400D02*
X184004600Y-90497400D01*
D38*
X180441600Y-91567000D02*
X180416200Y-91592400D01*
D41*
%TO.N,+5V*%
X186154400Y-84914400D02*
X186309000Y-84759800D01*
X185214000Y-84564400D02*
X186113600Y-84564400D01*
X186175000Y-90497400D02*
X186339800Y-90332600D01*
X185264800Y-90497400D02*
X186175000Y-90497400D01*
X185214000Y-84914400D02*
X186154400Y-84914400D01*
X186154600Y-90147400D02*
X186339800Y-90332600D01*
X186113600Y-84564400D02*
X186309000Y-84759800D01*
X185264800Y-90147400D02*
X186154600Y-90147400D01*
D40*
%TO.N,/resetb*%
X156870400Y-78740000D02*
X159664400Y-78740000D01*
D41*
X164400800Y-86142000D02*
X164400800Y-83476400D01*
D40*
X154432000Y-78740000D02*
X156870400Y-78740000D01*
D41*
X164400800Y-83476400D02*
X159664400Y-78740000D01*
D45*
%TO.N,/gpio*%
X165900800Y-86142000D02*
X165900800Y-84289200D01*
X167919400Y-82270600D02*
X170053000Y-82270600D01*
X165900800Y-84289200D02*
X167919400Y-82270600D01*
X170053000Y-82270600D02*
X172618400Y-79705200D01*
%TO.N,/flash_csb*%
X163474400Y-81508600D02*
X164900800Y-82935000D01*
X164900800Y-86142000D02*
X164900800Y-82935000D01*
X163474400Y-79698400D02*
X163474400Y-81508600D01*
D42*
%TO.N,/flash_io1*%
X165151989Y-86393189D02*
X165151989Y-85751589D01*
D45*
X164744400Y-79698400D02*
X164744400Y-82092800D01*
X164744400Y-82092800D02*
X165151989Y-82500389D01*
D43*
X165400800Y-86642000D02*
X165151989Y-86393189D01*
D45*
X165151989Y-82500389D02*
X165151989Y-85751589D01*
%TO.N,/flash_io0*%
X165400800Y-86142000D02*
X165400800Y-76966000D01*
X167284400Y-75082400D02*
X167284400Y-72498400D01*
X165400800Y-76966000D02*
X167284400Y-75082400D01*
%TO.N,/flash_clk*%
X166649400Y-76962000D02*
X168478200Y-75133200D01*
X165649611Y-85759589D02*
X165649611Y-82508389D01*
X166014400Y-72498400D02*
X166014400Y-71998400D01*
X167665400Y-71120000D02*
X168478200Y-71932800D01*
X168478200Y-75133200D02*
X168478200Y-71932800D01*
X166892800Y-71120000D02*
X167665400Y-71120000D01*
D42*
X165649611Y-86893189D02*
X165649611Y-85759589D01*
D45*
X166014400Y-71998400D02*
X166892800Y-71120000D01*
X166649400Y-81508600D02*
X166649400Y-76962000D01*
X165649611Y-82508389D02*
X166649400Y-81508600D01*
D43*
X165400800Y-87142000D02*
X165649611Y-86893189D01*
D41*
%TO.N,/hr_csn*%
X169640000Y-119380000D02*
X176961800Y-119380000D01*
X181438400Y-98450000D02*
X181438400Y-98685200D01*
X176961800Y-119380000D02*
X185778900Y-110562900D01*
X185778900Y-109380000D02*
X185778900Y-108181900D01*
X184531000Y-106934000D02*
X184531000Y-101777800D01*
X181438400Y-98685200D02*
X184531000Y-101777800D01*
X185778900Y-108181900D02*
X184531000Y-106934000D01*
X185778900Y-110562900D02*
X185778900Y-109380000D01*
%TO.N,/hr_rstn*%
X185775600Y-98425000D02*
X187045600Y-99695000D01*
X169640000Y-120380000D02*
X178501800Y-120380000D01*
X178501800Y-120380000D02*
X188318900Y-110562900D01*
X187045600Y-106934000D02*
X188318900Y-108207300D01*
X188318900Y-110562900D02*
X188318900Y-109380000D01*
X188318900Y-108207300D02*
X188318900Y-109380000D01*
X187045600Y-99695000D02*
X187045600Y-106934000D01*
%TO.N,/hr_clkn*%
X180698900Y-108156500D02*
X180698900Y-109380000D01*
X168640000Y-117380000D02*
X173881800Y-117380000D01*
X179705000Y-100025200D02*
X179705000Y-107162600D01*
X173881800Y-117380000D02*
X180698900Y-110562900D01*
X179838400Y-99891800D02*
X179705000Y-100025200D01*
X180698900Y-110562900D02*
X180698900Y-109380000D01*
X179705000Y-107162600D02*
X180698900Y-108156500D01*
X179838400Y-98450000D02*
X179838400Y-99891800D01*
%TO.N,/hr_clk*%
X168640000Y-118380000D02*
X169138600Y-117881400D01*
X169138600Y-117881400D02*
X175920400Y-117881400D01*
X181991000Y-106934000D02*
X183238900Y-108181900D01*
X183238900Y-110562900D02*
X183238900Y-109380000D01*
X180638400Y-98450000D02*
X180638400Y-99891800D01*
X175920400Y-117881400D02*
X183238900Y-110562900D01*
X180638400Y-99891800D02*
X181991000Y-101244400D01*
X183238900Y-108181900D02*
X183238900Y-109380000D01*
X181991000Y-101244400D02*
X181991000Y-106934000D01*
%TO.N,/hr_rwds*%
X179038400Y-98450000D02*
X179038400Y-99892000D01*
X179197000Y-107162600D02*
X178158900Y-108200700D01*
X178158900Y-110562900D02*
X178158900Y-109380000D01*
X179038400Y-99892000D02*
X179197000Y-100050600D01*
X172389800Y-116332000D02*
X178158900Y-110562900D01*
X167640000Y-119380000D02*
X168148000Y-118872000D01*
X168148000Y-117119400D02*
X168935400Y-116332000D01*
X168148000Y-118872000D02*
X168148000Y-117119400D01*
X168935400Y-116332000D02*
X172389800Y-116332000D01*
X179197000Y-100050600D02*
X179197000Y-107162600D01*
X178158900Y-108200700D02*
X178158900Y-109380000D01*
%TO.N,/hr_dq2*%
X161264600Y-106934000D02*
X159998900Y-108199700D01*
X162591800Y-99891800D02*
X161264600Y-101219000D01*
X159998900Y-108199700D02*
X159998900Y-109380000D01*
X162591800Y-98450000D02*
X162591800Y-99891800D01*
X159998900Y-109380000D02*
X159998900Y-113770900D01*
X167640000Y-120380000D02*
X167640000Y-120370600D01*
X161264600Y-101219000D02*
X161264600Y-106934000D01*
X159998900Y-113770900D02*
X162814000Y-116586000D01*
X167640000Y-120370600D02*
X167157400Y-119888000D01*
%TO.N,/hr_dq1*%
X162538900Y-108199700D02*
X163550600Y-107188000D01*
X162538900Y-115294900D02*
X162538900Y-109380000D01*
X163391800Y-99891800D02*
X163391800Y-98450000D01*
X166360600Y-118380000D02*
X165862000Y-117881400D01*
X163550600Y-107188000D02*
X163550600Y-100050600D01*
X162538900Y-109380000D02*
X162538900Y-108199700D01*
X165862000Y-117881400D02*
X165125400Y-117881400D01*
X165125400Y-117881400D02*
X162538900Y-115294900D01*
X163550600Y-100050600D02*
X163391800Y-99891800D01*
X166640000Y-118380000D02*
X166360600Y-118380000D01*
%TO.N,/hr_dq0*%
X166640000Y-119380000D02*
X166640000Y-119370600D01*
X167132000Y-118160800D02*
X166852600Y-117881400D01*
X166141400Y-117576600D02*
X166141400Y-116230400D01*
X165078900Y-108182900D02*
X164058600Y-107162600D01*
X166446200Y-117881400D02*
X166141400Y-117576600D01*
X166141400Y-116230400D02*
X165078900Y-115167900D01*
X165078900Y-115167900D02*
X165078900Y-109380000D01*
X164058600Y-100025200D02*
X164058600Y-106121200D01*
X164191800Y-98450000D02*
X164191800Y-99892000D01*
X164191800Y-99892000D02*
X164058600Y-100025200D01*
X167132000Y-118888000D02*
X167132000Y-118160800D01*
X166852600Y-117881400D02*
X166446200Y-117881400D01*
X166640000Y-119380000D02*
X167132000Y-118888000D01*
X165078900Y-109380000D02*
X165078900Y-108182900D01*
X164058600Y-107162600D02*
X164058600Y-106121200D01*
%TO.N,/hr_dq3*%
X166640000Y-120132600D02*
X166141400Y-119634000D01*
X164084000Y-118872000D02*
X157458900Y-112246900D01*
X165862000Y-118872000D02*
X164084000Y-118872000D01*
X166640000Y-120380000D02*
X166640000Y-120132600D01*
X161791800Y-98450000D02*
X161791800Y-98685200D01*
X166141400Y-119151400D02*
X165862000Y-118872000D01*
X158724600Y-101752400D02*
X158724600Y-106908600D01*
X157458900Y-108174300D02*
X157458900Y-109380000D01*
X161791800Y-98685200D02*
X158724600Y-101752400D01*
X166141400Y-119634000D02*
X166141400Y-119151400D01*
X157458900Y-112246900D02*
X157458900Y-109380000D01*
X158724600Y-106908600D02*
X157458900Y-108174300D01*
%TO.N,/hr_dq4*%
X166141400Y-120881400D02*
X166141400Y-120167400D01*
X163068000Y-119888000D02*
X154918900Y-111738900D01*
X154918900Y-111738900D02*
X154918900Y-109380000D01*
X166640000Y-121380000D02*
X166141400Y-120881400D01*
X165862000Y-119888000D02*
X163068000Y-119888000D01*
X166141400Y-120167400D02*
X165862000Y-119888000D01*
X156194100Y-106924500D02*
X154918900Y-108199700D01*
X156194100Y-98450000D02*
X156194100Y-106924500D01*
X154918900Y-108199700D02*
X154918900Y-109380000D01*
%TO.N,/hr_dq7*%
X165640000Y-117380000D02*
X164846000Y-116586000D01*
X147298900Y-109380000D02*
X147298900Y-110570500D01*
X147298900Y-109380000D02*
X147298900Y-108174300D01*
X147298900Y-110570500D02*
X152552400Y-115824000D01*
X150393400Y-99822000D02*
X152654000Y-99822000D01*
X152654000Y-99822000D02*
X153794100Y-98681900D01*
X148564600Y-106908600D02*
X148564600Y-101650800D01*
X148564600Y-101650800D02*
X150393400Y-99822000D01*
X153794100Y-98681900D02*
X153794100Y-98450000D01*
X147298900Y-108174300D02*
X148564600Y-106908600D01*
%TO.N,/hr_dq6*%
X155854400Y-116586000D02*
X149838900Y-110570500D01*
X164608000Y-118380000D02*
X163830000Y-117602000D01*
X149838900Y-108174300D02*
X149838900Y-109380000D01*
X149838900Y-110570500D02*
X149838900Y-109380000D01*
X153441400Y-100584000D02*
X152171400Y-100584000D01*
X154594100Y-98450000D02*
X154594100Y-99431300D01*
X165640000Y-118380000D02*
X164608000Y-118380000D01*
X154594100Y-99431300D02*
X153441400Y-100584000D01*
X152171400Y-100584000D02*
X151104600Y-101650800D01*
X151104600Y-101650800D02*
X151104600Y-106908600D01*
X151104600Y-106908600D02*
X149838900Y-108174300D01*
%TO.N,/hr_dq5*%
X155394100Y-98450000D02*
X155394100Y-99901300D01*
X153644600Y-106908600D02*
X152378900Y-108174300D01*
X152378900Y-109380000D02*
X152378900Y-110570500D01*
X152378900Y-110570500D02*
X158394400Y-116586000D01*
X152378900Y-108174300D02*
X152378900Y-109380000D01*
X163576000Y-119380000D02*
X160782000Y-116586000D01*
X153644600Y-101650800D02*
X153644600Y-106908600D01*
X155394100Y-99901300D02*
X153644600Y-101650800D01*
X165640000Y-119380000D02*
X163576000Y-119380000D01*
D45*
%TO.N,/mgmt_spi_cs*%
X178577000Y-79410800D02*
X178577000Y-77424200D01*
X171094611Y-86893189D02*
X178577000Y-79410800D01*
X166801589Y-86893189D02*
X171094611Y-86893189D01*
D42*
X166149611Y-86893189D02*
X166801589Y-86893189D01*
D43*
X165900800Y-87142000D02*
X166149611Y-86893189D01*
D45*
%TO.N,/mgmt_spi_di*%
X176936400Y-80492600D02*
X176936400Y-76524800D01*
X170787000Y-86642000D02*
X176936400Y-80492600D01*
X166400800Y-86642000D02*
X170787000Y-86642000D01*
X176936400Y-76524800D02*
X178577000Y-74884200D01*
%TO.N,/mgmt_spi_clk*%
X171399200Y-87142000D02*
X166400800Y-87142000D01*
X181117000Y-77424200D02*
X171399200Y-87142000D01*
%TO.N,/mgmt_spi_do*%
X176530000Y-80340200D02*
X176530000Y-74803000D01*
D43*
X165900800Y-86642000D02*
X166149611Y-86393189D01*
D45*
X166149611Y-84878589D02*
X167970200Y-83058000D01*
X166149611Y-85758611D02*
X166149611Y-84878589D01*
D42*
X166149611Y-86393189D02*
X166149611Y-85758611D01*
D45*
X167970200Y-83058000D02*
X173812200Y-83058000D01*
X181737000Y-73279000D02*
X182372000Y-73914000D01*
X182372000Y-76139200D02*
X183657000Y-77424200D01*
X178054000Y-73279000D02*
X181737000Y-73279000D01*
X173812200Y-83058000D02*
X176530000Y-80340200D01*
X176530000Y-74803000D02*
X178054000Y-73279000D01*
X182372000Y-73914000D02*
X182372000Y-76139200D01*
%TO.N,/cvl_hr_rstn*%
X172004800Y-88642000D02*
X177038000Y-93675200D01*
X177038000Y-93675200D02*
X182675800Y-93675200D01*
X166400800Y-88642000D02*
X172004800Y-88642000D01*
X182675800Y-93675200D02*
X185775600Y-96775000D01*
D42*
%TO.N,/cvl_hr_csn*%
X166149611Y-88893189D02*
X166794989Y-88893189D01*
D45*
X171697189Y-88893189D02*
X176885600Y-94081600D01*
X176885600Y-94081600D02*
X179019200Y-94081600D01*
D43*
X165900800Y-89142000D02*
X166149611Y-88893189D01*
D45*
X166794989Y-88893189D02*
X171697189Y-88893189D01*
X179019200Y-94081600D02*
X181438400Y-96500800D01*
X181438400Y-96500800D02*
X181438400Y-96750000D01*
%TO.N,/cvl_hr_clk*%
X178612800Y-94488000D02*
X180638400Y-96513600D01*
X176733200Y-94488000D02*
X178612800Y-94488000D01*
X166400800Y-89142000D02*
X171387200Y-89142000D01*
X171387200Y-89142000D02*
X176733200Y-94488000D01*
X180638400Y-96513600D02*
X180638400Y-96750000D01*
D43*
%TO.N,/cvl_hr_clkn*%
X165900800Y-89642000D02*
X166149611Y-89393189D01*
D45*
X178231800Y-94894400D02*
X179838400Y-96501000D01*
X179838400Y-96501000D02*
X179838400Y-96750000D01*
D42*
X166149611Y-89393189D02*
X166791211Y-89393189D01*
D45*
X176580800Y-94894400D02*
X178231800Y-94894400D01*
X171079589Y-89393189D02*
X176580800Y-94894400D01*
X166791211Y-89393189D02*
X171079589Y-89393189D01*
%TO.N,/cvl_hr_rwds*%
X166400800Y-89642000D02*
X170769600Y-89642000D01*
X176428400Y-95300800D02*
X177825400Y-95300800D01*
X179038400Y-96513800D02*
X179038400Y-96750000D01*
X170769600Y-89642000D02*
X176428400Y-95300800D01*
X177825400Y-95300800D02*
X179038400Y-96513800D01*
D42*
%TO.N,/cvl_hr_dq0*%
X165649611Y-89890811D02*
X165649611Y-91024411D01*
D45*
X161518600Y-97586800D02*
X161213800Y-97282000D01*
X164191800Y-96750000D02*
X164191800Y-96987500D01*
X161213800Y-96266000D02*
X165649611Y-91830189D01*
X163592500Y-97586800D02*
X161518600Y-97586800D01*
X165649611Y-91830189D02*
X165649611Y-91024411D01*
X164191800Y-96987500D02*
X163592500Y-97586800D01*
X161213800Y-97282000D02*
X161213800Y-96266000D01*
D43*
X165400800Y-89642000D02*
X165649611Y-89890811D01*
D45*
%TO.N,/cvl_hr_dq1*%
X166801800Y-93091000D02*
X166801800Y-90525600D01*
X163391800Y-96501000D02*
X166801800Y-93091000D01*
D43*
X165900800Y-90142000D02*
X166149611Y-90390811D01*
D45*
X163391800Y-96750000D02*
X163391800Y-96501000D01*
D42*
X166667011Y-90390811D02*
X166801800Y-90525600D01*
X166149611Y-90390811D02*
X166667011Y-90390811D01*
D45*
%TO.N,/cvl_hr_dq2*%
X162591800Y-96750000D02*
X162591800Y-96513600D01*
X162591800Y-96513600D02*
X166400800Y-92704600D01*
X166400800Y-92704600D02*
X166400800Y-90642000D01*
%TO.N,/cvl_hr_dq3*%
X161791800Y-96500800D02*
X165900800Y-92391800D01*
X165900800Y-92391800D02*
X165900800Y-90642000D01*
X161791800Y-96750000D02*
X161791800Y-96500800D01*
D43*
%TO.N,/cvl_hr_dq4*%
X165400800Y-90142000D02*
X165151989Y-90390811D01*
D45*
X157327600Y-94996000D02*
X161544000Y-94996000D01*
D42*
X165151989Y-90390811D02*
X165151989Y-91032411D01*
D45*
X156194100Y-96750000D02*
X156194100Y-96129500D01*
X165151989Y-91388011D02*
X165151989Y-91032411D01*
X156194100Y-96129500D02*
X157327600Y-94996000D01*
X161544000Y-94996000D02*
X165151989Y-91388011D01*
%TO.N,/cvl_hr_dq5*%
X155993400Y-97586800D02*
X159385000Y-97586800D01*
X165400800Y-91571000D02*
X165400800Y-90642000D01*
X155394100Y-96750000D02*
X155394100Y-96987500D01*
X155394100Y-96987500D02*
X155993400Y-97586800D01*
X159385000Y-97586800D02*
X165400800Y-91571000D01*
%TO.N,/cvl_hr_dq6*%
X156286200Y-94488000D02*
X161620200Y-94488000D01*
X154594100Y-96750000D02*
X154594100Y-96180100D01*
X154594100Y-96180100D02*
X156286200Y-94488000D01*
X164900800Y-91207400D02*
X164900800Y-90642000D01*
X161620200Y-94488000D02*
X164900800Y-91207400D01*
%TO.N,/cvl_hr_dq7*%
X164651989Y-91024411D02*
X161696400Y-93980000D01*
D42*
X164651989Y-90390811D02*
X164651989Y-91024411D01*
D45*
X161696400Y-93980000D02*
X155956000Y-93980000D01*
D43*
X164900800Y-90142000D02*
X164651989Y-90390811D01*
D45*
X153794100Y-96141900D02*
X153794100Y-96750000D01*
X155956000Y-93980000D02*
X153794100Y-96141900D01*
D42*
%TO.N,/clock*%
X163500011Y-86893189D02*
X163499800Y-86893400D01*
D40*
X151892000Y-86834800D02*
X156837200Y-86834800D01*
D43*
X164900800Y-86642000D02*
X164649611Y-86893189D01*
D39*
X156895800Y-86893400D02*
X156870400Y-86868000D01*
X163499800Y-86893400D02*
X156895800Y-86893400D01*
D40*
X156837200Y-86834800D02*
X156870400Y-86868000D01*
D42*
X164649611Y-86893189D02*
X163500011Y-86893189D01*
D38*
%TO.N,unconnected-(J1-Pad6)*%
X199127500Y-82772400D02*
X199127500Y-85172400D01*
X199127500Y-80022400D02*
X199127500Y-82772400D01*
X199127500Y-85172400D02*
X199127500Y-87922400D01*
D40*
%TO.N,Net-(D1-Pad2)*%
X189687200Y-78055200D02*
X189687200Y-74583400D01*
%TO.N,Net-(D2-Pad2)*%
X172618400Y-74583400D02*
X172618400Y-78055200D01*
%TD*%
%TA.AperFunction,Conductor*%
%TO.N,+5V*%
G36*
X193490121Y-69574502D02*
G01*
X193536614Y-69628158D01*
X193548000Y-69680500D01*
X193548000Y-84328000D01*
X195397000Y-84328000D01*
X195465121Y-84348002D01*
X195511614Y-84401658D01*
X195523000Y-84454000D01*
X195523001Y-84676564D01*
X195523001Y-84847466D01*
X195537766Y-84921701D01*
X195544661Y-84932021D01*
X195544662Y-84932022D01*
X195585016Y-84992415D01*
X195594016Y-85005884D01*
X195678199Y-85062134D01*
X195752433Y-85076900D01*
X195808194Y-85076900D01*
X197003400Y-85076899D01*
X197071521Y-85096901D01*
X197118014Y-85150557D01*
X197129400Y-85202899D01*
X197129400Y-85316900D01*
X197109398Y-85385021D01*
X197055742Y-85431514D01*
X197003400Y-85442900D01*
X196941160Y-85442900D01*
X196936915Y-85443482D01*
X196936908Y-85443482D01*
X196878486Y-85451485D01*
X196833768Y-85457611D01*
X196825884Y-85461023D01*
X196825883Y-85461023D01*
X196708507Y-85511816D01*
X196708504Y-85511818D01*
X196700626Y-85515227D01*
X196587882Y-85606525D01*
X196503844Y-85724778D01*
X196454702Y-85861276D01*
X196444077Y-86005960D01*
X196472752Y-86148172D01*
X196476652Y-86155826D01*
X196534714Y-86269781D01*
X196534716Y-86269784D01*
X196538614Y-86277434D01*
X196636811Y-86384222D01*
X196760108Y-86460670D01*
X196768355Y-86463066D01*
X196893084Y-86499303D01*
X196893087Y-86499304D01*
X196899422Y-86501144D01*
X196906652Y-86501675D01*
X196907411Y-86501731D01*
X196907419Y-86501731D01*
X196909716Y-86501900D01*
X197003400Y-86501900D01*
X197071521Y-86521902D01*
X197118014Y-86575558D01*
X197129400Y-86627900D01*
X197129400Y-94108000D01*
X197109398Y-94176121D01*
X197055742Y-94222614D01*
X197003400Y-94234000D01*
X185774600Y-94234000D01*
X185706479Y-94213998D01*
X185659986Y-94160342D01*
X185648600Y-94108000D01*
X185648600Y-90063100D01*
X185668602Y-89994979D01*
X185722258Y-89948486D01*
X185774600Y-89937100D01*
X187465385Y-89937100D01*
X187513602Y-89946691D01*
X187565966Y-89968381D01*
X187565970Y-89968382D01*
X187573594Y-89971540D01*
X187731400Y-89992316D01*
X187889206Y-89971540D01*
X187896830Y-89968382D01*
X187896834Y-89968381D01*
X188028627Y-89913791D01*
X188028628Y-89913790D01*
X188036258Y-89910630D01*
X188162534Y-89813734D01*
X188259430Y-89687458D01*
X188262591Y-89679827D01*
X188317181Y-89548034D01*
X188317182Y-89548030D01*
X188320340Y-89540406D01*
X188341116Y-89382600D01*
X188320340Y-89224794D01*
X188317182Y-89217170D01*
X188317181Y-89217166D01*
X188262591Y-89085373D01*
X188262590Y-89085372D01*
X188259430Y-89077742D01*
X188189877Y-88987099D01*
X188167560Y-88958016D01*
X188162534Y-88951466D01*
X188078442Y-88886939D01*
X188042811Y-88859598D01*
X188042809Y-88859597D01*
X188036258Y-88854570D01*
X188020971Y-88848238D01*
X187896834Y-88796819D01*
X187896830Y-88796818D01*
X187889206Y-88793660D01*
X187731400Y-88772884D01*
X187573594Y-88793660D01*
X187565970Y-88796818D01*
X187565966Y-88796819D01*
X187513602Y-88818509D01*
X187465385Y-88828100D01*
X185774600Y-88828100D01*
X185706479Y-88808098D01*
X185659986Y-88754442D01*
X185648600Y-88702100D01*
X185648600Y-88628756D01*
X188656900Y-88628756D01*
X188663602Y-88690448D01*
X188714329Y-88825764D01*
X188719709Y-88832943D01*
X188719711Y-88832946D01*
X188739686Y-88859598D01*
X188800996Y-88941404D01*
X188808176Y-88946785D01*
X188909454Y-89022689D01*
X188909457Y-89022691D01*
X188916636Y-89028071D01*
X188981844Y-89052516D01*
X189044557Y-89076026D01*
X189044559Y-89076026D01*
X189051952Y-89078798D01*
X189059802Y-89079651D01*
X189059803Y-89079651D01*
X189110247Y-89085131D01*
X189113644Y-89085500D01*
X190159156Y-89085500D01*
X190162553Y-89085131D01*
X190212997Y-89079651D01*
X190212998Y-89079651D01*
X190220848Y-89078798D01*
X190228241Y-89076026D01*
X190228243Y-89076026D01*
X190290956Y-89052516D01*
X190356164Y-89028071D01*
X190363343Y-89022691D01*
X190363346Y-89022689D01*
X190464624Y-88946785D01*
X190471804Y-88941404D01*
X190541480Y-88848435D01*
X190598339Y-88805920D01*
X190642306Y-88798000D01*
X190776800Y-88798000D01*
X190825018Y-88807591D01*
X190875594Y-88828540D01*
X191033400Y-88849316D01*
X191191206Y-88828540D01*
X191198830Y-88825382D01*
X191198834Y-88825381D01*
X191330627Y-88770791D01*
X191330628Y-88770790D01*
X191338258Y-88767630D01*
X191423658Y-88702100D01*
X191457984Y-88675760D01*
X191464534Y-88670734D01*
X191561430Y-88544458D01*
X191564591Y-88536827D01*
X191619181Y-88405034D01*
X191619182Y-88405030D01*
X191622340Y-88397406D01*
X191643116Y-88239600D01*
X191622340Y-88081794D01*
X191619182Y-88074170D01*
X191619181Y-88074166D01*
X191564591Y-87942373D01*
X191564590Y-87942372D01*
X191561430Y-87934742D01*
X191505353Y-87861661D01*
X191469560Y-87815016D01*
X191464534Y-87808466D01*
X191338258Y-87711570D01*
X191330627Y-87708409D01*
X191198834Y-87653819D01*
X191198830Y-87653818D01*
X191191206Y-87650660D01*
X191033400Y-87629884D01*
X190875594Y-87650660D01*
X190867962Y-87653821D01*
X190867963Y-87653821D01*
X190806187Y-87679409D01*
X190757969Y-87689000D01*
X190642306Y-87689000D01*
X190574185Y-87668998D01*
X190541480Y-87638565D01*
X190477185Y-87552776D01*
X190471804Y-87545596D01*
X190451377Y-87530287D01*
X190363346Y-87464311D01*
X190363343Y-87464309D01*
X190356164Y-87458929D01*
X190302074Y-87438652D01*
X190272671Y-87427629D01*
X190215906Y-87384988D01*
X190191206Y-87318426D01*
X190190900Y-87309647D01*
X190190900Y-87235615D01*
X190200491Y-87187398D01*
X190222181Y-87135034D01*
X190222182Y-87135030D01*
X190225340Y-87127406D01*
X190246116Y-86969600D01*
X190225340Y-86811794D01*
X190222182Y-86804170D01*
X190222181Y-86804166D01*
X190167591Y-86672373D01*
X190167590Y-86672372D01*
X190164430Y-86664742D01*
X190067534Y-86538466D01*
X189969272Y-86463066D01*
X189947811Y-86446598D01*
X189947809Y-86446597D01*
X189941258Y-86441570D01*
X189933627Y-86438409D01*
X189801834Y-86383819D01*
X189801830Y-86383818D01*
X189794206Y-86380660D01*
X189636400Y-86359884D01*
X189478594Y-86380660D01*
X189470970Y-86383818D01*
X189470966Y-86383819D01*
X189339173Y-86438409D01*
X189331542Y-86441570D01*
X189324991Y-86446597D01*
X189324989Y-86446598D01*
X189303528Y-86463066D01*
X189205266Y-86538466D01*
X189108370Y-86664742D01*
X189105210Y-86672372D01*
X189105209Y-86672373D01*
X189050619Y-86804166D01*
X189050618Y-86804170D01*
X189047460Y-86811794D01*
X189026684Y-86969600D01*
X189047460Y-87127406D01*
X189050618Y-87135030D01*
X189050619Y-87135034D01*
X189072309Y-87187398D01*
X189081900Y-87235615D01*
X189081900Y-87309647D01*
X189061898Y-87377768D01*
X189008242Y-87424261D01*
X189000129Y-87427629D01*
X188970726Y-87438652D01*
X188916636Y-87458929D01*
X188909457Y-87464309D01*
X188909454Y-87464311D01*
X188821423Y-87530287D01*
X188800996Y-87545596D01*
X188795615Y-87552776D01*
X188719711Y-87654054D01*
X188719709Y-87654057D01*
X188714329Y-87661236D01*
X188663602Y-87796552D01*
X188656900Y-87858244D01*
X188656900Y-88628756D01*
X185648600Y-88628756D01*
X185648600Y-84490300D01*
X185668602Y-84422179D01*
X185722258Y-84375686D01*
X185774600Y-84364300D01*
X187313759Y-84364300D01*
X187361977Y-84373891D01*
X187446594Y-84408940D01*
X187604400Y-84429716D01*
X187762206Y-84408940D01*
X187769830Y-84405782D01*
X187769834Y-84405781D01*
X187901627Y-84351191D01*
X187901628Y-84351190D01*
X187909258Y-84348030D01*
X187935362Y-84328000D01*
X188028984Y-84256160D01*
X188035534Y-84251134D01*
X188132430Y-84124858D01*
X188142951Y-84099458D01*
X188190181Y-83985434D01*
X188190182Y-83985430D01*
X188193340Y-83977806D01*
X188214116Y-83820000D01*
X188193340Y-83662194D01*
X188190182Y-83654570D01*
X188190181Y-83654566D01*
X188135591Y-83522773D01*
X188135590Y-83522772D01*
X188132430Y-83515142D01*
X188035534Y-83388866D01*
X187934108Y-83311038D01*
X187915811Y-83296998D01*
X187915809Y-83296997D01*
X187909258Y-83291970D01*
X187901627Y-83288809D01*
X187769834Y-83234219D01*
X187769830Y-83234218D01*
X187762206Y-83231060D01*
X187604400Y-83210284D01*
X187446594Y-83231060D01*
X187411228Y-83245709D01*
X187363010Y-83255300D01*
X185774600Y-83255300D01*
X185706479Y-83235298D01*
X185659986Y-83181642D01*
X185648600Y-83129300D01*
X185648600Y-83085256D01*
X188682300Y-83085256D01*
X188689002Y-83146948D01*
X188739729Y-83282264D01*
X188745109Y-83289443D01*
X188745111Y-83289446D01*
X188785461Y-83343284D01*
X188826396Y-83397904D01*
X188833576Y-83403285D01*
X188934854Y-83479189D01*
X188934857Y-83479191D01*
X188942036Y-83484571D01*
X189006105Y-83508589D01*
X189069957Y-83532526D01*
X189069959Y-83532526D01*
X189077352Y-83535298D01*
X189085202Y-83536151D01*
X189085203Y-83536151D01*
X189135647Y-83541631D01*
X189139044Y-83542000D01*
X190184556Y-83542000D01*
X190187953Y-83541631D01*
X190238397Y-83536151D01*
X190238398Y-83536151D01*
X190246248Y-83535298D01*
X190253641Y-83532526D01*
X190253643Y-83532526D01*
X190317495Y-83508589D01*
X190381564Y-83484571D01*
X190388743Y-83479191D01*
X190388746Y-83479189D01*
X190490024Y-83403285D01*
X190497204Y-83397904D01*
X190566880Y-83304935D01*
X190623739Y-83262420D01*
X190667706Y-83254500D01*
X190786991Y-83254500D01*
X190835208Y-83264091D01*
X190893366Y-83288181D01*
X190893370Y-83288182D01*
X190900994Y-83291340D01*
X191058800Y-83312116D01*
X191216606Y-83291340D01*
X191224230Y-83288182D01*
X191224234Y-83288181D01*
X191356027Y-83233591D01*
X191356028Y-83233590D01*
X191363658Y-83230430D01*
X191462816Y-83154343D01*
X191483384Y-83138560D01*
X191489934Y-83133534D01*
X191524373Y-83088653D01*
X191581802Y-83013811D01*
X191581803Y-83013809D01*
X191586830Y-83007258D01*
X191620641Y-82925630D01*
X191644581Y-82867834D01*
X191644582Y-82867830D01*
X191647740Y-82860206D01*
X191668516Y-82702400D01*
X191647740Y-82544594D01*
X191644582Y-82536970D01*
X191644581Y-82536966D01*
X191589991Y-82405173D01*
X191589990Y-82405172D01*
X191586830Y-82397542D01*
X191541353Y-82338275D01*
X191494960Y-82277816D01*
X191489934Y-82271266D01*
X191363658Y-82174370D01*
X191356027Y-82171209D01*
X191224234Y-82116619D01*
X191224230Y-82116618D01*
X191216606Y-82113460D01*
X191058800Y-82092684D01*
X190900994Y-82113460D01*
X190893370Y-82116618D01*
X190893366Y-82116619D01*
X190846796Y-82135909D01*
X190798579Y-82145500D01*
X190667706Y-82145500D01*
X190599585Y-82125498D01*
X190566880Y-82095065D01*
X190565904Y-82093762D01*
X190497204Y-82002096D01*
X190447886Y-81965134D01*
X190388746Y-81920811D01*
X190388743Y-81920809D01*
X190381564Y-81915429D01*
X190327474Y-81895152D01*
X190298071Y-81884129D01*
X190241306Y-81841488D01*
X190216606Y-81774926D01*
X190216300Y-81766147D01*
X190216300Y-81698415D01*
X190225891Y-81650198D01*
X190247581Y-81597834D01*
X190247582Y-81597830D01*
X190250740Y-81590206D01*
X190271516Y-81432400D01*
X190250740Y-81274594D01*
X190247582Y-81266970D01*
X190247581Y-81266966D01*
X190192991Y-81135173D01*
X190192990Y-81135172D01*
X190189830Y-81127542D01*
X190171562Y-81103734D01*
X190097960Y-81007816D01*
X190092934Y-81001266D01*
X190019686Y-80945060D01*
X189973211Y-80909398D01*
X189973209Y-80909397D01*
X189966658Y-80904370D01*
X189959027Y-80901209D01*
X189827234Y-80846619D01*
X189827230Y-80846618D01*
X189819606Y-80843460D01*
X189661800Y-80822684D01*
X189503994Y-80843460D01*
X189496370Y-80846618D01*
X189496366Y-80846619D01*
X189364573Y-80901209D01*
X189356942Y-80904370D01*
X189350391Y-80909397D01*
X189350389Y-80909398D01*
X189303914Y-80945060D01*
X189230666Y-81001266D01*
X189225640Y-81007816D01*
X189152039Y-81103734D01*
X189133770Y-81127542D01*
X189130610Y-81135172D01*
X189130609Y-81135173D01*
X189076019Y-81266966D01*
X189076018Y-81266970D01*
X189072860Y-81274594D01*
X189052084Y-81432400D01*
X189072860Y-81590206D01*
X189076018Y-81597830D01*
X189076019Y-81597834D01*
X189097709Y-81650198D01*
X189107300Y-81698415D01*
X189107300Y-81766147D01*
X189087298Y-81834268D01*
X189033642Y-81880761D01*
X189025529Y-81884129D01*
X188996126Y-81895152D01*
X188942036Y-81915429D01*
X188934857Y-81920809D01*
X188934854Y-81920811D01*
X188875714Y-81965134D01*
X188826396Y-82002096D01*
X188821015Y-82009276D01*
X188745111Y-82110554D01*
X188745109Y-82110557D01*
X188739729Y-82117736D01*
X188689002Y-82253052D01*
X188682300Y-82314744D01*
X188682300Y-83085256D01*
X185648600Y-83085256D01*
X185648600Y-80010000D01*
X182929800Y-80010000D01*
X182861679Y-79989998D01*
X182815186Y-79936342D01*
X182803800Y-79884000D01*
X182803800Y-78418305D01*
X182823802Y-78350184D01*
X182877458Y-78303691D01*
X182947732Y-78293587D01*
X182999802Y-78313540D01*
X183052239Y-78348577D01*
X183127720Y-78399012D01*
X183133023Y-78401290D01*
X183133026Y-78401292D01*
X183221707Y-78439392D01*
X183314228Y-78479142D01*
X183387244Y-78495664D01*
X183506579Y-78522667D01*
X183506584Y-78522668D01*
X183512216Y-78523942D01*
X183517987Y-78524169D01*
X183517989Y-78524169D01*
X183577756Y-78526517D01*
X183715053Y-78531912D01*
X183815499Y-78517348D01*
X183910231Y-78503613D01*
X183910236Y-78503612D01*
X183915945Y-78502784D01*
X183921409Y-78500929D01*
X183921414Y-78500928D01*
X184102693Y-78439392D01*
X184102698Y-78439390D01*
X184108165Y-78437534D01*
X184285276Y-78338347D01*
X184316389Y-78312471D01*
X184436913Y-78212231D01*
X184441345Y-78208545D01*
X184571147Y-78052476D01*
X184670334Y-77875365D01*
X184672190Y-77869898D01*
X184672192Y-77869893D01*
X184733728Y-77688614D01*
X184733729Y-77688609D01*
X184735584Y-77683145D01*
X184736412Y-77677436D01*
X184736413Y-77677431D01*
X184764179Y-77485927D01*
X184764712Y-77482253D01*
X184766232Y-77424200D01*
X184747658Y-77222059D01*
X184746090Y-77216499D01*
X184694125Y-77032246D01*
X184694124Y-77032244D01*
X184692557Y-77026687D01*
X184664213Y-76969209D01*
X184605331Y-76849809D01*
X184602776Y-76844628D01*
X184481320Y-76681979D01*
X184332258Y-76544187D01*
X184327375Y-76541106D01*
X184327371Y-76541103D01*
X184165464Y-76438948D01*
X184160581Y-76435867D01*
X183972039Y-76360646D01*
X183966379Y-76359520D01*
X183966375Y-76359519D01*
X183778613Y-76322171D01*
X183778610Y-76322171D01*
X183772946Y-76321044D01*
X183767171Y-76320968D01*
X183767167Y-76320968D01*
X183665793Y-76319641D01*
X183569971Y-76318387D01*
X183564274Y-76319366D01*
X183564273Y-76319366D01*
X183375607Y-76351785D01*
X183369910Y-76352764D01*
X183201137Y-76415028D01*
X183130304Y-76419840D01*
X183068431Y-76385911D01*
X182840705Y-76158185D01*
X182806679Y-76095873D01*
X182803800Y-76069090D01*
X182803800Y-74956156D01*
X188732700Y-74956156D01*
X188739402Y-75017848D01*
X188790129Y-75153164D01*
X188795509Y-75160343D01*
X188795511Y-75160346D01*
X188861460Y-75248341D01*
X188876796Y-75268804D01*
X188883976Y-75274185D01*
X188985254Y-75350089D01*
X188985257Y-75350091D01*
X188992436Y-75355471D01*
X189068552Y-75384005D01*
X189125929Y-75405515D01*
X189182694Y-75448156D01*
X189207394Y-75514718D01*
X189207700Y-75523497D01*
X189207700Y-77377601D01*
X189187698Y-77445722D01*
X189156560Y-77478952D01*
X189087190Y-77530190D01*
X189005991Y-77640124D01*
X188960707Y-77769073D01*
X188957700Y-77800885D01*
X188957701Y-78309514D01*
X188960707Y-78341327D01*
X189005991Y-78470276D01*
X189087190Y-78580210D01*
X189197124Y-78661409D01*
X189326073Y-78706693D01*
X189333715Y-78707415D01*
X189333718Y-78707416D01*
X189348621Y-78708824D01*
X189357885Y-78709700D01*
X189686977Y-78709700D01*
X190016514Y-78709699D01*
X190019462Y-78709420D01*
X190019471Y-78709420D01*
X190040678Y-78707416D01*
X190040680Y-78707416D01*
X190048327Y-78706693D01*
X190177276Y-78661409D01*
X190287210Y-78580210D01*
X190368409Y-78470276D01*
X190413693Y-78341327D01*
X190416700Y-78309515D01*
X190416699Y-77800886D01*
X190413693Y-77769073D01*
X190368409Y-77640124D01*
X190287210Y-77530190D01*
X190217840Y-77478952D01*
X190174930Y-77422391D01*
X190166700Y-77377601D01*
X190166700Y-75523497D01*
X190186702Y-75455376D01*
X190240358Y-75408883D01*
X190248471Y-75405515D01*
X190305848Y-75384005D01*
X190381964Y-75355471D01*
X190389143Y-75350091D01*
X190389146Y-75350089D01*
X190490424Y-75274185D01*
X190497604Y-75268804D01*
X190512940Y-75248341D01*
X190578889Y-75160346D01*
X190578891Y-75160343D01*
X190584271Y-75153164D01*
X190634998Y-75017848D01*
X190641700Y-74956156D01*
X190641700Y-74210644D01*
X190634998Y-74148952D01*
X190584271Y-74013636D01*
X190578891Y-74006457D01*
X190578889Y-74006454D01*
X190502985Y-73905176D01*
X190497604Y-73897996D01*
X190454533Y-73865716D01*
X190389146Y-73816711D01*
X190389143Y-73816709D01*
X190381964Y-73811329D01*
X190292246Y-73777696D01*
X190254043Y-73763374D01*
X190254041Y-73763374D01*
X190246648Y-73760602D01*
X190238798Y-73759749D01*
X190238797Y-73759749D01*
X190188353Y-73754269D01*
X190188352Y-73754269D01*
X190184956Y-73753900D01*
X189189444Y-73753900D01*
X189186048Y-73754269D01*
X189186047Y-73754269D01*
X189135603Y-73759749D01*
X189135602Y-73759749D01*
X189127752Y-73760602D01*
X189120359Y-73763374D01*
X189120357Y-73763374D01*
X189082154Y-73777696D01*
X188992436Y-73811329D01*
X188985257Y-73816709D01*
X188985254Y-73816711D01*
X188919867Y-73865716D01*
X188876796Y-73897996D01*
X188871415Y-73905176D01*
X188795511Y-74006454D01*
X188795509Y-74006457D01*
X188790129Y-74013636D01*
X188739402Y-74148952D01*
X188732700Y-74210644D01*
X188732700Y-74956156D01*
X182803800Y-74956156D01*
X182803800Y-72906156D01*
X188732700Y-72906156D01*
X188739402Y-72967848D01*
X188790129Y-73103164D01*
X188795509Y-73110343D01*
X188795511Y-73110346D01*
X188861487Y-73198377D01*
X188876796Y-73218804D01*
X188883976Y-73224185D01*
X188985254Y-73300089D01*
X188985257Y-73300091D01*
X188992436Y-73305471D01*
X189082154Y-73339104D01*
X189120357Y-73353426D01*
X189120359Y-73353426D01*
X189127752Y-73356198D01*
X189135602Y-73357051D01*
X189135603Y-73357051D01*
X189186047Y-73362531D01*
X189189444Y-73362900D01*
X190184956Y-73362900D01*
X190188353Y-73362531D01*
X190238797Y-73357051D01*
X190238798Y-73357051D01*
X190246648Y-73356198D01*
X190254041Y-73353426D01*
X190254043Y-73353426D01*
X190292246Y-73339104D01*
X190381964Y-73305471D01*
X190389143Y-73300091D01*
X190389146Y-73300089D01*
X190490424Y-73224185D01*
X190497604Y-73218804D01*
X190512913Y-73198377D01*
X190578889Y-73110346D01*
X190578891Y-73110343D01*
X190584271Y-73103164D01*
X190634998Y-72967848D01*
X190641700Y-72906156D01*
X190641700Y-72160644D01*
X190634998Y-72098952D01*
X190584271Y-71963636D01*
X190578891Y-71956457D01*
X190578889Y-71956454D01*
X190502985Y-71855176D01*
X190497604Y-71847996D01*
X190429555Y-71796996D01*
X190389146Y-71766711D01*
X190389143Y-71766709D01*
X190381964Y-71761329D01*
X190305848Y-71732795D01*
X190248471Y-71711285D01*
X190191706Y-71668644D01*
X190167006Y-71602082D01*
X190166700Y-71593303D01*
X190166700Y-71182427D01*
X190176291Y-71134208D01*
X190224269Y-71018380D01*
X190227428Y-71010754D01*
X190246485Y-70866000D01*
X190227428Y-70721246D01*
X190171555Y-70586358D01*
X190082674Y-70470526D01*
X190076124Y-70465500D01*
X190076121Y-70465497D01*
X189973396Y-70386673D01*
X189973394Y-70386672D01*
X189966843Y-70381645D01*
X189831954Y-70325772D01*
X189687200Y-70306715D01*
X189679012Y-70307793D01*
X189550632Y-70324694D01*
X189550630Y-70324695D01*
X189542446Y-70325772D01*
X189494630Y-70345578D01*
X189415186Y-70378485D01*
X189415184Y-70378486D01*
X189407558Y-70381645D01*
X189291726Y-70470526D01*
X189202845Y-70586358D01*
X189146972Y-70721246D01*
X189127915Y-70866000D01*
X189146972Y-71010754D01*
X189150131Y-71018380D01*
X189198109Y-71134208D01*
X189207700Y-71182427D01*
X189207700Y-71593303D01*
X189187698Y-71661424D01*
X189134042Y-71707917D01*
X189125929Y-71711285D01*
X189068552Y-71732795D01*
X188992436Y-71761329D01*
X188985257Y-71766709D01*
X188985254Y-71766711D01*
X188944845Y-71796996D01*
X188876796Y-71847996D01*
X188871415Y-71855176D01*
X188795511Y-71956454D01*
X188795509Y-71956457D01*
X188790129Y-71963636D01*
X188739402Y-72098952D01*
X188732700Y-72160644D01*
X188732700Y-72906156D01*
X182803800Y-72906156D01*
X182803800Y-69680500D01*
X182823802Y-69612379D01*
X182877458Y-69565886D01*
X182929800Y-69554500D01*
X193422000Y-69554500D01*
X193490121Y-69574502D01*
G37*
%TD.AperFunction*%
%TD*%
%TA.AperFunction,Conductor*%
%TO.N,GND*%
G36*
X197071521Y-81046002D02*
G01*
X197118014Y-81099658D01*
X197129400Y-81152000D01*
X197129400Y-81316900D01*
X197109398Y-81385021D01*
X197055742Y-81431514D01*
X197003400Y-81442900D01*
X196941160Y-81442900D01*
X196936915Y-81443482D01*
X196936908Y-81443482D01*
X196878486Y-81451485D01*
X196833768Y-81457611D01*
X196825884Y-81461023D01*
X196825883Y-81461023D01*
X196708507Y-81511816D01*
X196708504Y-81511818D01*
X196700626Y-81515227D01*
X196587882Y-81606525D01*
X196503844Y-81724778D01*
X196454702Y-81861276D01*
X196444077Y-82005960D01*
X196472752Y-82148172D01*
X196476652Y-82155826D01*
X196534714Y-82269781D01*
X196534716Y-82269784D01*
X196538614Y-82277434D01*
X196636811Y-82384222D01*
X196760108Y-82460670D01*
X196768355Y-82463066D01*
X196893084Y-82499303D01*
X196893087Y-82499304D01*
X196899422Y-82501144D01*
X196906652Y-82501675D01*
X196907411Y-82501731D01*
X196907419Y-82501731D01*
X196909716Y-82501900D01*
X197003400Y-82501900D01*
X197071521Y-82521902D01*
X197118014Y-82575558D01*
X197129400Y-82627900D01*
X197129400Y-82741900D01*
X197109398Y-82810021D01*
X197055742Y-82856514D01*
X197003400Y-82867900D01*
X195808212Y-82867901D01*
X195752434Y-82867901D01*
X195716420Y-82875064D01*
X195702769Y-82877779D01*
X195678190Y-82880200D01*
X194690000Y-82880200D01*
X194621879Y-82860198D01*
X194575386Y-82806542D01*
X194564000Y-82754200D01*
X194564000Y-81152000D01*
X194584002Y-81083879D01*
X194637658Y-81037386D01*
X194690000Y-81026000D01*
X197003400Y-81026000D01*
X197071521Y-81046002D01*
G37*
%TD.AperFunction*%
%TD*%
M02*
